<svg width="174" height="45" viewBox="0 0 174 45" fill="none" xmlns="http://www.w3.org/2000/svg">
<path d="M33.7344 44H28.0801V24.2832H6.57617V44H0.951172V1.34375H6.57617V19.6836H28.0801V1.34375H33.7344V44ZM67.8359 24.2832H49.3496V39.4004H70.8242V44H43.7246V1.34375H70.5312V5.97266H49.3496V19.6836H67.8359V24.2832ZM83.4805 39.4004H103.695V44H77.8262V1.34375H83.4805V39.4004ZM115.766 39.4004H135.98V44H110.111V1.34375H115.766V39.4004ZM173.275 24.0488C173.275 28.2285 172.572 31.8809 171.166 35.0059C169.76 38.1113 167.768 40.4844 165.189 42.125C162.611 43.7656 159.604 44.5859 156.166 44.5859C152.807 44.5859 149.828 43.7656 147.23 42.125C144.633 40.4648 142.611 38.1113 141.166 35.0645C139.74 31.998 139.008 28.4531 138.969 24.4297V21.3535C138.969 17.252 139.682 13.6289 141.107 10.4844C142.533 7.33984 144.545 4.9375 147.143 3.27734C149.76 1.59766 152.748 0.757812 156.107 0.757812C159.525 0.757812 162.533 1.58789 165.131 3.24805C167.748 4.88867 169.76 7.28125 171.166 10.4258C172.572 13.5508 173.275 17.1934 173.275 21.3535V24.0488ZM167.68 21.2949C167.68 16.2363 166.664 12.3594 164.633 9.66406C162.602 6.94922 159.76 5.5918 156.107 5.5918C152.553 5.5918 149.75 6.94922 147.699 9.66406C145.668 12.3594 144.623 16.1094 144.564 20.9141V24.0488C144.564 28.9512 145.59 32.8086 147.641 35.6211C149.711 38.4141 152.553 39.8105 156.166 39.8105C159.799 39.8105 162.611 38.4922 164.604 35.8555C166.596 33.1992 167.621 29.4004 167.68 24.459V21.2949Z" fill="black"/>
</svg>
