<svg width="654" height="654" viewBox="0 0 654 654" fill="none" xmlns="http://www.w3.org/2000/svg">
<path d="M634.455 19.9966C635.479 21.1105 636.133 22.5136 636.327 24.014L653.941 161.811C654.083 162.921 653.968 164.048 653.606 165.107C653.244 166.166 652.645 167.127 651.853 167.919C651.062 168.71 650.1 169.309 649.041 169.671C647.983 170.033 646.855 170.147 645.745 170.005L551.795 157.994L563.807 251.944C563.948 253.054 563.834 254.181 563.472 255.24C563.11 256.299 562.511 257.261 561.719 258.053C560.928 258.844 559.966 259.443 558.907 259.805C557.848 260.167 556.721 260.282 555.611 260.14L461.638 248.15L473.65 342.1C473.79 343.209 473.674 344.336 473.311 345.394C472.948 346.452 472.348 347.412 471.556 348.202L433.937 385.822C442.136 421.988 441.051 459.641 430.782 495.275C420.514 530.909 401.396 563.366 375.209 589.624C333.99 630.843 278.085 654 219.792 654C161.5 654 105.595 630.844 64.3759 589.625C43.9662 569.216 27.7763 544.986 16.7307 518.32C5.68504 491.654 -9.27909e-06 463.073 -2.53139e-06 434.209C4.21631e-06 405.346 5.68503 376.765 16.7307 350.098C27.7764 323.432 43.9662 299.202 64.3759 278.792C90.6319 252.561 123.103 233.405 158.761 223.111C194.42 212.818 232.104 211.721 268.3 219.924L486.074 2.14367C486.866 1.35261 487.828 0.753481 488.888 0.392217C489.947 0.0309526 491.075 -0.0828749 492.185 0.0595776L629.99 17.6739C631.704 17.8958 633.285 18.7167 634.452 19.9913L634.455 19.9966ZM222.252 431.745C211.26 420.754 196.352 414.579 180.807 414.579C165.263 414.579 150.355 420.754 139.363 431.745C133.921 437.188 129.603 443.649 126.658 450.76C123.712 457.871 122.196 465.493 122.196 473.19C122.196 480.887 123.712 488.508 126.658 495.619C129.603 502.73 133.921 509.191 139.363 514.634C144.806 520.077 151.267 524.394 158.378 527.339C165.489 530.285 173.111 531.801 180.808 531.801C188.505 531.801 196.126 530.285 203.237 527.339C210.348 524.394 216.81 520.077 222.252 514.634C233.244 503.642 239.419 488.734 239.419 473.19C239.419 457.645 233.244 442.737 222.252 431.746" fill="url(#paint0_linear)"/>
<defs>
<linearGradient id="paint0_linear" x1="327" y1="0" x2="327" y2="654" gradientUnits="userSpaceOnUse">
<stop/>
<stop offset="0.989583"/>
</linearGradient>
</defs>
</svg>
