<svg width="50" height="50" viewBox="0 0 50 50" fill="none" xmlns="http://www.w3.org/2000/svg">
<path d="M48.5057 1.52879C48.584 1.61395 48.634 1.72123 48.6488 1.83593L49.9955 12.3709C50.0063 12.4557 49.9976 12.5419 49.9699 12.6229C49.9422 12.7038 49.8964 12.7773 49.8359 12.8378C49.7754 12.8983 49.7019 12.9441 49.6209 12.9718C49.54 12.9994 49.4538 13.0082 49.3689 12.9973L42.1862 12.079L43.1045 19.2617C43.1153 19.3466 43.1066 19.4328 43.0789 19.5138C43.0512 19.5947 43.0054 19.6683 42.9449 19.7288C42.8844 19.7893 42.8109 19.8351 42.7299 19.8628C42.649 19.8904 42.5627 19.8992 42.4779 19.8884L35.2935 18.9717L36.2118 26.1544C36.2225 26.2393 36.2136 26.3254 36.1858 26.4063C36.1581 26.4871 36.1122 26.5606 36.0517 26.621L33.1756 29.4971C33.8024 32.2621 33.7195 35.1407 32.9344 37.8651C32.1494 40.5894 30.6878 43.0708 28.6857 45.0783C25.5344 48.2296 21.2603 50 16.8037 50C12.3471 50 8.07299 48.2297 4.9217 45.0784C3.36133 43.5181 2.12357 41.6656 1.27911 39.6269C0.434637 37.5882 -2.5007e-07 35.4031 2.65809e-07 33.1964C7.81688e-07 30.9897 0.434636 28.8046 1.27911 26.7659C2.12357 24.7272 3.36133 22.8748 4.9217 21.3144C6.92905 19.3089 9.41155 17.8444 12.1377 17.0574C14.8639 16.2705 17.7449 16.1866 20.5123 16.8138L37.1616 0.163889C37.2222 0.10341 37.2957 0.0576055 37.3767 0.029986C37.4577 0.00236641 37.544 -0.006336 37.6288 0.00455486L48.1644 1.35122C48.2954 1.36818 48.4163 1.43094 48.5055 1.52839L48.5057 1.52879ZM16.9917 33.008C16.1514 32.1677 15.0116 31.6956 13.8232 31.6956C12.6348 31.6956 11.495 32.1677 10.6547 33.008C10.2386 33.4241 9.90851 33.9181 9.68332 34.4618C9.45813 35.0054 9.34222 35.5881 9.34222 36.1766C9.34222 36.765 9.45813 37.3477 9.68332 37.8914C9.90851 38.435 10.2386 38.929 10.6547 39.3451C11.0708 39.7612 11.5648 40.0913 12.1084 40.3164C12.6521 40.5416 13.2348 40.6576 13.8232 40.6576C14.4117 40.6576 14.9943 40.5416 15.538 40.3164C16.0817 40.0913 16.5757 39.7612 16.9918 39.3451C17.8321 38.5048 18.3042 37.365 18.3042 36.1766C18.3042 34.9882 17.8321 33.8484 16.9918 33.0081" fill="#60E930"/>
</svg>
