<svg width="100" height="100" viewBox="0 0 100 100" fill="none" xmlns="http://www.w3.org/2000/svg">
<path d="M97.0115 3.05759C97.168 3.2279 97.268 3.44245 97.2977 3.67187L99.991 24.7417C100.013 24.9114 99.9951 25.0838 99.9398 25.2457C99.8844 25.4076 99.7928 25.5547 99.6718 25.6756C99.5508 25.7966 99.4037 25.8883 99.2418 25.9436C99.0799 25.9989 98.9075 26.0164 98.7378 25.9947L84.3723 24.1581L86.209 38.5235C86.2306 38.6932 86.2131 38.8657 86.1578 39.0276C86.1025 39.1895 86.0108 39.3366 85.8898 39.4576C85.7688 39.5786 85.6218 39.6702 85.4598 39.7255C85.2979 39.7809 85.1255 39.7984 84.9558 39.7767L70.5869 37.9434L72.4236 52.3089C72.4449 52.4785 72.4272 52.6508 72.3717 52.8125C72.3162 52.9743 72.2244 53.1212 72.1034 53.2419L66.3512 58.9941C67.6049 64.5241 67.4389 70.2814 65.8689 75.7301C64.2988 81.1788 61.3756 86.1416 57.3714 90.1565C51.0688 96.4591 42.5206 100 33.6074 100C24.6941 100 16.146 96.4594 9.8434 90.1568C6.72266 87.0361 4.24715 83.3313 2.55821 79.2538C0.869273 75.1764 -5.0014e-07 70.8063 5.31618e-07 66.3929C1.56338e-06 61.9795 0.869272 57.6093 2.55821 53.5319C4.24715 49.4544 6.72265 45.7496 9.8434 42.6288C13.8581 38.6179 18.8231 35.6889 24.2754 34.1149C29.7278 32.5409 35.4899 32.3733 41.0245 33.6276L74.3232 0.327779C74.4443 0.206821 74.5915 0.115211 74.7535 0.059972C74.9155 0.00473282 75.0879 -0.012672 75.2577 0.00910972L96.3287 2.70243C96.5908 2.73636 96.8325 2.86187 97.0111 3.05678L97.0115 3.05759ZM33.9834 66.0161C32.3027 64.3354 30.0232 63.3913 27.6464 63.3913C25.2696 63.3913 22.9901 64.3354 21.3094 66.0161C20.4772 66.8483 19.817 67.8363 19.3666 68.9236C18.9163 70.0109 18.6844 71.1763 18.6844 72.3532C18.6844 73.5301 18.9163 74.6954 19.3666 75.7827C19.817 76.87 20.4772 77.858 21.3094 78.6902C22.1415 79.5224 23.1295 80.1825 24.2168 80.6329C25.3041 81.0833 26.4695 81.3151 27.6464 81.3151C28.8233 81.3151 29.9887 81.0833 31.076 80.6329C32.1633 80.1825 33.1513 79.5224 33.9835 78.6902C35.6642 77.0095 36.6084 74.73 36.6084 72.3532C36.6084 69.9764 35.6642 67.6968 33.9835 66.0162" fill="black"/>
</svg>
