<svg width="246" height="77" viewBox="0 0 246 77" fill="none" xmlns="http://www.w3.org/2000/svg">
<path d="M57.2524 60.405C57.2524 60.915 56.8274 61.17 55.9774 61.17C55.4108 61.17 54.9008 61.1417 54.4474 61.085L43.6524 60.915L32.8574 61.085C32.4608 61.1417 32.0358 61.17 31.5824 61.17C30.4491 61.17 29.8824 60.8867 29.8824 60.32C29.8824 59.6967 30.6474 59.385 32.1774 59.385C37.1641 59.3283 39.6574 58.8183 39.6574 57.855C39.6574 57.7983 39.6008 57.5717 39.4874 57.175L38.8074 54.88L38.3824 53.69C37.8724 51.9333 36.6258 48.0517 34.6424 42.045H16.4524C13.0524 51.1117 11.3524 56.325 11.3524 57.685C11.3524 58.4783 11.6924 58.96 12.3724 59.13C12.5424 59.1867 13.9591 59.3 16.6224 59.47C18.2658 59.5267 19.0874 59.81 19.0874 60.32C19.0874 60.8867 18.3508 61.17 16.8774 61.17C14.2708 61.17 11.2391 61.0567 7.78242 60.83C6.93242 60.7733 6.05409 60.745 5.14742 60.745C4.24076 60.745 3.36242 60.8017 2.51242 60.915C2.05909 60.9717 1.69076 61 1.40742 61C0.61409 61 0.217423 60.745 0.217423 60.235C0.217423 59.725 1.09576 59.4417 2.85242 59.385C4.66576 59.3283 5.96909 59.0733 6.76242 58.62C7.55576 58.11 8.17909 57.175 8.63242 55.815C15.9424 34.9617 21.8924 18.2167 26.4824 5.58C26.5958 4.9 26.8224 4.135 27.1624 3.285L27.5874 1.755C27.7574 1.13167 27.9841 0.82 28.2674 0.82C28.4374 0.82 28.5791 0.989999 28.6924 1.33C29.4291 3.54 31.1008 8.15833 33.7074 15.185C35.7474 20.6817 40.8191 34.48 48.9224 56.58C49.3758 57.8267 49.9424 58.62 50.6224 58.96C51.3591 59.3 52.8324 59.4983 55.0424 59.555C56.5158 59.6117 57.2524 59.895 57.2524 60.405ZM34.1324 40.09C33.2258 37.54 31.7241 33.3183 29.6274 27.425L25.5474 15.78C23.1674 22.0133 20.3058 30.1167 16.9624 40.09H34.1324ZM91.9802 45.53C91.9802 51.31 89.3452 55.5883 84.0752 58.365C81.5252 59.725 77.8702 60.575 73.1102 60.915C71.8069 60.9717 67.9536 61 61.5502 61H51.1802C50.2169 61 49.7352 60.745 49.7352 60.235C49.7352 59.725 50.6136 59.47 52.3702 59.47C54.4102 59.47 55.6002 59.2717 55.9402 58.875C56.3369 58.4217 56.5352 57.1183 56.5352 54.965V8.98C56.5352 6.48666 56.4219 5.04166 56.1952 4.645C55.7986 3.965 54.3536 3.59666 51.8602 3.54C50.3302 3.54 49.5652 3.25666 49.5652 2.69C49.5652 2.18 50.2736 1.925 51.6902 1.925C51.7469 1.925 52.0869 1.925 52.7102 1.925C53.3336 1.98166 53.9002 2.01 54.4102 2.01L70.9852 2.18C77.1052 2.23666 81.6669 3.25666 84.6702 5.24C88.1836 7.56333 89.9402 10.935 89.9402 15.355C89.9402 19.2083 88.4952 22.3817 85.6052 24.875C82.7152 27.3117 78.6636 28.8417 73.4502 29.465V29.975C78.6069 30.315 82.6302 31.3917 85.5202 33.205C89.8269 35.925 91.9802 40.0333 91.9802 45.53ZM80.5902 16.205C80.5902 10.765 79.3436 7.13833 76.8502 5.325C75.5469 4.36166 73.0819 3.88 69.4552 3.88C68.4919 3.88 66.9902 3.965 64.9502 4.135V28.785H65.7152L70.3902 28.615C73.6202 28.5017 76.1136 27.3683 77.8702 25.215C79.6836 23.005 80.5902 20.0017 80.5902 16.205ZM83.0552 44.595C83.0552 37.455 80.1652 33.035 74.3852 31.335C72.6852 30.825 69.5402 30.57 64.9502 30.57V55.9C64.9502 57.5433 65.1202 58.4783 65.4602 58.705C66.0269 59.1017 67.6136 59.3 70.2202 59.3C74.1302 59.3 77.2469 58.0533 79.5702 55.56C81.8936 53.0667 83.0552 49.4117 83.0552 44.595ZM147.68 31.845C147.68 40.2883 145.13 47.4283 140.03 53.265C134.986 59.1017 128.781 62.02 121.415 62.02C113.595 62.02 107.021 59.0733 101.695 53.18C96.3681 47.23 93.7048 39.92 93.7048 31.25C93.7048 22.41 96.2548 15.185 101.355 9.575C106.511 3.90833 113.085 1.075 121.075 1.075C128.611 1.075 134.93 4.02166 140.03 9.915C145.13 15.8083 147.68 23.1183 147.68 31.845ZM138.16 32.27C138.16 21.9 136.035 13.825 131.785 8.045C129.121 4.41833 125.41 2.605 120.65 2.605C116.116 2.605 112.603 3.99333 110.11 6.77C105.52 11.87 103.225 20.1717 103.225 31.675C103.225 40.7983 104.811 47.8817 107.985 52.925C111.215 57.9683 115.72 60.49 121.5 60.49C126.883 60.49 130.935 58.11 133.655 53.35C136.658 48.08 138.16 41.0533 138.16 32.27ZM201.122 2.77499C201.122 3.28499 200.612 3.54 199.592 3.54C199.422 3.54 198.855 3.51166 197.892 3.455C197.608 3.39833 197.212 3.37 196.702 3.37C195.285 3.37 194.435 3.73833 194.152 4.475C194.038 4.87166 193.982 5.52333 193.982 6.43V38.305C193.982 46.5783 192.423 52.6133 189.307 56.41C186.247 60.15 181.288 62.02 174.432 62.02C166.215 62.02 160.435 59.6967 157.092 55.05C154.882 51.9333 153.777 46.805 153.777 39.665L153.692 5.58C153.522 4.56 152.842 3.93667 151.652 3.71C151.312 3.65333 150.263 3.625 148.507 3.625C147.543 3.51166 147.062 3.22833 147.062 2.77499C147.062 2.265 147.458 2.01 148.252 2.01H149.782C150.065 2.01 150.717 2.03833 151.737 2.095C152.643 2.095 153.465 2.095 154.202 2.095L166.357 2.01C166.64 1.95333 166.98 1.925 167.377 1.925C168.34 1.925 168.822 2.23666 168.822 2.86C168.822 3.25666 168.652 3.48333 168.312 3.54C167.972 3.59666 166.838 3.65333 164.912 3.71C164.118 3.71 163.58 3.76666 163.297 3.88C162.73 4.10666 162.418 4.50333 162.362 5.07C162.305 5.29666 162.277 6.91166 162.277 9.915V40.345C162.277 47.825 163.467 52.925 165.847 55.645C168.227 58.365 171.768 59.725 176.472 59.725C185.085 59.725 189.958 54.8233 191.092 45.02C191.262 43.5467 191.347 37.3133 191.347 26.32V21.475L191.432 14.675L191.347 8.81C191.347 8.24333 191.347 7.62 191.347 6.94C191.403 6.20333 191.432 5.89166 191.432 6.005C191.432 4.75833 190.837 3.99333 189.647 3.71C189.25 3.59666 188.088 3.54 186.162 3.54C185.028 3.54 184.462 3.22833 184.462 2.605C184.462 2.095 184.858 1.84 185.652 1.84C186.105 1.84 186.473 1.86833 186.757 1.925C187.437 1.98166 189.902 2.01 194.152 2.01C194.775 2.01 195.483 1.98166 196.277 1.925C197.013 1.925 197.552 1.925 197.892 1.925H199.167C200.47 1.925 201.122 2.20833 201.122 2.77499ZM244.473 17.055C244.473 17.7917 244.133 18.16 243.453 18.16C242.773 18.16 242.291 17.4233 242.008 15.95C241.895 14.93 241.781 13.91 241.668 12.89C241.271 10.85 240.62 9.12166 239.713 7.705C238.523 5.835 236.568 4.645 233.848 4.135C232.091 3.795 230.675 3.65333 229.598 3.71C226.935 3.82333 225.32 3.90833 224.753 3.965V55.22C224.753 57.26 225.291 58.535 226.368 59.045C226.935 59.3283 228.521 59.4983 231.128 59.555C231.808 59.6117 232.148 59.8667 232.148 60.32C232.148 60.83 231.695 61.085 230.788 61.085C230.335 61.085 229.938 61.0567 229.598 61C226.198 60.8867 223.79 60.83 222.373 60.83C220.503 60.83 218.746 60.8583 217.103 60.915C215.46 60.9717 213.363 61 210.813 61C209.51 61 208.858 60.7733 208.858 60.32C208.858 59.81 210.076 59.5267 212.513 59.47C214.27 59.47 215.403 59.1017 215.913 58.365C216.196 57.9117 216.338 56.75 216.338 54.88V3.965C210.728 4.02167 207.243 4.305 205.883 4.815C202.313 6.11833 200.216 9.60333 199.593 15.27C199.423 16.97 199.026 17.82 198.403 17.82C197.723 17.82 197.383 17.225 197.383 16.035C197.383 15.4117 197.411 14.7883 197.468 14.165L197.638 12.21C197.808 9.60333 198.063 6.175 198.403 1.925H202.228L219.568 2.18C221.608 2.23666 224.781 2.20833 229.088 2.095L243.198 1.84C243.311 5.01333 243.68 9.71666 244.303 15.95C244.303 16.12 244.331 16.3467 244.388 16.63C244.445 16.8567 244.473 16.9983 244.473 17.055Z" fill="#FF8B8B"/>
<path d="M2.25742 72.645H245.748V76.555H2.25742V72.645Z" fill="#FF8B8B"/>
</svg>
