<svg width="304" height="69" viewBox="0 0 304 69" fill="none" xmlns="http://www.w3.org/2000/svg">
<path d="M48.1261 66.2797L48.2602 66.57H48.58H62.435H63.2295L62.8858 65.8537L32.6258 2.78371L32.1744 1.8428L31.724 2.78421L1.54896 65.8542L1.2065 66.57H2H15.855H16.1766L16.31 66.2773L22.2966 53.14H42.0552L48.1261 66.2797ZM73.1377 6.07H72.6377V6.57V66.07V66.57H73.1377H85.3777H85.8777V66.07V44.98H90.3745L104.082 66.34L104.229 66.57H104.503H119.038H119.999L119.447 65.783L103.675 43.2876C107.5 41.8808 110.52 39.653 112.612 36.7504C114.816 33.6906 115.968 29.9089 115.968 25.61C115.968 19.8304 113.878 14.9275 109.954 11.4752C106.037 8.02863 100.341 6.07 93.1977 6.07H73.1377ZM123.648 17.62V18.12H124.148H139.628V66.07V66.57H140.128H152.368H152.868V66.07V18.12H168.433H168.933V17.62V6.57V6.07H168.433H124.148H123.648V6.57V17.62ZM179.587 6.07H179.087V6.57V66.07V66.57H179.587H191.997H192.497V66.07V6.57V6.07H191.997H179.587ZM214.777 45.7643L214.504 45.2806L214.051 45.6026L205.211 51.8926L204.874 52.1327L205.047 52.509C209.032 61.1713 218.21 68.1 229.471 68.1C240.346 68.1 250.881 61.3456 250.881 49.41C250.881 39.0595 243.226 33.5793 235.417 30.8333L235.413 30.832C230.951 29.302 227.675 27.9395 225.518 26.4326C223.385 24.9423 222.406 23.357 222.406 21.36C222.406 20.0129 222.942 18.7735 224.015 17.8632C225.093 16.9487 226.753 16.335 229.046 16.335C234.057 16.335 237.579 19.6386 240.093 23.8273L240.344 24.247L240.769 24.0041L250.289 18.5641L250.7 18.3295L250.489 17.9064C247.365 11.6586 240.498 4.88 229.046 4.88C223.386 4.88 218.338 6.52181 214.696 9.47537C211.045 12.4357 208.826 16.699 208.826 21.87C208.826 27.736 211.397 31.7774 214.718 34.6175C218.019 37.4413 222.065 39.0811 225.045 40.1879C229.057 41.7245 232.045 42.9335 234.04 44.414C235.026 45.1465 235.75 45.9323 236.231 46.839C236.71 47.7438 236.961 48.7979 236.961 50.09C236.961 52.0787 236.211 53.6782 234.906 54.7879C233.593 55.9047 231.678 56.56 229.301 56.56C223.198 56.56 218.485 52.3378 214.777 45.7643ZM257.921 17.62V18.12H258.421H273.901V66.07V66.57H274.401H286.641H287.141V66.07V18.12H302.706H303.206V17.62V6.57V6.07H302.706H258.421H257.921V6.57V17.62ZM32.175 27.2157L38.7257 42.45H25.6243L32.175 27.2157ZM92.4327 17.61C95.4976 17.61 97.9644 18.3971 99.6559 19.81C101.336 21.2133 102.303 23.2761 102.303 25.95C102.303 28.6239 101.336 30.6867 99.6559 32.09C97.9644 33.5029 95.4976 34.29 92.4327 34.29H85.8777V17.61H92.4327Z" stroke="white"/>
</svg>
