<svg width="121" height="30" viewBox="0 0 121 30" fill="none" xmlns="http://www.w3.org/2000/svg">
<path d="M19.8226 28.5896L19.9553 28.8842H20.2784H25.7153H26.5012L26.1682 28.1723L14.2939 2.78814L13.8403 1.8186L13.3878 2.78863L1.54687 28.1728L1.21504 28.8842H2H7.43684H7.76182L7.89377 28.5872L10.1634 23.4789H17.5204L19.8226 28.5896ZM29.9151 3.93684H29.4151V4.43684V28.3842V28.8842H29.9151H34.7182H35.2182V28.3842V20.1947H36.5093L41.7992 28.6494L41.9461 28.8842H42.2231H47.9267H48.8742L48.3395 28.102L42.3589 19.3529C45.3544 18.0809 47.0258 15.4733 47.0258 12.1C47.0258 9.70216 46.1785 7.64465 44.5677 6.19098C42.9619 4.7418 40.647 3.93684 37.7869 3.93684H29.9151ZM49.4319 8.88421V9.38421H49.9319H55.7026V28.3842V28.8842H56.2026H61.0057H61.5057V28.3842V9.38421H67.3098H67.8098V8.88421V4.43684V3.93684H67.3098H49.9319H49.4319V4.43684V8.88421ZM71.6868 3.93684H71.1868V4.43684V28.3842V28.8842H71.6868H76.5566H77.0566V28.3842V4.43684V3.93684H76.5566H71.6868ZM85.7629 20.0696L85.489 19.5717L85.03 19.9066L81.5611 22.4382L81.2339 22.6771L81.3997 23.0467C83.0054 26.6271 86.7074 29.5 91.2619 29.5C95.6424 29.5 99.9672 26.6968 99.9672 21.6789C99.9672 17.329 96.8155 15.0455 93.6997 13.9217L93.6959 13.9204C91.9451 13.3047 90.6972 12.7682 89.8896 12.1896C89.1067 11.6287 88.7934 11.0717 88.7934 10.3895C88.7934 9.92664 88.9707 9.51149 89.322 9.20584C89.6772 8.89683 90.2511 8.66579 91.0952 8.66579C92.8975 8.66579 94.1997 9.87884 95.1665 11.5314L95.4192 11.9633L95.8509 11.7103L99.5866 9.52084L99.9862 9.28667L99.7832 8.87037C98.5217 6.2826 95.7367 3.45789 91.0952 3.45789C88.8145 3.45789 86.7607 4.13647 85.2677 5.37806C83.7672 6.62597 82.8568 8.42513 82.8568 10.5947C82.8568 13.0529 83.9123 14.7571 85.2702 15.9482C86.6092 17.1228 88.2411 17.7984 89.4137 18.2452C90.9987 18.8679 92.1266 19.3395 92.8686 19.9044C93.2291 20.1788 93.4799 20.4626 93.6434 20.7794C93.8063 21.0948 93.8973 21.4712 93.8973 21.9526C93.8973 22.6761 93.6337 23.2354 93.193 23.62C92.7453 24.0106 92.071 24.2579 91.1952 24.2579C88.9721 24.2579 87.2016 22.6854 85.7629 20.0696ZM102.122 8.88421V9.38421H102.622H108.393V28.3842V28.8842H108.893H113.696H114.196V28.3842V9.38421H120H120.5V8.88421V4.43684V3.93684H120H102.622H102.122V4.43684V8.88421ZM13.841 13.53L15.9577 18.5789H11.7242L13.841 13.53ZM37.4867 9.17895C38.6378 9.17895 39.5277 9.48205 40.1216 9.99089C40.7056 10.4912 41.056 11.2346 41.056 12.2368C41.056 13.2391 40.7056 13.9824 40.1216 14.4828C39.5277 14.9916 38.6378 15.2947 37.4867 15.2947H35.2182V9.17895H37.4867Z" fill="white" stroke="#F2FFDC"/>
</svg>
