<svg width="103" height="103" viewBox="0 0 103 103" fill="none" xmlns="http://www.w3.org/2000/svg">
<circle cx="51.5" cy="51.5" r="51.5" fill="#FCF3F3"/>
<g clip-path="url(#clip0)">
<path d="M37.4154 79.7242H60.216C65.5719 79.7242 70.0861 75.951 71.3103 70.9456C74.2943 69.4825 78.5024 67.0954 82.4811 63.3991C82.5576 63.3221 82.6341 63.2451 82.7106 63.1681C84.3173 61.551 85.312 59.2408 85.312 56.7767C85.312 51.6943 81.2569 47.613 76.2071 47.613H71.6163V43.1467H26.0151V68.3275C26.0151 74.6419 31.1414 79.7242 37.4154 79.7242ZM71.6928 52.2334H76.2836C78.8085 52.2334 80.8743 54.3125 80.8743 56.8537C80.8743 57.5467 80.7213 58.1628 80.4917 58.7018C80.4152 58.8558 80.1857 59.3178 79.6501 59.9339C79.5736 60.0109 79.4206 60.1649 79.3441 60.3189V60.3959C78.1199 61.705 75.901 63.5531 71.8459 65.4783L71.6928 52.2334ZM38.1806 37.4484C38.3336 37.7564 38.5631 38.1414 38.7161 38.4494H40.8585C40.8585 38.4494 40.8585 38.3724 40.782 38.3724C39.1752 35.2152 39.4813 31.596 41.1645 28.8238C41.3941 28.5157 41.6236 28.2077 41.7766 27.8997C41.7766 27.8227 41.8531 27.8227 41.8531 27.7457C42.1592 27.2067 42.3887 26.6676 42.6183 26.1286C43.3834 24.1264 43.4599 21.8163 42.6948 19.6601C42.4652 18.9671 42.1592 18.351 41.8531 17.812H40.0168C40.0934 18.043 40.1699 18.274 40.2464 18.5051C41.241 21.5083 40.7055 24.6655 39.0987 27.1296C39.0987 27.1296 38.8692 27.4377 38.6396 27.8997C38.1806 28.6698 37.798 29.4398 37.5685 30.2869C37.4154 30.8259 37.2624 31.4419 37.1859 32.058C37.0329 33.6751 37.3389 35.6772 38.1806 37.4484ZM46.9794 37.4484C47.1325 37.7564 47.362 38.1414 47.515 38.4494H49.6574C49.6574 38.4494 49.6574 38.3724 49.5809 38.3724C47.9741 35.2152 48.2801 31.596 49.9634 28.8238C50.193 28.5157 50.4225 28.2077 50.5755 27.8997C50.5755 27.8227 50.652 27.8227 50.652 27.7457C50.9581 27.2067 51.1876 26.6676 51.4171 26.1286C52.1823 24.1264 52.2588 21.8163 51.4937 19.6601C51.2641 18.9671 50.9581 18.351 50.652 17.812H48.7392C48.8157 18.043 48.8922 18.274 48.9688 18.5051C49.9634 21.5083 49.4278 24.6655 47.8211 27.1296C47.8211 27.1296 47.5915 27.4377 47.362 27.8997C46.9029 28.6698 46.5204 29.4398 46.2908 30.2869C46.1378 30.8259 45.9848 31.4419 45.9083 32.058C45.7553 33.6751 46.0613 35.6772 46.9794 37.4484ZM55.7783 37.4484C55.9314 37.7564 56.1609 38.1414 56.3139 38.4494H58.4563C58.4563 38.4494 58.4563 38.3724 58.3797 38.3724C56.773 35.2152 57.079 31.596 58.7623 28.8238C58.9918 28.5157 59.2214 28.2077 59.3744 27.8997C59.3744 27.8227 59.4509 27.8227 59.4509 27.7457C59.757 27.2067 59.9865 26.6676 60.216 26.1286C60.9812 24.1264 61.0577 21.8163 60.2925 19.6601C60.063 18.9671 59.757 18.351 59.4509 17.812H57.6146C57.6911 18.043 57.7676 18.274 57.8442 18.5051C58.8388 21.5083 58.3032 24.6655 56.6965 27.1296C56.6965 27.1296 56.4669 27.4377 56.2374 27.8997C55.7783 28.6698 55.3958 29.4398 55.1662 30.2869C55.0132 30.8259 54.8602 31.4419 54.7837 32.058C54.5541 33.6751 54.8602 35.6772 55.7783 37.4484Z" fill="#1D1D1D"/>
</g>
<defs>
<clipPath id="clip0">
<rect width="59" height="62" fill="white" transform="translate(26 18)"/>
</clipPath>
</defs>
</svg>
