<svg width="68" height="71" viewBox="0 0 68 71" fill="none" xmlns="http://www.w3.org/2000/svg">
<g clip-path="url(#clip0)">
<path d="M13.1569 70.6841H39.4356C45.6084 70.6841 50.8112 66.3632 52.2222 60.6312C55.6613 58.9557 60.5114 56.2221 65.0969 51.9893C65.1851 51.9011 65.2733 51.8129 65.3615 51.7247C67.2133 49.8729 68.3597 47.2274 68.3597 44.4055C68.3597 38.5854 63.686 33.9117 57.8659 33.9117H52.5749V28.797H0.0175781V57.633C0.0175781 64.864 5.92587 70.6841 13.1569 70.6841ZM52.6631 39.2027H57.9541C60.8641 39.2027 63.2451 41.5836 63.2451 44.4937C63.2451 45.2873 63.0687 45.9928 62.8042 46.6101C62.716 46.7864 62.4514 47.3155 61.8342 48.021C61.746 48.1092 61.5696 48.2856 61.4814 48.4619V48.5501C60.0705 50.0492 57.5132 52.1656 52.8394 54.3702L52.6631 39.2027ZM14.0387 22.2714C14.2151 22.6242 14.4797 23.0651 14.656 23.4178H17.1252C17.1252 23.4178 17.1252 23.3296 17.037 23.3296C15.1851 19.7141 15.5379 15.5695 17.4779 12.3949C17.7424 12.0422 18.007 11.6894 18.1834 11.3367C18.1834 11.2485 18.2715 11.2485 18.2715 11.1603C18.6243 10.543 18.8888 9.92576 19.1534 9.30848C20.0352 7.01571 20.1234 4.37021 19.2416 1.90107C18.977 1.10742 18.6243 0.401952 18.2715 -0.215332H16.1551C16.2433 0.0492183 16.3315 0.313768 16.4197 0.578318C17.5661 4.01747 16.9488 7.63299 15.0969 10.4549C15.0969 10.4549 14.8324 10.8076 14.5678 11.3367C14.0387 12.2185 13.5978 13.1004 13.3333 14.0704C13.1569 14.6877 12.9805 15.3931 12.8924 16.0986C12.716 17.9505 13.0687 20.2432 14.0387 22.2714ZM24.1798 22.2714C24.3562 22.6242 24.6207 23.0651 24.7971 23.4178H27.2663C27.2663 23.4178 27.2663 23.3296 27.1781 23.3296C25.3262 19.7141 25.679 15.5695 27.619 12.3949C27.8835 12.0422 28.1481 11.6894 28.3245 11.3367C28.3245 11.2485 28.4126 11.2485 28.4126 11.1603C28.7654 10.543 29.0299 9.92576 29.2945 9.30848C30.1763 7.01571 30.2645 4.37021 29.3827 1.90107C29.1181 1.10742 28.7654 0.401952 28.4126 -0.215332H26.2081C26.2962 0.0492183 26.3844 0.313768 26.4726 0.578318C27.619 4.01747 27.0017 7.63299 25.1499 10.4549C25.1499 10.4549 24.8853 10.8076 24.6207 11.3367C24.0916 12.2185 23.6507 13.1004 23.3862 14.0704C23.2098 14.6877 23.0334 15.3931 22.9453 16.0986C22.7689 17.9505 23.1216 20.2432 24.1798 22.2714ZM34.3209 22.2714C34.4973 22.6242 34.7618 23.0651 34.9382 23.4178H37.4073C37.4073 23.4178 37.4073 23.3296 37.3192 23.3296C35.4673 19.7141 35.82 15.5695 37.7601 12.3949C38.0246 12.0422 38.2892 11.6894 38.4655 11.3367C38.4655 11.2485 38.5537 11.2485 38.5537 11.1603C38.9065 10.543 39.171 9.92576 39.4356 9.30848C40.3174 7.01571 40.4056 4.37021 39.5237 1.90107C39.2592 1.10742 38.9065 0.401952 38.5537 -0.215332H36.4373C36.5255 0.0492183 36.6137 0.313768 36.7019 0.578318C37.8483 4.01747 37.231 7.63299 35.3791 10.4549C35.3791 10.4549 35.1146 10.8076 34.85 11.3367C34.3209 12.2185 33.88 13.1004 33.6155 14.0704C33.4391 14.6877 33.2627 15.3931 33.1745 16.0986C32.91 17.9505 33.2627 20.2432 34.3209 22.2714Z" fill="white"/>
</g>
<defs>
<clipPath id="clip0">
<rect width="68" height="71" fill="white"/>
</clipPath>
</defs>
</svg>
