<svg width="309" height="32" viewBox="0 0 309 32" fill="none" xmlns="http://www.w3.org/2000/svg">
<mask id="path-1-outside-1" maskUnits="userSpaceOnUse" x="0.912598" y="0.0795898" width="308" height="32" fill="black">
<rect fill="white" x="0.912598" y="0.0795898" width="308" height="32"/>
<path d="M7.2166 16.1696C7.2166 11.4436 10.7526 8.48559 14.8326 8.48559C18.1986 8.48559 20.5106 9.91359 22.1086 11.7496V6.24159C20.1706 4.67759 18.0966 3.79359 14.6286 3.79359C7.2846 3.79359 1.9126 8.82559 1.9126 16.1696C1.9126 23.5136 7.2846 28.5456 14.6286 28.5456C18.0966 28.5456 20.1706 27.6616 22.1086 26.0976V20.5896C20.5106 22.4256 18.1986 23.8536 14.8326 23.8536C10.7526 23.8536 7.2166 20.8956 7.2166 16.1696Z"/>
<path d="M27.2532 16.1696C27.2532 23.3776 32.5232 28.6816 39.8332 28.6816C47.1432 28.6816 52.4132 23.3776 52.4132 16.1696C52.4132 8.96159 47.0412 3.79359 39.8332 3.79359C32.6932 3.79359 27.2532 8.96159 27.2532 16.1696ZM32.4212 16.1696C32.4212 11.6136 35.4472 8.34959 39.8332 8.34959C44.3212 8.34959 47.2452 11.6136 47.2452 16.1696C47.2452 20.7256 44.2192 23.9896 39.8332 23.9896C35.4472 23.9896 32.4212 20.7256 32.4212 16.1696Z"/>
<path d="M57.8718 4.26959V28.0696H62.6318V17.9376H71.3358V13.8576H62.6318V8.55359H71.6758V4.26959H57.8718Z"/>
<path d="M77.8335 4.26959V28.0696H82.5935V17.9376H91.2975V13.8576H82.5935V8.55359H91.6375V4.26959H77.8335Z"/>
<path d="M97.7953 4.26959V28.0696H112.959V23.9216H102.555V17.4616H112.279V13.4156H102.555V8.41759H112.959V4.26959H97.7953Z"/>
<path d="M119.45 4.26959V28.0696H134.614V23.9216H124.21V17.4616H133.934V13.4156H124.21V8.41759H134.614V4.26959H119.45Z"/>
<path d="M161.091 28.0696C168.639 28.0696 173.603 23.4116 173.603 16.1696C173.603 8.92759 168.639 4.26959 161.091 4.26959H152.999V28.0696H161.091ZM160.955 8.72359C165.137 8.72359 168.571 10.9336 168.571 16.1696C168.571 21.4056 165.137 23.6156 160.955 23.6156H158.031V8.72359H160.955Z"/>
<path d="M179.07 4.26959V28.0696H183.966V19.4336H186.074L191.616 28.0696H197.43L190.97 18.8556C194.2 17.7676 196.002 15.2516 196.002 11.8856C196.002 7.36359 192.738 4.26959 187.094 4.26959H179.07ZM186.788 8.48559C189.304 8.48559 190.936 9.77759 190.936 12.0216C190.936 14.2656 189.304 15.5576 186.788 15.5576H183.966V8.48559H186.788Z"/>
<path d="M201.854 4.26959V28.0696H206.818V4.26959H201.854Z"/>
<path d="M230.546 4.26959V18.9576L213.648 3.07959V28.0696H218.408V13.3816L235.272 29.2596V4.26959H230.546Z"/>
<path d="M242.109 4.26959V28.0696H247.141V17.2916L255.981 28.0696H261.897L251.561 15.4216L261.421 4.26959H255.607L247.141 13.9256V4.26959H242.109Z"/>
<path d="M266.221 4.26959V28.0696H281.385V23.9216H270.981V17.4616H280.705V13.4156H270.981V8.41759H281.385V4.26959H266.221Z"/>
<path d="M287.876 4.26959V28.0696H292.772V19.4336H294.88L300.422 28.0696H306.236L299.776 18.8556C303.006 17.7676 304.808 15.2516 304.808 11.8856C304.808 7.36359 301.544 4.26959 295.9 4.26959H287.876ZM295.594 8.48559C298.11 8.48559 299.742 9.77759 299.742 12.0216C299.742 14.2656 298.11 15.5576 295.594 15.5576H292.772V8.48559H295.594Z"/>
</mask>
<path d="M7.2166 16.1696C7.2166 11.4436 10.7526 8.48559 14.8326 8.48559C18.1986 8.48559 20.5106 9.91359 22.1086 11.7496V6.24159C20.1706 4.67759 18.0966 3.79359 14.6286 3.79359C7.2846 3.79359 1.9126 8.82559 1.9126 16.1696C1.9126 23.5136 7.2846 28.5456 14.6286 28.5456C18.0966 28.5456 20.1706 27.6616 22.1086 26.0976V20.5896C20.5106 22.4256 18.1986 23.8536 14.8326 23.8536C10.7526 23.8536 7.2166 20.8956 7.2166 16.1696Z" stroke="white" stroke-width="2" mask="url(#path-1-outside-1)"/>
<path d="M27.2532 16.1696C27.2532 23.3776 32.5232 28.6816 39.8332 28.6816C47.1432 28.6816 52.4132 23.3776 52.4132 16.1696C52.4132 8.96159 47.0412 3.79359 39.8332 3.79359C32.6932 3.79359 27.2532 8.96159 27.2532 16.1696ZM32.4212 16.1696C32.4212 11.6136 35.4472 8.34959 39.8332 8.34959C44.3212 8.34959 47.2452 11.6136 47.2452 16.1696C47.2452 20.7256 44.2192 23.9896 39.8332 23.9896C35.4472 23.9896 32.4212 20.7256 32.4212 16.1696Z" stroke="white" stroke-width="2" mask="url(#path-1-outside-1)"/>
<path d="M57.8718 4.26959V28.0696H62.6318V17.9376H71.3358V13.8576H62.6318V8.55359H71.6758V4.26959H57.8718Z" stroke="white" stroke-width="2" mask="url(#path-1-outside-1)"/>
<path d="M77.8335 4.26959V28.0696H82.5935V17.9376H91.2975V13.8576H82.5935V8.55359H91.6375V4.26959H77.8335Z" stroke="white" stroke-width="2" mask="url(#path-1-outside-1)"/>
<path d="M97.7953 4.26959V28.0696H112.959V23.9216H102.555V17.4616H112.279V13.4156H102.555V8.41759H112.959V4.26959H97.7953Z" stroke="white" stroke-width="2" mask="url(#path-1-outside-1)"/>
<path d="M119.45 4.26959V28.0696H134.614V23.9216H124.21V17.4616H133.934V13.4156H124.21V8.41759H134.614V4.26959H119.45Z" stroke="white" stroke-width="2" mask="url(#path-1-outside-1)"/>
<path d="M161.091 28.0696C168.639 28.0696 173.603 23.4116 173.603 16.1696C173.603 8.92759 168.639 4.26959 161.091 4.26959H152.999V28.0696H161.091ZM160.955 8.72359C165.137 8.72359 168.571 10.9336 168.571 16.1696C168.571 21.4056 165.137 23.6156 160.955 23.6156H158.031V8.72359H160.955Z" stroke="white" stroke-width="2" mask="url(#path-1-outside-1)"/>
<path d="M179.07 4.26959V28.0696H183.966V19.4336H186.074L191.616 28.0696H197.43L190.97 18.8556C194.2 17.7676 196.002 15.2516 196.002 11.8856C196.002 7.36359 192.738 4.26959 187.094 4.26959H179.07ZM186.788 8.48559C189.304 8.48559 190.936 9.77759 190.936 12.0216C190.936 14.2656 189.304 15.5576 186.788 15.5576H183.966V8.48559H186.788Z" stroke="white" stroke-width="2" mask="url(#path-1-outside-1)"/>
<path d="M201.854 4.26959V28.0696H206.818V4.26959H201.854Z" stroke="white" stroke-width="2" mask="url(#path-1-outside-1)"/>
<path d="M230.546 4.26959V18.9576L213.648 3.07959V28.0696H218.408V13.3816L235.272 29.2596V4.26959H230.546Z" stroke="white" stroke-width="2" mask="url(#path-1-outside-1)"/>
<path d="M242.109 4.26959V28.0696H247.141V17.2916L255.981 28.0696H261.897L251.561 15.4216L261.421 4.26959H255.607L247.141 13.9256V4.26959H242.109Z" stroke="white" stroke-width="2" mask="url(#path-1-outside-1)"/>
<path d="M266.221 4.26959V28.0696H281.385V23.9216H270.981V17.4616H280.705V13.4156H270.981V8.41759H281.385V4.26959H266.221Z" stroke="white" stroke-width="2" mask="url(#path-1-outside-1)"/>
<path d="M287.876 4.26959V28.0696H292.772V19.4336H294.88L300.422 28.0696H306.236L299.776 18.8556C303.006 17.7676 304.808 15.2516 304.808 11.8856C304.808 7.36359 301.544 4.26959 295.9 4.26959H287.876ZM295.594 8.48559C298.11 8.48559 299.742 9.77759 299.742 12.0216C299.742 14.2656 298.11 15.5576 295.594 15.5576H292.772V8.48559H295.594Z" stroke="white" stroke-width="2" mask="url(#path-1-outside-1)"/>
</svg>
