<svg width="82" height="86" viewBox="0 0 82 86" fill="none" xmlns="http://www.w3.org/2000/svg">
<g clip-path="url(#clip0)">
<path d="M17.1875 25.8332C17.25 25.9373 17.7917 26.3332 18.75 26.3332C19.6667 26.3332 20.2083 25.979 20.3125 25.8123C20.2083 25.6457 19.6667 25.2915 18.75 25.2915C17.7917 25.2915 17.2292 25.6873 17.1875 25.8332Z" fill="white"/>
<path d="M0.270798 27.1668C-0.250035 27.396 -0.520868 28.0002 -0.291702 28.521L0.104132 29.4793L0.499965 30.4377C0.666632 30.8335 1.06247 31.0835 1.4583 31.0835C1.5833 31.0835 1.72913 31.0627 1.85413 31.0002C2.37497 30.771 2.6458 30.1668 2.41663 29.646L4.3333 28.8543L8.22913 27.2293C8.72913 28.1877 9.31247 29.0835 10.0208 29.896L7.79163 32.1668C7.37497 31.7502 6.72913 31.7502 6.31246 32.1668C5.8958 32.5835 5.8958 33.2293 6.31246 33.646L7.04163 34.3752L7.7708 35.1043C7.97913 35.3127 8.24996 35.4168 8.49996 35.4168C8.74996 35.4168 9.04163 35.3127 9.22913 35.1043C9.6458 34.6877 9.6458 34.0418 9.22913 33.6252L11.4791 31.3752C12.2916 32.0835 13.1875 32.6668 14.1458 33.1668L12.5208 37.0627L11.7291 38.9793C11.2083 38.771 10.5833 39.021 10.375 39.5418C10.1666 40.0627 10.4166 40.6877 10.9375 40.896L11.8958 41.2918L12.8541 41.6877C12.9791 41.7502 13.125 41.771 13.25 41.771C13.6666 41.771 14.0416 41.521 14.2083 41.1252C14.4375 40.6043 14.1666 39.9793 13.6458 39.771L16.0625 33.9585C17.0625 34.2918 18.125 34.5002 19.2291 34.5835V37.771C18.6458 37.771 18.1875 38.2293 18.1875 38.8127C18.1875 39.396 18.6458 39.8543 19.2291 39.8543H20.2708H21.3125C21.8958 39.8543 22.3541 39.396 22.3541 38.8127C22.3541 38.2293 21.8958 37.771 21.3125 37.771V34.5835C22.4166 34.5002 23.4583 34.2918 24.4791 33.9585L26.8958 39.771C26.375 40.0002 26.1041 40.6043 26.3333 41.1252C26.5 41.521 26.8958 41.771 27.2916 41.771C27.4166 41.771 27.5625 41.7502 27.6875 41.6877L28.6458 41.2918L29.6041 40.896C30.125 40.6668 30.3958 40.0627 30.1666 39.5418C29.9375 39.021 29.3333 38.771 28.8125 38.9793L26.3958 33.146C27.3541 32.646 28.25 32.0627 29.0625 31.3543L31.3125 33.6043C30.8958 34.021 30.8958 34.6668 31.3125 35.0835C31.5208 35.2918 31.7916 35.396 32.0416 35.396C32.2916 35.396 32.5833 35.2918 32.7708 35.0835L33.5 34.3543L34.2291 33.6252C34.6458 33.2085 34.6458 32.5627 34.2291 32.146C33.8125 31.7293 33.1666 31.7293 32.75 32.146L30.5833 29.9168C30.625 29.8543 30.6875 29.8127 30.7291 29.771C30.7291 29.771 30.75 29.771 30.75 29.7502C31.375 28.9793 31.9166 28.146 32.375 27.2502L36.2708 28.8752L38.1875 29.6668C37.9583 30.1877 38.2291 30.8127 38.75 31.021C38.875 31.0835 39.0208 31.1043 39.1458 31.1043C39.5625 31.1043 39.9375 30.8543 40.1041 30.4585L40.5 29.5002L40.8958 28.5418C41.125 28.021 40.8541 27.396 40.3333 27.1877C39.8125 26.9793 39.1875 27.2293 38.9791 27.7502L33.1666 25.3335C33.2291 25.1668 33.2708 25.0002 33.3125 24.8335C33.3333 24.8127 33.3333 24.771 33.3333 24.7502C33.5625 23.9168 33.7083 23.0627 33.7916 22.1877H36.9791C36.9791 22.771 37.4375 23.2293 38.0208 23.2293C38.6041 23.2293 39.0625 22.771 39.0625 22.1877V21.146V20.0835C39.0625 19.5002 38.6041 19.0418 38.0208 19.0418C37.4375 19.0418 36.9791 19.5002 36.9791 20.0835H33.7916C33.7083 18.9793 33.5 17.9377 33.1666 16.9168L38.9791 14.5002C39.1458 14.896 39.5416 15.146 39.9375 15.146C40.0625 15.146 40.2083 15.1252 40.3333 15.0627C40.8541 14.8335 41.125 14.2293 40.8958 13.7085L40.5 12.7502L40.1041 11.7918C39.875 11.271 39.2708 11.0002 38.75 11.2293C38.2291 11.4585 37.9583 12.0627 38.1875 12.5835L36.2708 13.3752L32.375 15.0002C31.875 14.0418 31.2916 13.146 30.5833 12.3335L32.8333 10.0835C33.0416 10.2918 33.3125 10.396 33.5625 10.396C33.8125 10.396 34.1041 10.2918 34.2916 10.0835C34.7083 9.66684 34.7083 9.02101 34.2916 8.60434L33.5625 7.87517L32.8333 7.14601C32.4166 6.72934 31.7708 6.72934 31.3541 7.14601C30.9375 7.56267 30.9375 8.20851 31.3541 8.62517L29.1041 10.8752C28.2916 10.1668 27.3958 9.58351 26.4375 9.08351L28.0625 5.18767L28.8541 3.27101C28.9791 3.33351 29.125 3.35434 29.25 3.35434C29.6666 3.35434 30.0416 3.10434 30.2083 2.70851C30.4375 2.18768 30.1666 1.56268 29.6458 1.35434L28.6875 0.916842L27.7291 0.521009C27.2083 0.312675 26.5833 0.562676 26.375 1.08351C26.1458 1.60434 26.4166 2.22934 26.9375 2.43768L24.5208 8.25018C23.7708 8.00018 23 7.83351 22.2083 7.72934C22.1875 7.72934 22.1875 7.70851 22.1666 7.70851C22.1458 7.70851 22.1458 7.70851 22.125 7.70851C21.875 7.66684 21.6041 7.64601 21.3541 7.62517V4.45851C21.9375 4.45851 22.3958 4.00018 22.3958 3.41684C22.3958 2.83351 21.9375 2.37518 21.3541 2.37518H20.3125H19.2708C18.6875 2.37518 18.2291 2.83351 18.2291 3.41684C18.2291 4.00018 18.6875 4.45851 19.2708 4.45851V7.64601C18.1666 7.72934 17.125 7.93767 16.1041 8.27101L13.7083 2.43768C14.2291 2.20851 14.5 1.60434 14.2708 1.08351C14.0416 0.541842 13.4375 0.312675 12.9166 0.521009L11.9375 0.916842L10.9791 1.31268C10.4375 1.54184 10.1875 2.14601 10.4166 2.66684C10.6458 3.20851 11.25 3.45851 11.7708 3.22934L14.1875 9.06268C13.2291 9.56267 12.3333 10.146 11.5208 10.8543L9.2708 8.60434C9.68747 8.18767 9.68747 7.54184 9.2708 7.12518C8.85413 6.70851 8.2083 6.70851 7.79163 7.12518L7.06247 7.87517L6.31246 8.60434C5.8958 9.02101 5.8958 9.66684 6.31246 10.0835C6.72913 10.5002 7.37497 10.5002 7.79163 10.0835L10.0416 12.3335C9.3333 13.146 8.74996 14.0418 8.24996 15.0002L4.35413 13.3752L2.41663 12.5835C2.6458 12.0627 2.37497 11.4377 1.85413 11.2293C1.3333 11.0002 0.729132 11.2502 0.499965 11.7918L0.104132 12.7502L-0.291702 13.7085C-0.520868 14.2293 -0.250035 14.8543 0.270798 15.0627C0.791632 15.2918 1.41663 15.0418 1.62497 14.521L7.43746 16.9377C7.12496 17.9377 6.91663 18.9793 6.8333 20.0835H3.6458C3.6458 19.5002 3.18747 19.0418 2.60413 19.0418C2.0208 19.0418 1.56247 19.5002 1.56247 20.0835V21.1252V22.1668C1.56247 22.7502 2.0208 23.2085 2.60413 23.2085C3.18747 23.2085 3.6458 22.7502 3.6458 22.1668H6.8333C6.91663 23.271 7.12497 24.3127 7.4583 25.3335L1.62497 27.7293C1.41663 27.2085 0.791632 26.9585 0.270798 27.1668ZM30.7291 24.2502C30.8958 24.2502 31.0625 24.396 31.2291 24.6043C30.9166 25.6043 30.4375 26.5627 29.875 27.4377C29.7708 27.1252 29.6875 26.771 29.6875 26.3543C29.6875 25.0835 30.3125 24.2502 30.7291 24.2502ZM23.9583 30.5002C23 30.5002 22.4375 30.1043 22.3958 30.0002C22.4583 29.8543 23 29.4585 23.9583 29.4585C24.875 29.4585 25.4166 29.8127 25.5208 29.9793C25.4166 30.146 24.875 30.5002 23.9583 30.5002ZM27.6041 19.0418C27.6041 21.3752 26.2291 23.2085 24.4791 23.2085C22.7291 23.2085 21.3541 21.3752 21.3541 19.0418C21.3541 16.7085 22.7291 14.8752 24.4791 14.8752C26.2291 14.8752 27.6041 16.7085 27.6041 19.0418ZM22.0208 9.81267C22.7916 9.93767 23.5208 10.1252 24.2291 10.3752C23.9791 10.5418 23.5208 10.7085 22.8958 10.7085C21.9375 10.7085 21.375 10.3127 21.3333 10.2085C21.375 10.146 21.6041 9.93767 22.0208 9.81267ZM22.3958 25.8127C22.3958 27.2918 20.8333 28.4168 18.75 28.4168C16.6666 28.4168 15.1041 27.2918 15.1041 25.8127C15.1041 24.3335 16.6666 23.2085 18.75 23.2085C20.8333 23.2085 22.3958 24.3335 22.3958 25.8127ZM16.1458 11.7502C17.8958 11.7502 19.2708 13.5835 19.2708 15.9168C19.2708 18.2502 17.8958 20.0835 16.1458 20.0835C14.3958 20.0835 13.0208 18.2502 13.0208 15.9168C13.0208 13.5835 14.3958 11.7502 16.1458 11.7502ZM9.37496 23.2085C10.3333 23.2085 10.8958 23.6043 10.9375 23.7085C10.8958 23.8543 10.3333 24.2502 9.37496 24.2502C9.35413 24.2502 9.3333 24.2502 9.29163 24.2502C9.2083 23.9168 9.12497 23.5835 9.06247 23.2502C9.16663 23.2293 9.2708 23.2085 9.37496 23.2085Z" fill="white"/>
<path d="M24.4792 21.1252C25.0545 21.1252 25.5208 20.1924 25.5208 19.0418C25.5208 17.8912 25.0545 16.9585 24.4792 16.9585C23.9039 16.9585 23.4375 17.8912 23.4375 19.0418C23.4375 20.1924 23.9039 21.1252 24.4792 21.1252Z" fill="white"/>
<path d="M16.1459 18.0002C16.7212 18.0002 17.1876 17.0674 17.1876 15.9168C17.1876 14.7662 16.7212 13.8335 16.1459 13.8335C15.5706 13.8335 15.1042 14.7662 15.1042 15.9168C15.1042 17.0674 15.5706 18.0002 16.1459 18.0002Z" fill="white"/>
<path d="M57.5209 38.8332C58.0962 38.8332 58.5626 37.9004 58.5626 36.7498C58.5626 35.5992 58.0962 34.6665 57.5209 34.6665C56.9456 34.6665 56.4792 35.5992 56.4792 36.7498C56.4792 37.9004 56.9456 38.8332 57.5209 38.8332Z" fill="white"/>
<path d="M58.5625 46.6667C58.625 46.7708 59.1667 47.1667 60.125 47.1667C61.0417 47.1667 61.5833 46.8125 61.6875 46.6458C61.5833 46.4792 61.0417 46.125 60.125 46.125C59.1667 46.125 58.6042 46.5208 58.5625 46.6667Z" fill="white"/>
<path d="M80.1457 32.0625C79.6249 32.2917 79.354 32.8958 79.5832 33.4167L77.6665 34.2083L73.7707 35.8333C73.2707 34.875 72.6874 33.9792 71.979 33.1667L74.2291 30.9167C74.4374 31.125 74.7082 31.2292 74.9582 31.2292C75.2082 31.2292 75.4999 31.125 75.6874 30.9167C76.1041 30.5 76.1041 29.8542 75.6874 29.4375L74.9582 28.7083L74.2291 27.9792C73.8124 27.5625 73.1666 27.5625 72.7499 27.9792C72.3332 28.3958 72.3332 29.0417 72.7499 29.4583L70.4999 31.7083C69.6874 31 68.7916 30.4167 67.8332 29.9167L69.4582 26.0208L70.2499 24.1042C70.3749 24.1667 70.5207 24.1875 70.6457 24.1875C71.0624 24.1875 71.4374 23.9375 71.604 23.5417C71.8332 23.0208 71.5624 22.3958 71.0415 22.1875L70.0832 21.7917L69.1249 21.3958C68.6041 21.1875 67.979 21.4375 67.7707 21.9583C67.5415 22.4792 67.8124 23.1042 68.3332 23.3125L65.9165 29.125C65.1665 28.875 64.3957 28.7083 63.604 28.6042C63.5832 28.6042 63.5832 28.5833 63.5624 28.5833C63.5416 28.5833 63.5416 28.5833 63.5207 28.5833C63.2707 28.5417 62.9999 28.5208 62.7499 28.5V25.2917C63.3332 25.2917 63.7915 24.8333 63.7915 24.25C63.7915 23.6667 63.3332 23.2083 62.7499 23.2083H61.7082H60.6665C60.0832 23.2083 59.6249 23.6667 59.6249 24.25C59.6249 24.8333 60.0832 25.2917 60.6665 25.2917V28.4792C59.5624 28.5625 58.5207 28.7708 57.4999 29.1042L55.0832 23.2917C55.6041 23.0625 55.8749 22.4583 55.6457 21.9375C55.4166 21.3958 54.8124 21.1667 54.2915 21.375L53.3332 21.7708L52.3749 22.1667C51.854 22.3958 51.5832 23 51.8124 23.5208C52.0416 24.0625 52.6457 24.3125 53.1666 24.0833L55.5832 29.9167C54.6249 30.4167 53.729 31 52.9165 31.7083L50.6666 29.4583C51.0832 29.0417 51.0832 28.3958 50.6666 27.9792C50.2499 27.5625 49.6041 27.5625 49.1874 27.9792L48.4582 28.7083L47.7291 29.4375C47.3124 29.8542 47.3124 30.5 47.7291 30.9167C48.1457 31.3333 48.7916 31.3333 49.2082 30.9167L51.4166 33.1667C50.7082 33.9792 50.1249 34.875 49.6249 35.8333L45.7291 34.2083L43.8124 33.4167C44.0416 32.8958 43.7707 32.2708 43.2499 32.0625C42.7291 31.8333 42.1041 32.1042 41.8957 32.625L41.4999 33.5833L41.1041 34.5417C40.8749 35.0625 41.1457 35.6875 41.6666 35.8958C42.1874 36.1042 42.8124 35.8542 43.0207 35.3333L48.8332 37.75C48.4999 38.75 48.2915 39.8125 48.2082 40.9167H45.0207C45.0207 40.3333 44.5624 39.875 43.9791 39.875C43.3957 39.875 42.9374 40.3333 42.9374 40.9167V41.9583V43C42.9374 43.5833 43.3957 44.0417 43.9791 44.0417C44.5624 44.0417 45.0207 43.5833 45.0207 43H48.2082C48.2915 44.1042 48.4999 45.1458 48.8332 46.1667L43.0207 48.5833C42.7916 48.0625 42.1874 47.7917 41.6666 48.0208C41.1457 48.25 40.8749 48.8542 41.1041 49.375L41.4999 50.3333L41.8957 51.2917C42.0624 51.6875 42.4582 51.9375 42.8541 51.9375C42.9791 51.9375 43.1249 51.9167 43.2499 51.8542C43.7707 51.625 44.0416 51.0208 43.8124 50.5L45.7291 49.7083L49.6249 48.0833C50.1249 49.0417 50.7082 49.9375 51.4166 50.75L49.1666 53C48.7499 52.5833 48.104 52.5833 47.6874 53C47.2707 53.4167 47.2707 54.0625 47.6874 54.4792L48.4166 55.2083L49.1457 55.9375C49.3541 56.1458 49.6249 56.25 49.8749 56.25C50.1249 56.25 50.4166 56.1458 50.6041 55.9375C51.0207 55.5208 51.0207 54.875 50.6041 54.4583L52.8541 52.2083C53.6666 52.9167 54.5624 53.5 55.5207 54L53.8957 57.8958L53.1041 59.8125C52.5832 59.6042 51.9582 59.8542 51.7499 60.375C51.5207 60.8958 51.7916 61.5208 52.3124 61.7292L53.2707 62.125L54.2291 62.5208C54.3541 62.5833 54.4999 62.6042 54.6249 62.6042C55.0416 62.6042 55.4166 62.3542 55.5832 61.9583C55.8124 61.4375 55.5416 60.8125 55.0207 60.6042L57.4374 54.7917C58.4374 55.125 59.4999 55.3333 60.6041 55.4167V58.6042C60.0207 58.6042 59.5624 59.0625 59.5624 59.6458C59.5624 60.2292 60.0207 60.6875 60.6041 60.6875H61.6457H62.6874C63.2707 60.6875 63.7291 60.2292 63.7291 59.6458C63.7291 59.0625 63.2707 58.6042 62.6874 58.6042V55.4167C63.7916 55.3333 64.8332 55.125 65.8541 54.7917L68.2707 60.6042C67.7499 60.8333 67.4791 61.4375 67.7082 61.9583C67.8749 62.3542 68.2707 62.6042 68.6665 62.6042C68.7915 62.6042 68.9374 62.5833 69.0624 62.5208L70.0207 62.125L70.979 61.7292C71.4999 61.5 71.7707 60.8958 71.5416 60.375C71.3332 59.8542 70.7082 59.6042 70.1874 59.8125L67.7707 53.9792C68.729 53.4792 69.6249 52.8958 70.4374 52.1875L72.6874 54.4375C72.2707 54.8542 72.2707 55.5 72.6874 55.9167C72.8957 56.125 73.1666 56.2292 73.4166 56.2292C73.6666 56.2292 73.9582 56.125 74.1457 55.9167L74.8749 55.1875L75.604 54.4583C76.0207 54.0417 76.0207 53.3958 75.604 52.9792C75.1874 52.5625 74.5416 52.5625 74.1249 52.9792L71.8749 50.7292C71.9166 50.6667 71.979 50.625 72.0207 50.5833C72.0207 50.5833 72.0416 50.5833 72.0416 50.5625C72.6666 49.7917 73.2082 48.9583 73.6666 48.0625L77.5624 49.6875L79.4791 50.4792C79.2499 51 79.5207 51.625 80.0416 51.8333C80.1666 51.8958 80.3124 51.9167 80.4374 51.9167C80.854 51.9167 81.229 51.6667 81.3957 51.2708L81.7916 50.3125L82.1874 49.3542C82.4165 48.8333 82.1457 48.2083 81.6249 48C81.104 47.7917 80.479 48.0417 80.2707 48.5625L74.4582 46.1458C74.5207 45.9792 74.5624 45.8125 74.6041 45.6458C74.6249 45.625 74.6249 45.5833 74.6249 45.5625C74.854 44.7292 74.9999 43.875 75.0832 43H78.2707C78.2707 43.5833 78.729 44.0417 79.3124 44.0417C79.8957 44.0417 80.354 43.5833 80.354 43V41.9583V40.9167C80.354 40.3333 79.8957 39.875 79.3124 39.875C78.729 39.875 78.2707 40.3333 78.2707 40.9167H75.1666C75.0832 39.8125 74.8749 38.7708 74.5415 37.75L80.354 35.3333C80.5207 35.7292 80.9165 35.9792 81.3124 35.9792C81.4374 35.9792 81.5832 35.9583 81.7082 35.8958C82.2291 35.6667 82.4999 35.0625 82.2707 34.5417L81.8749 33.5833L81.479 32.625C81.2707 32.0833 80.6666 31.8333 80.1457 32.0625ZM50.7499 45.0833C50.7291 45.0833 50.7082 45.0833 50.6666 45.0833C50.5832 44.75 50.4999 44.4167 50.4374 44.0833C50.5416 44.0625 50.6457 44.0625 50.7499 44.0625C51.7082 44.0625 52.2707 44.4583 52.3124 44.5625C52.2707 44.6875 51.7082 45.0833 50.7499 45.0833ZM63.3957 30.6458C64.1666 30.7708 64.8957 30.9583 65.6041 31.2083C65.3541 31.375 64.8957 31.5417 64.2707 31.5417C63.3124 31.5417 62.7499 31.1458 62.7082 31.0417C62.7499 30.9792 62.9791 30.7708 63.3957 30.6458ZM54.3957 36.75C54.3957 34.4167 55.7707 32.5833 57.5207 32.5833C59.2707 32.5833 60.6457 34.4167 60.6457 36.75C60.6457 39.0833 59.2707 40.9167 57.5207 40.9167C55.7707 40.9167 54.3957 39.0833 54.3957 36.75ZM60.1249 49.25C58.0416 49.25 56.4791 48.125 56.4791 46.6458C56.4791 45.1667 58.0416 44.0417 60.1249 44.0417C62.2082 44.0417 63.7707 45.1667 63.7707 46.6458C63.7707 48.125 62.2082 49.25 60.1249 49.25ZM65.3332 51.3333C64.3749 51.3333 63.8124 50.9375 63.7707 50.8333C63.8332 50.6875 64.3749 50.2917 65.3332 50.2917C66.2499 50.2917 66.7916 50.6458 66.8957 50.8125C66.7916 50.9792 66.2499 51.3333 65.3332 51.3333ZM65.8541 44.0417C64.1041 44.0417 62.7291 42.2083 62.7291 39.875C62.7291 37.5417 64.1041 35.7083 65.8541 35.7083C67.6041 35.7083 68.9791 37.5417 68.9791 39.875C68.9791 42.2083 67.6041 44.0417 65.8541 44.0417ZM71.2499 48.25C71.1457 47.9375 71.0624 47.5833 71.0624 47.1667C71.0624 45.9167 71.6874 45.0833 72.1041 45.0833C72.2707 45.0833 72.4374 45.2292 72.604 45.4375C72.2915 46.4375 71.8332 47.3958 71.2499 48.25Z" fill="white"/>
<path d="M65.8542 41.9582C66.4295 41.9582 66.8958 41.0254 66.8958 39.8748C66.8958 38.7242 66.4295 37.7915 65.8542 37.7915C65.2789 37.7915 64.8125 38.7242 64.8125 39.8748C64.8125 41.0254 65.2789 41.9582 65.8542 41.9582Z" fill="white"/>
<path d="M30.4374 64.8752C31.0127 64.8752 31.4791 63.9424 31.4791 62.7918C31.4791 61.6412 31.0127 60.7085 30.4374 60.7085C29.8621 60.7085 29.3958 61.6412 29.3958 62.7918C29.3958 63.9424 29.8621 64.8752 30.4374 64.8752Z" fill="white"/>
<path d="M45.9166 58.8957C46.0416 58.8957 46.1874 58.8749 46.3124 58.8124C46.8332 58.5832 47.104 57.9791 46.8749 57.4582L46.479 56.4999L46.0832 55.5416C45.854 55.0207 45.2499 54.7707 44.7291 54.979C44.2082 55.2082 43.9374 55.8124 44.1665 56.3332L42.2499 57.1249L38.354 58.7499C37.854 57.7915 37.2707 56.8957 36.5624 56.0832L38.8124 53.8332C39.0207 54.0416 39.2915 54.1457 39.5415 54.1457C39.7915 54.1457 40.0832 54.0416 40.2707 53.8332C40.6874 53.4166 40.6874 52.7707 40.2707 52.354L39.5415 51.6249L38.8124 50.8957C38.3957 50.4791 37.7499 50.4791 37.3332 50.8957C36.9165 51.3124 36.9165 51.9582 37.3332 52.3749L35.0832 54.6249C34.2707 53.9165 33.3749 53.3332 32.4165 52.8332L34.0415 48.9374L34.8332 47.0207C34.9582 47.0832 35.104 47.104 35.229 47.104C35.6457 47.104 36.0207 46.854 36.1874 46.4582C36.4166 45.9374 36.1457 45.3124 35.6249 45.104L34.6665 44.7082L33.7082 44.3124C33.1874 44.104 32.5624 44.354 32.3541 44.8749C32.1457 45.3957 32.3957 46.0207 32.9166 46.229L30.4999 52.0415C29.7499 51.7915 28.9791 51.6249 28.1874 51.5207C28.1666 51.5207 28.1665 51.4999 28.1457 51.4999C28.1249 51.4999 28.1249 51.4999 28.104 51.4999C27.854 51.4582 27.5832 51.4374 27.3332 51.4166V48.2082C27.9166 48.2082 28.3749 47.7499 28.3749 47.1665C28.3749 46.5832 27.9166 46.1249 27.3332 46.1249H26.2916H25.2499C24.6666 46.1249 24.2082 46.5832 24.2082 47.1665C24.2082 47.7499 24.6666 48.2082 25.2499 48.2082V51.3957C24.1457 51.4791 23.104 51.6874 22.0832 52.0207L19.6666 46.2082C20.1874 45.9791 20.4582 45.3749 20.229 44.854C19.9999 44.3332 19.3957 44.0624 18.8749 44.2916L17.9166 44.6874L16.9582 45.0832C16.4374 45.3124 16.1665 45.9165 16.3957 46.4374C16.6249 46.979 17.2291 47.229 17.7499 46.9999L20.1665 52.8332C19.2082 53.3332 18.3124 53.9165 17.4999 54.6249L15.2499 52.3749C15.6666 51.9582 15.6666 51.3124 15.2499 50.8957C14.8332 50.4791 14.1874 50.4791 13.7707 50.8957L13.0415 51.6249L12.3124 52.354C11.8957 52.7707 11.8957 53.4166 12.3124 53.8332C12.729 54.2499 13.3749 54.2499 13.7915 53.8332L15.9999 56.0832C15.2915 56.8957 14.7082 57.7915 14.2082 58.7499L10.3124 57.1249L8.37488 56.3332C8.60405 55.8124 8.33322 55.1874 7.81238 54.979C7.29155 54.7707 6.66655 55.0207 6.45822 55.5416L6.06238 56.4999L5.66655 57.4582C5.43738 57.9791 5.70822 58.604 6.22905 58.8124C6.74988 59.0415 7.37488 58.7707 7.58322 58.2499L13.3957 60.6665C13.0624 61.6665 12.854 62.729 12.7707 63.8332H9.60405C9.60405 63.2499 9.14572 62.7915 8.56238 62.7915C7.97905 62.7915 7.52072 63.2499 7.52072 63.8332V64.8749V65.9165C7.52072 66.4999 7.97905 66.9582 8.56238 66.9582C9.14572 66.9582 9.60405 66.4999 9.60405 65.9165H12.7916C12.8749 67.0207 13.0832 68.0624 13.4166 69.0832L7.60405 71.4999C7.37488 70.979 6.77072 70.7082 6.24988 70.9374C5.72905 71.1665 5.45822 71.7707 5.68738 72.2916L6.08322 73.2499L6.47905 74.2082C6.64572 74.604 7.04155 74.854 7.43738 74.854C7.56238 74.854 7.70822 74.8332 7.83322 74.7707C8.35405 74.5415 8.62488 73.9374 8.39572 73.4165L10.3124 72.6249L14.2082 70.9999C14.7082 71.9582 15.2915 72.854 15.9999 73.6665L13.7499 75.9165C13.3332 75.4999 12.6874 75.4999 12.2707 75.9165C11.8541 76.3332 11.8541 76.979 12.2707 77.3957L12.9999 78.1249L13.729 78.854C13.9374 79.0624 14.2082 79.1666 14.4582 79.1666C14.7082 79.1666 14.9999 79.0624 15.1874 78.854C15.604 78.4374 15.604 77.7915 15.1874 77.3749L17.4374 75.1249C18.2499 75.8332 19.1457 76.4165 20.1041 76.9165L18.479 80.8124L17.6874 82.729C17.1666 82.4999 16.5415 82.7707 16.3332 83.2915C16.104 83.8124 16.3749 84.4374 16.8957 84.6457L17.8541 85.0415L18.8124 85.4374C18.9374 85.4999 19.0832 85.5207 19.2082 85.5207C19.6249 85.5207 19.9999 85.2707 20.1665 84.8749C20.3957 84.354 20.1249 83.7291 19.604 83.5207L22.0207 77.7082C23.0207 78.0415 24.0832 78.2499 25.1874 78.3332V81.5207C24.604 81.5207 24.1457 81.9791 24.1457 82.5624C24.1457 83.1457 24.604 83.6041 25.1874 83.6041H26.229H27.2707C27.854 83.6041 28.3124 83.1457 28.3124 82.5624C28.3124 81.9791 27.854 81.5207 27.2707 81.5207V78.3332C28.3749 78.2499 29.4166 78.0415 30.4374 77.7082L32.854 83.5207C32.3332 83.7499 32.0624 84.354 32.2915 84.8749C32.4582 85.2707 32.8541 85.5207 33.2499 85.5207C33.3749 85.5207 33.5207 85.4999 33.6457 85.4374L34.604 85.0415L35.5624 84.6457C36.0832 84.4166 36.354 83.8124 36.1249 83.2915C35.9165 82.7707 35.2915 82.4999 34.7707 82.729L32.3541 76.8957C33.3124 76.3957 34.2082 75.8124 35.0207 75.104L37.2707 77.3541C36.854 77.7707 36.854 78.4166 37.2707 78.8332C37.479 79.0416 37.7499 79.1457 37.9999 79.1457C38.2499 79.1457 38.5415 79.0416 38.729 78.8332L39.4582 78.104L40.1874 77.3749C40.6041 76.9582 40.6041 76.3124 40.1874 75.8957C39.7707 75.479 39.1249 75.479 38.7082 75.8957L36.4582 73.6457C36.4999 73.5832 36.5624 73.5415 36.604 73.4999C36.604 73.4999 36.6249 73.4999 36.6249 73.479C37.2499 72.7082 37.7915 71.8749 38.2499 70.979L42.1457 72.604L44.0624 73.3957C43.8332 73.9165 44.104 74.5416 44.6249 74.7499C44.7499 74.8124 44.8957 74.8332 45.0207 74.8332C45.4374 74.8332 45.8124 74.5832 45.979 74.1874L46.3749 73.229L46.7707 72.2707C46.9999 71.7499 46.729 71.1249 46.2082 70.9166C45.7915 70.7082 45.1665 70.9582 44.9582 71.479L39.1457 69.0624C39.2082 68.8957 39.2499 68.729 39.2915 68.5624C39.3124 68.5415 39.3124 68.4999 39.3124 68.479C39.5416 67.6457 39.6874 66.7915 39.7707 65.9165H42.9582C42.9582 66.4999 43.4165 66.9582 43.9999 66.9582C44.5832 66.9582 45.0415 66.4999 45.0415 65.9165V64.8749V63.8332C45.0415 63.2499 44.5832 62.7915 43.9999 62.7915C43.4165 62.7915 42.9582 63.2499 42.9582 63.8332H39.7499C39.6665 62.729 39.4582 61.6874 39.1249 60.6665L44.9374 58.2499C45.1249 58.6665 45.4999 58.8957 45.9166 58.8957ZM15.3332 67.9999C15.3124 67.9999 15.2916 67.9999 15.2499 67.9999C15.1666 67.6665 15.0832 67.3332 15.0207 66.9999C15.1249 66.979 15.2291 66.979 15.3332 66.979C16.2916 66.979 16.8541 67.3749 16.8957 67.479C16.8541 67.604 16.2916 67.9999 15.3332 67.9999ZM27.979 53.5624C28.7499 53.6874 29.479 53.8749 30.1874 54.1249C29.9374 54.2915 29.479 54.4582 28.854 54.4582C27.8957 54.4582 27.3332 54.0624 27.2915 53.9582C27.3332 53.8957 27.5624 53.6874 27.979 53.5624ZM18.9791 59.6665C18.9791 57.3332 20.3541 55.4999 22.1041 55.4999C23.8541 55.4999 25.2291 57.3332 25.2291 59.6665C25.2291 61.9999 23.8541 63.8332 22.1041 63.8332C20.3541 63.8332 18.9791 61.9999 18.9791 59.6665ZM24.7082 72.1665C22.6249 72.1665 21.0624 71.0415 21.0624 69.5624C21.0624 68.0832 22.6249 66.9582 24.7082 66.9582C26.7916 66.9582 28.3541 68.0832 28.3541 69.5624C28.3541 71.0415 26.7916 72.1665 24.7082 72.1665ZM29.9166 74.2499C28.9582 74.2499 28.3957 73.854 28.3541 73.7499C28.4166 73.604 28.9582 73.2082 29.9166 73.2082C30.8332 73.2082 31.3749 73.5624 31.479 73.729C31.3749 73.8957 30.8332 74.2499 29.9166 74.2499ZM30.4374 66.9582C28.6874 66.9582 27.3124 65.1249 27.3124 62.7915C27.3124 60.4582 28.6874 58.6249 30.4374 58.6249C32.1874 58.6249 33.5624 60.4582 33.5624 62.7915C33.5624 65.1249 32.1874 66.9582 30.4374 66.9582ZM35.8332 71.1665C35.7291 70.854 35.6457 70.4999 35.6457 70.0832C35.6457 68.8332 36.2707 67.9999 36.6874 67.9999C36.854 67.9999 37.0207 68.1457 37.1874 68.354C36.8749 69.354 36.4166 70.3124 35.8332 71.1665Z" fill="white"/>
<path d="M22.1042 61.7502C22.6795 61.7502 23.1458 60.8174 23.1458 59.6668C23.1458 58.5162 22.6795 57.5835 22.1042 57.5835C21.5289 57.5835 21.0625 58.5162 21.0625 59.6668C21.0625 60.8174 21.5289 61.7502 22.1042 61.7502Z" fill="white"/>
<path d="M23.1458 69.5832C23.2083 69.6873 23.7499 70.0832 24.7083 70.0832C25.6249 70.0832 26.1666 69.729 26.2708 69.5623C26.1666 69.3957 25.6249 69.0415 24.7083 69.0415C23.7499 69.0415 23.1874 69.4373 23.1458 69.5832Z" fill="white"/>
</g>
<defs>
<clipPath id="clip0">
<rect width="82" height="86" fill="white"/>
</clipPath>
</defs>
</svg>
