<svg width="128" height="128" viewBox="0 0 128 128" fill="none" xmlns="http://www.w3.org/2000/svg">
<circle cx="64" cy="64" r="64" fill="white"/>
<g clip-path="url(#clip0)">
<path d="M44.1875 46.8332C44.25 46.9373 44.7917 47.3332 45.75 47.3332C46.6667 47.3332 47.2083 46.979 47.3125 46.8123C47.2083 46.6457 46.6667 46.2915 45.75 46.2915C44.7917 46.2915 44.2292 46.6873 44.1875 46.8332Z" fill="white"/>
<path d="M27.2708 48.1668C26.75 48.396 26.4791 49.0002 26.7083 49.521L27.1041 50.4793L27.5 51.4377C27.6666 51.8335 28.0625 52.0835 28.4583 52.0835C28.5833 52.0835 28.7291 52.0627 28.8541 52.0002C29.375 51.771 29.6458 51.1668 29.4166 50.646L31.3333 49.8543L35.2291 48.2293C35.7291 49.1877 36.3125 50.0835 37.0208 50.896L34.7916 53.1668C34.375 52.7502 33.7291 52.7502 33.3125 53.1668C32.8958 53.5835 32.8958 54.2293 33.3125 54.646L34.0416 55.3752L34.7708 56.1043C34.9791 56.3127 35.25 56.4168 35.5 56.4168C35.75 56.4168 36.0416 56.3127 36.2291 56.1043C36.6458 55.6877 36.6458 55.0418 36.2291 54.6252L38.4791 52.3752C39.2916 53.0835 40.1875 53.6668 41.1458 54.1668L39.5208 58.0627L38.7291 59.9793C38.2083 59.771 37.5833 60.021 37.375 60.5418C37.1666 61.0627 37.4166 61.6877 37.9375 61.896L38.8958 62.2918L39.8541 62.6877C39.9791 62.7502 40.125 62.771 40.25 62.771C40.6666 62.771 41.0416 62.521 41.2083 62.1252C41.4375 61.6043 41.1666 60.9793 40.6458 60.771L43.0625 54.9585C44.0625 55.2918 45.125 55.5002 46.2291 55.5835V58.771C45.6458 58.771 45.1875 59.2293 45.1875 59.8127C45.1875 60.396 45.6458 60.8543 46.2291 60.8543H47.2708H48.3125C48.8958 60.8543 49.3541 60.396 49.3541 59.8127C49.3541 59.2293 48.8958 58.771 48.3125 58.771V55.5835C49.4166 55.5002 50.4583 55.2918 51.4791 54.9585L53.8958 60.771C53.375 61.0002 53.1041 61.6043 53.3333 62.1252C53.5 62.521 53.8958 62.771 54.2916 62.771C54.4166 62.771 54.5625 62.7502 54.6875 62.6877L55.6458 62.2918L56.6041 61.896C57.125 61.6668 57.3958 61.0627 57.1666 60.5418C56.9375 60.021 56.3333 59.771 55.8125 59.9793L53.3958 54.146C54.3541 53.646 55.25 53.0627 56.0625 52.3543L58.3125 54.6043C57.8958 55.021 57.8958 55.6668 58.3125 56.0835C58.5208 56.2918 58.7916 56.396 59.0416 56.396C59.2916 56.396 59.5833 56.2918 59.7708 56.0835L60.5 55.3543L61.2291 54.6252C61.6458 54.2085 61.6458 53.5627 61.2291 53.146C60.8125 52.7293 60.1666 52.7293 59.75 53.146L57.5833 50.9168C57.625 50.8543 57.6875 50.8127 57.7291 50.771C57.7291 50.771 57.75 50.771 57.75 50.7502C58.375 49.9793 58.9166 49.146 59.375 48.2502L63.2708 49.8752L65.1875 50.6668C64.9583 51.1877 65.2291 51.8127 65.75 52.021C65.875 52.0835 66.0208 52.1043 66.1458 52.1043C66.5625 52.1043 66.9375 51.8543 67.1041 51.4585L67.5 50.5002L67.8958 49.5418C68.125 49.021 67.8541 48.396 67.3333 48.1877C66.8125 47.9793 66.1875 48.2293 65.9791 48.7502L60.1666 46.3335C60.2291 46.1668 60.2708 46.0002 60.3125 45.8335C60.3333 45.8127 60.3333 45.771 60.3333 45.7502C60.5625 44.9168 60.7083 44.0627 60.7916 43.1877H63.9791C63.9791 43.771 64.4375 44.2293 65.0208 44.2293C65.6041 44.2293 66.0625 43.771 66.0625 43.1877V42.146V41.0835C66.0625 40.5002 65.6041 40.0418 65.0208 40.0418C64.4375 40.0418 63.9791 40.5002 63.9791 41.0835H60.7916C60.7083 39.9793 60.5 38.9377 60.1666 37.9168L65.9791 35.5002C66.1458 35.896 66.5416 36.146 66.9375 36.146C67.0625 36.146 67.2083 36.1252 67.3333 36.0627C67.8541 35.8335 68.125 35.2293 67.8958 34.7085L67.5 33.7502L67.1041 32.7918C66.875 32.271 66.2708 32.0002 65.75 32.2293C65.2291 32.4585 64.9583 33.0627 65.1875 33.5835L63.2708 34.3752L59.375 36.0002C58.875 35.0418 58.2916 34.146 57.5833 33.3335L59.8333 31.0835C60.0416 31.2918 60.3125 31.396 60.5625 31.396C60.8125 31.396 61.1041 31.2918 61.2916 31.0835C61.7083 30.6668 61.7083 30.021 61.2916 29.6043L60.5625 28.8752L59.8333 28.146C59.4166 27.7293 58.7708 27.7293 58.3541 28.146C57.9375 28.5627 57.9375 29.2085 58.3541 29.6252L56.1041 31.8752C55.2916 31.1668 54.3958 30.5835 53.4375 30.0835L55.0625 26.1877L55.8541 24.271C55.9791 24.3335 56.125 24.3543 56.25 24.3543C56.6666 24.3543 57.0416 24.1043 57.2083 23.7085C57.4375 23.1877 57.1666 22.5627 56.6458 22.3543L55.6875 21.9168L54.7291 21.521C54.2083 21.3127 53.5833 21.5627 53.375 22.0835C53.1458 22.6043 53.4166 23.2293 53.9375 23.4377L51.5208 29.2502C50.7708 29.0002 50 28.8335 49.2083 28.7293C49.1875 28.7293 49.1875 28.7085 49.1666 28.7085C49.1458 28.7085 49.1458 28.7085 49.125 28.7085C48.875 28.6668 48.6041 28.646 48.3541 28.6252V25.4585C48.9375 25.4585 49.3958 25.0002 49.3958 24.4168C49.3958 23.8335 48.9375 23.3752 48.3541 23.3752H47.3125H46.2708C45.6875 23.3752 45.2291 23.8335 45.2291 24.4168C45.2291 25.0002 45.6875 25.4585 46.2708 25.4585V28.646C45.1666 28.7293 44.125 28.9377 43.1041 29.271L40.7083 23.4377C41.2291 23.2085 41.5 22.6043 41.2708 22.0835C41.0416 21.5418 40.4375 21.3127 39.9166 21.521L38.9375 21.9168L37.9791 22.3127C37.4375 22.5418 37.1875 23.146 37.4166 23.6668C37.6458 24.2085 38.25 24.4585 38.7708 24.2293L41.1875 30.0627C40.2291 30.5627 39.3333 31.146 38.5208 31.8543L36.2708 29.6043C36.6875 29.1877 36.6875 28.5418 36.2708 28.1252C35.8541 27.7085 35.2083 27.7085 34.7916 28.1252L34.0625 28.8752L33.3125 29.6043C32.8958 30.021 32.8958 30.6668 33.3125 31.0835C33.7291 31.5002 34.375 31.5002 34.7916 31.0835L37.0416 33.3335C36.3333 34.146 35.75 35.0418 35.25 36.0002L31.3541 34.3752L29.4166 33.5835C29.6458 33.0627 29.375 32.4377 28.8541 32.2293C28.3333 32.0002 27.7291 32.2502 27.5 32.7918L27.1041 33.7502L26.7083 34.7085C26.4791 35.2293 26.75 35.8543 27.2708 36.0627C27.7916 36.2918 28.4166 36.0418 28.625 35.521L34.4375 37.9377C34.125 38.9377 33.9166 39.9793 33.8333 41.0835H30.6458C30.6458 40.5002 30.1875 40.0418 29.6041 40.0418C29.0208 40.0418 28.5625 40.5002 28.5625 41.0835V42.1252V43.1668C28.5625 43.7502 29.0208 44.2085 29.6041 44.2085C30.1875 44.2085 30.6458 43.7502 30.6458 43.1668H33.8333C33.9166 44.271 34.125 45.3127 34.4583 46.3335L28.625 48.7293C28.4166 48.2085 27.7916 47.9585 27.2708 48.1668ZM57.7291 45.2502C57.8958 45.2502 58.0625 45.396 58.2291 45.6043C57.9166 46.6043 57.4375 47.5627 56.875 48.4377C56.7708 48.1252 56.6875 47.771 56.6875 47.3543C56.6875 46.0835 57.3125 45.2502 57.7291 45.2502ZM50.9583 51.5002C50 51.5002 49.4375 51.1043 49.3958 51.0002C49.4583 50.8543 50 50.4585 50.9583 50.4585C51.875 50.4585 52.4166 50.8127 52.5208 50.9793C52.4166 51.146 51.875 51.5002 50.9583 51.5002ZM54.6041 40.0418C54.6041 42.3752 53.2291 44.2085 51.4791 44.2085C49.7291 44.2085 48.3541 42.3752 48.3541 40.0418C48.3541 37.7085 49.7291 35.8752 51.4791 35.8752C53.2291 35.8752 54.6041 37.7085 54.6041 40.0418ZM49.0208 30.8127C49.7916 30.9377 50.5208 31.1252 51.2291 31.3752C50.9791 31.5418 50.5208 31.7085 49.8958 31.7085C48.9375 31.7085 48.375 31.3127 48.3333 31.2085C48.375 31.146 48.6041 30.9377 49.0208 30.8127ZM49.3958 46.8127C49.3958 48.2918 47.8333 49.4168 45.75 49.4168C43.6666 49.4168 42.1041 48.2918 42.1041 46.8127C42.1041 45.3335 43.6666 44.2085 45.75 44.2085C47.8333 44.2085 49.3958 45.3335 49.3958 46.8127ZM43.1458 32.7502C44.8958 32.7502 46.2708 34.5835 46.2708 36.9168C46.2708 39.2502 44.8958 41.0835 43.1458 41.0835C41.3958 41.0835 40.0208 39.2502 40.0208 36.9168C40.0208 34.5835 41.3958 32.7502 43.1458 32.7502ZM36.375 44.2085C37.3333 44.2085 37.8958 44.6043 37.9375 44.7085C37.8958 44.8543 37.3333 45.2502 36.375 45.2502C36.3541 45.2502 36.3333 45.2502 36.2916 45.2502C36.2083 44.9168 36.125 44.5835 36.0625 44.2502C36.1666 44.2293 36.2708 44.2085 36.375 44.2085Z" fill="#4E4E4E"/>
<path d="M51.4792 42.1252C52.0545 42.1252 52.5208 41.1924 52.5208 40.0418C52.5208 38.8912 52.0545 37.9585 51.4792 37.9585C50.9039 37.9585 50.4375 38.8912 50.4375 40.0418C50.4375 41.1924 50.9039 42.1252 51.4792 42.1252Z" fill="white"/>
<path d="M43.1459 39.0002C43.7212 39.0002 44.1876 38.0674 44.1876 36.9168C44.1876 35.7662 43.7212 34.8335 43.1459 34.8335C42.5706 34.8335 42.1042 35.7662 42.1042 36.9168C42.1042 38.0674 42.5706 39.0002 43.1459 39.0002Z" fill="white"/>
<path d="M84.5209 59.8332C85.0962 59.8332 85.5626 58.9004 85.5626 57.7498C85.5626 56.5992 85.0962 55.6665 84.5209 55.6665C83.9456 55.6665 83.4792 56.5992 83.4792 57.7498C83.4792 58.9004 83.9456 59.8332 84.5209 59.8332Z" fill="white"/>
<path d="M85.5625 67.6667C85.625 67.7708 86.1667 68.1667 87.125 68.1667C88.0417 68.1667 88.5833 67.8125 88.6875 67.6458C88.5833 67.4792 88.0417 67.125 87.125 67.125C86.1667 67.125 85.6042 67.5208 85.5625 67.6667Z" fill="white"/>
<path d="M107.146 53.0625C106.625 53.2917 106.354 53.8958 106.583 54.4167L104.667 55.2083L100.771 56.8333C100.271 55.875 99.6874 54.9792 98.979 54.1667L101.229 51.9167C101.437 52.125 101.708 52.2292 101.958 52.2292C102.208 52.2292 102.5 52.125 102.687 51.9167C103.104 51.5 103.104 50.8542 102.687 50.4375L101.958 49.7083L101.229 48.9792C100.812 48.5625 100.167 48.5625 99.7499 48.9792C99.3332 49.3958 99.3332 50.0417 99.7499 50.4583L97.4999 52.7083C96.6874 52 95.7916 51.4167 94.8332 50.9167L96.4582 47.0208L97.2499 45.1042C97.3749 45.1667 97.5207 45.1875 97.6457 45.1875C98.0624 45.1875 98.4374 44.9375 98.604 44.5417C98.8332 44.0208 98.5624 43.3958 98.0415 43.1875L97.0832 42.7917L96.1249 42.3958C95.6041 42.1875 94.979 42.4375 94.7707 42.9583C94.5415 43.4792 94.8124 44.1042 95.3332 44.3125L92.9165 50.125C92.1665 49.875 91.3957 49.7083 90.604 49.6042C90.5832 49.6042 90.5832 49.5833 90.5624 49.5833C90.5416 49.5833 90.5416 49.5833 90.5207 49.5833C90.2707 49.5417 89.9999 49.5208 89.7499 49.5V46.2917C90.3332 46.2917 90.7915 45.8333 90.7915 45.25C90.7915 44.6667 90.3332 44.2083 89.7499 44.2083H88.7082H87.6665C87.0832 44.2083 86.6249 44.6667 86.6249 45.25C86.6249 45.8333 87.0832 46.2917 87.6665 46.2917V49.4792C86.5624 49.5625 85.5207 49.7708 84.4999 50.1042L82.0832 44.2917C82.6041 44.0625 82.8749 43.4583 82.6457 42.9375C82.4166 42.3958 81.8124 42.1667 81.2915 42.375L80.3332 42.7708L79.3749 43.1667C78.854 43.3958 78.5832 44 78.8124 44.5208C79.0416 45.0625 79.6457 45.3125 80.1666 45.0833L82.5832 50.9167C81.6249 51.4167 80.729 52 79.9165 52.7083L77.6666 50.4583C78.0832 50.0417 78.0832 49.3958 77.6666 48.9792C77.2499 48.5625 76.6041 48.5625 76.1874 48.9792L75.4582 49.7083L74.7291 50.4375C74.3124 50.8542 74.3124 51.5 74.7291 51.9167C75.1457 52.3333 75.7916 52.3333 76.2082 51.9167L78.4166 54.1667C77.7082 54.9792 77.1249 55.875 76.6249 56.8333L72.7291 55.2083L70.8124 54.4167C71.0416 53.8958 70.7707 53.2708 70.2499 53.0625C69.7291 52.8333 69.1041 53.1042 68.8957 53.625L68.4999 54.5833L68.1041 55.5417C67.8749 56.0625 68.1457 56.6875 68.6666 56.8958C69.1874 57.1042 69.8124 56.8542 70.0207 56.3333L75.8332 58.75C75.4999 59.75 75.2915 60.8125 75.2082 61.9167H72.0207C72.0207 61.3333 71.5624 60.875 70.9791 60.875C70.3957 60.875 69.9374 61.3333 69.9374 61.9167V62.9583V64C69.9374 64.5833 70.3957 65.0417 70.9791 65.0417C71.5624 65.0417 72.0207 64.5833 72.0207 64H75.2082C75.2915 65.1042 75.4999 66.1458 75.8332 67.1667L70.0207 69.5833C69.7916 69.0625 69.1874 68.7917 68.6666 69.0208C68.1457 69.25 67.8749 69.8542 68.1041 70.375L68.4999 71.3333L68.8957 72.2917C69.0624 72.6875 69.4582 72.9375 69.8541 72.9375C69.9791 72.9375 70.1249 72.9167 70.2499 72.8542C70.7707 72.625 71.0416 72.0208 70.8124 71.5L72.7291 70.7083L76.6249 69.0833C77.1249 70.0417 77.7082 70.9375 78.4166 71.75L76.1666 74C75.7499 73.5833 75.104 73.5833 74.6874 74C74.2707 74.4167 74.2707 75.0625 74.6874 75.4792L75.4166 76.2083L76.1457 76.9375C76.3541 77.1458 76.6249 77.25 76.8749 77.25C77.1249 77.25 77.4166 77.1458 77.6041 76.9375C78.0207 76.5208 78.0207 75.875 77.6041 75.4583L79.8541 73.2083C80.6666 73.9167 81.5624 74.5 82.5207 75L80.8957 78.8958L80.1041 80.8125C79.5832 80.6042 78.9582 80.8542 78.7499 81.375C78.5207 81.8958 78.7916 82.5208 79.3124 82.7292L80.2707 83.125L81.2291 83.5208C81.3541 83.5833 81.4999 83.6042 81.6249 83.6042C82.0416 83.6042 82.4166 83.3542 82.5832 82.9583C82.8124 82.4375 82.5416 81.8125 82.0207 81.6042L84.4374 75.7917C85.4374 76.125 86.4999 76.3333 87.6041 76.4167V79.6042C87.0207 79.6042 86.5624 80.0625 86.5624 80.6458C86.5624 81.2292 87.0207 81.6875 87.6041 81.6875H88.6457H89.6874C90.2707 81.6875 90.7291 81.2292 90.7291 80.6458C90.7291 80.0625 90.2707 79.6042 89.6874 79.6042V76.4167C90.7915 76.3333 91.8332 76.125 92.8541 75.7917L95.2707 81.6042C94.7499 81.8333 94.479 82.4375 94.7082 82.9583C94.8749 83.3542 95.2707 83.6042 95.6665 83.6042C95.7915 83.6042 95.9374 83.5833 96.0624 83.5208L97.0207 83.125L97.979 82.7292C98.4999 82.5 98.7707 81.8958 98.5415 81.375C98.3332 80.8542 97.7082 80.6042 97.1874 80.8125L94.7707 74.9792C95.729 74.4792 96.6249 73.8958 97.4374 73.1875L99.6874 75.4375C99.2707 75.8542 99.2707 76.5 99.6874 76.9167C99.8957 77.125 100.167 77.2292 100.417 77.2292C100.667 77.2292 100.958 77.125 101.146 76.9167L101.875 76.1875L102.604 75.4583C103.021 75.0417 103.021 74.3958 102.604 73.9792C102.187 73.5625 101.542 73.5625 101.125 73.9792L98.8749 71.7292C98.9165 71.6667 98.979 71.625 99.0207 71.5833C99.0207 71.5833 99.0416 71.5833 99.0416 71.5625C99.6666 70.7917 100.208 69.9583 100.667 69.0625L104.562 70.6875L106.479 71.4792C106.25 72 106.521 72.625 107.042 72.8333C107.167 72.8958 107.312 72.9167 107.437 72.9167C107.854 72.9167 108.229 72.6667 108.396 72.2708L108.792 71.3125L109.187 70.3542C109.417 69.8333 109.146 69.2083 108.625 69C108.104 68.7917 107.479 69.0417 107.271 69.5625L101.458 67.1458C101.521 66.9792 101.562 66.8125 101.604 66.6458C101.625 66.625 101.625 66.5833 101.625 66.5625C101.854 65.7292 102 64.875 102.083 64H105.271C105.271 64.5833 105.729 65.0417 106.312 65.0417C106.896 65.0417 107.354 64.5833 107.354 64V62.9583V61.9167C107.354 61.3333 106.896 60.875 106.312 60.875C105.729 60.875 105.271 61.3333 105.271 61.9167H102.167C102.083 60.8125 101.875 59.7708 101.542 58.75L107.354 56.3333C107.521 56.7292 107.917 56.9792 108.312 56.9792C108.437 56.9792 108.583 56.9583 108.708 56.8958C109.229 56.6667 109.5 56.0625 109.271 55.5417L108.875 54.5833L108.479 53.625C108.271 53.0833 107.667 52.8333 107.146 53.0625ZM77.7499 66.0833C77.7291 66.0833 77.7082 66.0833 77.6666 66.0833C77.5832 65.75 77.4999 65.4167 77.4374 65.0833C77.5416 65.0625 77.6457 65.0625 77.7499 65.0625C78.7082 65.0625 79.2707 65.4583 79.3124 65.5625C79.2707 65.6875 78.7082 66.0833 77.7499 66.0833ZM90.3957 51.6458C91.1666 51.7708 91.8957 51.9583 92.6041 52.2083C92.3541 52.375 91.8957 52.5417 91.2707 52.5417C90.3124 52.5417 89.7499 52.1458 89.7082 52.0417C89.7499 51.9792 89.9791 51.7708 90.3957 51.6458ZM81.3957 57.75C81.3957 55.4167 82.7707 53.5833 84.5207 53.5833C86.2707 53.5833 87.6457 55.4167 87.6457 57.75C87.6457 60.0833 86.2707 61.9167 84.5207 61.9167C82.7707 61.9167 81.3957 60.0833 81.3957 57.75ZM87.1249 70.25C85.0416 70.25 83.4791 69.125 83.4791 67.6458C83.4791 66.1667 85.0416 65.0417 87.1249 65.0417C89.2082 65.0417 90.7707 66.1667 90.7707 67.6458C90.7707 69.125 89.2082 70.25 87.1249 70.25ZM92.3332 72.3333C91.3749 72.3333 90.8124 71.9375 90.7707 71.8333C90.8332 71.6875 91.3749 71.2917 92.3332 71.2917C93.2499 71.2917 93.7916 71.6458 93.8957 71.8125C93.7916 71.9792 93.2499 72.3333 92.3332 72.3333ZM92.8541 65.0417C91.1041 65.0417 89.7291 63.2083 89.7291 60.875C89.7291 58.5417 91.1041 56.7083 92.8541 56.7083C94.6041 56.7083 95.9791 58.5417 95.9791 60.875C95.9791 63.2083 94.6041 65.0417 92.8541 65.0417ZM98.2499 69.25C98.1457 68.9375 98.0624 68.5833 98.0624 68.1667C98.0624 66.9167 98.6874 66.0833 99.1041 66.0833C99.2707 66.0833 99.4374 66.2292 99.604 66.4375C99.2915 67.4375 98.8332 68.3958 98.2499 69.25Z" fill="#313131"/>
<path d="M92.8542 62.9582C93.4295 62.9582 93.8958 62.0254 93.8958 60.8748C93.8958 59.7242 93.4295 58.7915 92.8542 58.7915C92.2789 58.7915 91.8125 59.7242 91.8125 60.8748C91.8125 62.0254 92.2789 62.9582 92.8542 62.9582Z" fill="white"/>
<path d="M57.4374 85.8752C58.0127 85.8752 58.4791 84.9424 58.4791 83.7918C58.4791 82.6412 58.0127 81.7085 57.4374 81.7085C56.8621 81.7085 56.3958 82.6412 56.3958 83.7918C56.3958 84.9424 56.8621 85.8752 57.4374 85.8752Z" fill="white"/>
<path d="M72.9165 79.8957C73.0415 79.8957 73.1874 79.8749 73.3124 79.8124C73.8332 79.5832 74.104 78.979 73.8749 78.4582L73.479 77.4999L73.0832 76.5415C72.854 76.0207 72.2499 75.7707 71.729 75.979C71.2082 76.2082 70.9374 76.8124 71.1665 77.3332L69.2499 78.1249L65.354 79.7499C64.854 78.7915 64.2707 77.8957 63.5624 77.0832L65.8124 74.8332C66.0207 75.0416 66.2915 75.1457 66.5415 75.1457C66.7915 75.1457 67.0832 75.0416 67.2707 74.8332C67.6874 74.4166 67.6874 73.7707 67.2707 73.354L66.5415 72.6249L65.8124 71.8957C65.3957 71.4791 64.7499 71.4791 64.3332 71.8957C63.9165 72.3124 63.9165 72.9582 64.3332 73.3749L62.0832 75.6249C61.2707 74.9165 60.3749 74.3332 59.4165 73.8332L61.0415 69.9374L61.8332 68.0207C61.9582 68.0832 62.104 68.104 62.229 68.104C62.6457 68.104 63.0207 67.854 63.1874 67.4582C63.4165 66.9374 63.1457 66.3124 62.6249 66.104L61.6665 65.7082L60.7082 65.3124C60.1874 65.104 59.5624 65.354 59.354 65.8749C59.1457 66.3957 59.3957 67.0207 59.9166 67.229L57.4999 73.0415C56.7499 72.7915 55.979 72.6249 55.1874 72.5207C55.1665 72.5207 55.1665 72.4999 55.1457 72.4999C55.1249 72.4999 55.1249 72.4999 55.104 72.4999C54.854 72.4582 54.5832 72.4374 54.3332 72.4166V69.2082C54.9165 69.2082 55.3749 68.7499 55.3749 68.1665C55.3749 67.5832 54.9165 67.1249 54.3332 67.1249H53.2916H52.2499C51.6666 67.1249 51.2082 67.5832 51.2082 68.1665C51.2082 68.7499 51.6666 69.2082 52.2499 69.2082V72.3957C51.1457 72.4791 50.104 72.6874 49.0832 73.0207L46.6666 67.2082C47.1874 66.9791 47.4582 66.3749 47.229 65.854C46.9999 65.3332 46.3957 65.0624 45.8749 65.2916L44.9165 65.6874L43.9582 66.0832C43.4374 66.3124 43.1665 66.9165 43.3957 67.4374C43.6249 67.979 44.2291 68.229 44.7499 67.9999L47.1665 73.8332C46.2082 74.3332 45.3124 74.9165 44.4999 75.6249L42.2499 73.3749C42.6666 72.9582 42.6666 72.3124 42.2499 71.8957C41.8332 71.4791 41.1874 71.4791 40.7707 71.8957L40.0415 72.6249L39.3124 73.354C38.8957 73.7707 38.8957 74.4166 39.3124 74.8332C39.729 75.2499 40.3749 75.2499 40.7915 74.8332L42.9999 77.0832C42.2915 77.8957 41.7082 78.7915 41.2082 79.7499L37.3124 78.1249L35.3749 77.3332C35.6041 76.8124 35.3332 76.1874 34.8124 75.979C34.2915 75.7707 33.6666 76.0207 33.4582 76.5415L33.0624 77.4999L32.6666 78.4582C32.4374 78.979 32.7082 79.604 33.2291 79.8124C33.7499 80.0415 34.3749 79.7707 34.5832 79.2499L40.3957 81.6665C40.0624 82.6665 39.854 83.729 39.7707 84.8332H36.6041C36.6041 84.2499 36.1457 83.7915 35.5624 83.7915C34.9791 83.7915 34.5207 84.2499 34.5207 84.8332V85.8749V86.9165C34.5207 87.4999 34.9791 87.9582 35.5624 87.9582C36.1457 87.9582 36.6041 87.4999 36.6041 86.9165H39.7916C39.8749 88.0207 40.0832 89.0624 40.4166 90.0832L34.604 92.4999C34.3749 91.979 33.7707 91.7082 33.2499 91.9374C32.7291 92.1665 32.4582 92.7707 32.6874 93.2915L33.0832 94.2499L33.4791 95.2082C33.6457 95.604 34.0416 95.854 34.4374 95.854C34.5624 95.854 34.7082 95.8332 34.8332 95.7707C35.3541 95.5415 35.6249 94.9374 35.3957 94.4165L37.3124 93.6249L41.2082 91.9999C41.7082 92.9582 42.2915 93.854 42.9999 94.6665L40.7499 96.9165C40.3332 96.4999 39.6874 96.4999 39.2707 96.9165C38.8541 97.3332 38.8541 97.979 39.2707 98.3957L39.9999 99.1249L40.729 99.854C40.9374 100.062 41.2082 100.167 41.4582 100.167C41.7082 100.167 41.9999 100.062 42.1874 99.854C42.604 99.4374 42.604 98.7915 42.1874 98.3749L44.4374 96.1249C45.2499 96.8332 46.1457 97.4165 47.1041 97.9165L45.479 101.812L44.6874 103.729C44.1666 103.5 43.5415 103.771 43.3332 104.292C43.104 104.812 43.3749 105.437 43.8957 105.646L44.8541 106.042L45.8124 106.437C45.9374 106.5 46.0832 106.521 46.2082 106.521C46.6249 106.521 46.9999 106.271 47.1665 105.875C47.3957 105.354 47.1249 104.729 46.604 104.521L49.0207 98.7082C50.0207 99.0415 51.0832 99.2499 52.1874 99.3332V102.521C51.604 102.521 51.1457 102.979 51.1457 103.562C51.1457 104.146 51.604 104.604 52.1874 104.604H53.229H54.2707C54.854 104.604 55.3124 104.146 55.3124 103.562C55.3124 102.979 54.854 102.521 54.2707 102.521V99.3332C55.3749 99.2499 56.4165 99.0415 57.4374 98.7082L59.854 104.521C59.3332 104.75 59.0624 105.354 59.2915 105.875C59.4582 106.271 59.8541 106.521 60.2499 106.521C60.3749 106.521 60.5207 106.5 60.6457 106.437L61.604 106.042L62.5624 105.646C63.0832 105.417 63.354 104.812 63.1249 104.292C62.9165 103.771 62.2915 103.5 61.7707 103.729L59.354 97.8957C60.3124 97.3957 61.2082 96.8124 62.0207 96.104L64.2707 98.354C63.854 98.7707 63.854 99.4165 64.2707 99.8332C64.479 100.042 64.7499 100.146 64.9999 100.146C65.2499 100.146 65.5415 100.042 65.729 99.8332L66.4582 99.104L67.1874 98.3749C67.604 97.9582 67.604 97.3124 67.1874 96.8957C66.7707 96.479 66.1249 96.479 65.7082 96.8957L63.4582 94.6457C63.4999 94.5832 63.5624 94.5415 63.604 94.4999C63.604 94.4999 63.6249 94.4999 63.6249 94.479C64.2499 93.7082 64.7915 92.8749 65.2499 91.979L69.1457 93.604L71.0624 94.3957C70.8332 94.9165 71.104 95.5416 71.6249 95.7499C71.7499 95.8124 71.8957 95.8332 72.0207 95.8332C72.4374 95.8332 72.8124 95.5832 72.979 95.1874L73.3749 94.229L73.7707 93.2707C73.9999 92.7499 73.729 92.1249 73.2082 91.9166C72.7915 91.7082 72.1665 91.9582 71.9582 92.479L66.1457 90.0624C66.2082 89.8957 66.2499 89.729 66.2915 89.5624C66.3124 89.5415 66.3124 89.4999 66.3124 89.479C66.5415 88.6457 66.6874 87.7915 66.7707 86.9165H69.9582C69.9582 87.4999 70.4165 87.9582 70.9999 87.9582C71.5832 87.9582 72.0415 87.4999 72.0415 86.9165V85.8749V84.8332C72.0415 84.2499 71.5832 83.7915 70.9999 83.7915C70.4165 83.7915 69.9582 84.2499 69.9582 84.8332H66.7499C66.6665 83.729 66.4582 82.6874 66.1249 81.6665L71.9374 79.2499C72.1249 79.6665 72.4999 79.8957 72.9165 79.8957ZM42.3332 88.9999C42.3124 88.9999 42.2916 88.9999 42.2499 88.9999C42.1666 88.6665 42.0832 88.3332 42.0207 87.9999C42.1249 87.979 42.2291 87.979 42.3332 87.979C43.2916 87.979 43.8541 88.3749 43.8957 88.479C43.8541 88.604 43.2916 88.9999 42.3332 88.9999ZM54.979 74.5624C55.7499 74.6874 56.479 74.8749 57.1874 75.1249C56.9374 75.2915 56.479 75.4582 55.854 75.4582C54.8957 75.4582 54.3332 75.0624 54.2915 74.9582C54.3332 74.8957 54.5624 74.6874 54.979 74.5624ZM45.9791 80.6665C45.9791 78.3332 47.3541 76.4999 49.104 76.4999C50.854 76.4999 52.229 78.3332 52.229 80.6665C52.229 82.9999 50.854 84.8332 49.104 84.8332C47.3541 84.8332 45.9791 82.9999 45.9791 80.6665ZM51.7082 93.1665C49.6249 93.1665 48.0624 92.0415 48.0624 90.5624C48.0624 89.0832 49.6249 87.9582 51.7082 87.9582C53.7915 87.9582 55.354 89.0832 55.354 90.5624C55.354 92.0415 53.7915 93.1665 51.7082 93.1665ZM56.9165 95.2499C55.9582 95.2499 55.3957 94.854 55.354 94.7499C55.4165 94.604 55.9582 94.2082 56.9165 94.2082C57.8332 94.2082 58.3749 94.5624 58.479 94.729C58.3749 94.8957 57.8332 95.2499 56.9165 95.2499ZM57.4374 87.9582C55.6874 87.9582 54.3124 86.1249 54.3124 83.7915C54.3124 81.4582 55.6874 79.6249 57.4374 79.6249C59.1874 79.6249 60.5624 81.4582 60.5624 83.7915C60.5624 86.1249 59.1874 87.9582 57.4374 87.9582ZM62.8332 92.1665C62.729 91.854 62.6457 91.4999 62.6457 91.0832C62.6457 89.8332 63.2707 88.9999 63.6874 88.9999C63.854 88.9999 64.0207 89.1457 64.1874 89.354C63.8749 90.354 63.4165 91.3124 62.8332 92.1665Z" fill="#1D1D1D"/>
<path d="M49.1042 82.7502C49.6795 82.7502 50.1458 81.8174 50.1458 80.6668C50.1458 79.5162 49.6795 78.5835 49.1042 78.5835C48.5289 78.5835 48.0625 79.5162 48.0625 80.6668C48.0625 81.8174 48.5289 82.7502 49.1042 82.7502Z" fill="white"/>
<path d="M50.1458 90.5832C50.2083 90.6873 50.7499 91.0832 51.7083 91.0832C52.6249 91.0832 53.1666 90.729 53.2708 90.5623C53.1666 90.3957 52.6249 90.0415 51.7083 90.0415C50.7499 90.0415 50.1874 90.4373 50.1458 90.5832Z" fill="white"/>
</g>
<defs>
<clipPath id="clip0">
<rect width="82" height="86" fill="white" transform="translate(27 21)"/>
</clipPath>
</defs>
</svg>
