<svg width="299" height="28" viewBox="0 0 299 28" fill="none" xmlns="http://www.w3.org/2000/svg">
<mask id="path-1-outside-1" maskUnits="userSpaceOnUse" x="0.553711" y="0.293945" width="298" height="28" fill="black">
<rect fill="white" x="0.553711" y="0.293945" width="298" height="28"/>
<path d="M5.92171 14.2699C5.92171 10.3779 8.83371 7.94195 12.1937 7.94195C14.9657 7.94195 16.8697 9.11795 18.1857 10.6299V6.09395C16.5897 4.80595 14.8817 4.07794 12.0257 4.07794C5.97771 4.07794 1.55371 8.22194 1.55371 14.2699C1.55371 20.3179 5.97771 24.4619 12.0257 24.4619C14.8817 24.4619 16.5897 23.7339 18.1857 22.4459V17.9099C16.8697 19.4219 14.9657 20.5979 12.1937 20.5979C8.83371 20.5979 5.92171 18.1619 5.92171 14.2699Z"/>
<path d="M23.5425 4.46994V24.0699H27.5745V16.9579H29.3105L33.8745 24.0699H38.6625L33.3425 16.4819C36.0025 15.5859 37.4865 13.5139 37.4865 10.7419C37.4865 7.01794 34.7985 4.46994 30.1505 4.46994H23.5425ZM29.8985 7.94195C31.9705 7.94195 33.3145 9.00594 33.3145 10.8539C33.3145 12.7019 31.9705 13.7659 29.8985 13.7659H27.5745V7.94195H29.8985Z"/>
<path d="M42.3057 4.46994V24.0699H54.7937V20.6539H46.2257V15.3339H54.2337V12.0019H46.2257V7.88595H54.7937V4.46994H42.3057Z"/>
<path d="M73.3833 24.0699H77.9473L67.9793 3.29395L58.0393 24.0699H62.6033L64.6193 19.6459H71.3393L73.3833 24.0699ZM67.9793 10.8539L70.3873 16.4539H65.5713L67.9793 10.8539Z"/>
<path d="M77.5442 8.10995H82.8082V24.0699H86.8402V8.10995H92.1322V4.46994H77.5442V8.10995Z"/>
<path d="M95.8065 4.46994V24.0699H99.8945V4.46994H95.8065Z"/>
<path d="M113.359 17.1819L108.095 4.46994H103.419L113.359 25.2459L123.327 4.46994H118.623L113.359 17.1819Z"/>
<path d="M126.853 4.46994V24.0699H139.341V20.6539H130.773V15.3339H138.781V12.0019H130.773V7.88595H139.341V4.46994H126.853Z"/>
<path d="M161.145 24.0699C167.361 24.0699 171.449 20.2339 171.449 14.2699C171.449 8.30595 167.361 4.46994 161.145 4.46994H154.481V24.0699H161.145ZM161.033 8.13795C164.477 8.13795 167.305 9.95795 167.305 14.2699C167.305 18.5819 164.477 20.4019 161.033 20.4019H158.625V8.13795H161.033Z"/>
<path d="M175.951 4.46994V24.0699H180.039V4.46994H175.951Z"/>
<path d="M185.664 4.46994V24.0699H189.696V16.9579H191.432L195.996 24.0699H200.784L195.464 16.4819C198.124 15.5859 199.608 13.5139 199.608 10.7419C199.608 7.01794 196.92 4.46994 192.272 4.46994H185.664ZM192.02 7.94195C194.092 7.94195 195.436 9.00594 195.436 10.8539C195.436 12.7019 194.092 13.7659 192.02 13.7659H189.696V7.94195H192.02Z"/>
<path d="M204.427 4.46994V24.0699H216.915V20.6539H208.347V15.3339H216.355V12.0019H208.347V7.88595H216.915V4.46994H204.427Z"/>
<path d="M225.508 14.2699C225.508 10.3779 228.42 7.94195 231.78 7.94195C234.552 7.94195 236.456 9.11795 237.772 10.6299V6.09395C236.176 4.80595 234.468 4.07794 231.612 4.07794C225.564 4.07794 221.14 8.22194 221.14 14.2699C221.14 20.3179 225.564 24.4619 231.612 24.4619C234.468 24.4619 236.176 23.7339 237.772 22.4459V17.9099C236.456 19.4219 234.552 20.5979 231.78 20.5979C228.42 20.5979 225.508 18.1619 225.508 14.2699Z"/>
<path d="M240.322 8.10995H245.586V24.0699H249.618V8.10995H254.91V4.46994H240.322V8.10995Z"/>
<path d="M256.069 14.2699C256.069 20.2059 260.409 24.5739 266.429 24.5739C272.449 24.5739 276.789 20.2059 276.789 14.2699C276.789 8.33394 272.365 4.07794 266.429 4.07794C260.549 4.07794 256.069 8.33394 256.069 14.2699ZM260.325 14.2699C260.325 10.5179 262.817 7.82994 266.429 7.82994C270.125 7.82994 272.533 10.5179 272.533 14.2699C272.533 18.0219 270.041 20.7099 266.429 20.7099C262.817 20.7099 260.325 18.0219 260.325 14.2699Z"/>
<path d="M281.285 4.46994V24.0699H285.317V16.9579H287.053L291.617 24.0699H296.405L291.085 16.4819C293.745 15.5859 295.229 13.5139 295.229 10.7419C295.229 7.01794 292.541 4.46994 287.893 4.46994H281.285ZM287.641 7.94195C289.713 7.94195 291.057 9.00594 291.057 10.8539C291.057 12.7019 289.713 13.7659 287.641 13.7659H285.317V7.94195H287.641Z"/>
</mask>
<path d="M5.92171 14.2699C5.92171 10.3779 8.83371 7.94195 12.1937 7.94195C14.9657 7.94195 16.8697 9.11795 18.1857 10.6299V6.09395C16.5897 4.80595 14.8817 4.07794 12.0257 4.07794C5.97771 4.07794 1.55371 8.22194 1.55371 14.2699C1.55371 20.3179 5.97771 24.4619 12.0257 24.4619C14.8817 24.4619 16.5897 23.7339 18.1857 22.4459V17.9099C16.8697 19.4219 14.9657 20.5979 12.1937 20.5979C8.83371 20.5979 5.92171 18.1619 5.92171 14.2699Z" stroke="white" stroke-width="2" mask="url(#path-1-outside-1)"/>
<path d="M23.5425 4.46994V24.0699H27.5745V16.9579H29.3105L33.8745 24.0699H38.6625L33.3425 16.4819C36.0025 15.5859 37.4865 13.5139 37.4865 10.7419C37.4865 7.01794 34.7985 4.46994 30.1505 4.46994H23.5425ZM29.8985 7.94195C31.9705 7.94195 33.3145 9.00594 33.3145 10.8539C33.3145 12.7019 31.9705 13.7659 29.8985 13.7659H27.5745V7.94195H29.8985Z" stroke="white" stroke-width="2" mask="url(#path-1-outside-1)"/>
<path d="M42.3057 4.46994V24.0699H54.7937V20.6539H46.2257V15.3339H54.2337V12.0019H46.2257V7.88595H54.7937V4.46994H42.3057Z" stroke="white" stroke-width="2" mask="url(#path-1-outside-1)"/>
<path d="M73.3833 24.0699H77.9473L67.9793 3.29395L58.0393 24.0699H62.6033L64.6193 19.6459H71.3393L73.3833 24.0699ZM67.9793 10.8539L70.3873 16.4539H65.5713L67.9793 10.8539Z" stroke="white" stroke-width="2" mask="url(#path-1-outside-1)"/>
<path d="M77.5442 8.10995H82.8082V24.0699H86.8402V8.10995H92.1322V4.46994H77.5442V8.10995Z" stroke="white" stroke-width="2" mask="url(#path-1-outside-1)"/>
<path d="M95.8065 4.46994V24.0699H99.8945V4.46994H95.8065Z" stroke="white" stroke-width="2" mask="url(#path-1-outside-1)"/>
<path d="M113.359 17.1819L108.095 4.46994H103.419L113.359 25.2459L123.327 4.46994H118.623L113.359 17.1819Z" stroke="white" stroke-width="2" mask="url(#path-1-outside-1)"/>
<path d="M126.853 4.46994V24.0699H139.341V20.6539H130.773V15.3339H138.781V12.0019H130.773V7.88595H139.341V4.46994H126.853Z" stroke="white" stroke-width="2" mask="url(#path-1-outside-1)"/>
<path d="M161.145 24.0699C167.361 24.0699 171.449 20.2339 171.449 14.2699C171.449 8.30595 167.361 4.46994 161.145 4.46994H154.481V24.0699H161.145ZM161.033 8.13795C164.477 8.13795 167.305 9.95795 167.305 14.2699C167.305 18.5819 164.477 20.4019 161.033 20.4019H158.625V8.13795H161.033Z" stroke="white" stroke-width="2" mask="url(#path-1-outside-1)"/>
<path d="M175.951 4.46994V24.0699H180.039V4.46994H175.951Z" stroke="white" stroke-width="2" mask="url(#path-1-outside-1)"/>
<path d="M185.664 4.46994V24.0699H189.696V16.9579H191.432L195.996 24.0699H200.784L195.464 16.4819C198.124 15.5859 199.608 13.5139 199.608 10.7419C199.608 7.01794 196.92 4.46994 192.272 4.46994H185.664ZM192.02 7.94195C194.092 7.94195 195.436 9.00594 195.436 10.8539C195.436 12.7019 194.092 13.7659 192.02 13.7659H189.696V7.94195H192.02Z" stroke="white" stroke-width="2" mask="url(#path-1-outside-1)"/>
<path d="M204.427 4.46994V24.0699H216.915V20.6539H208.347V15.3339H216.355V12.0019H208.347V7.88595H216.915V4.46994H204.427Z" stroke="white" stroke-width="2" mask="url(#path-1-outside-1)"/>
<path d="M225.508 14.2699C225.508 10.3779 228.42 7.94195 231.78 7.94195C234.552 7.94195 236.456 9.11795 237.772 10.6299V6.09395C236.176 4.80595 234.468 4.07794 231.612 4.07794C225.564 4.07794 221.14 8.22194 221.14 14.2699C221.14 20.3179 225.564 24.4619 231.612 24.4619C234.468 24.4619 236.176 23.7339 237.772 22.4459V17.9099C236.456 19.4219 234.552 20.5979 231.78 20.5979C228.42 20.5979 225.508 18.1619 225.508 14.2699Z" stroke="white" stroke-width="2" mask="url(#path-1-outside-1)"/>
<path d="M240.322 8.10995H245.586V24.0699H249.618V8.10995H254.91V4.46994H240.322V8.10995Z" stroke="white" stroke-width="2" mask="url(#path-1-outside-1)"/>
<path d="M256.069 14.2699C256.069 20.2059 260.409 24.5739 266.429 24.5739C272.449 24.5739 276.789 20.2059 276.789 14.2699C276.789 8.33394 272.365 4.07794 266.429 4.07794C260.549 4.07794 256.069 8.33394 256.069 14.2699ZM260.325 14.2699C260.325 10.5179 262.817 7.82994 266.429 7.82994C270.125 7.82994 272.533 10.5179 272.533 14.2699C272.533 18.0219 270.041 20.7099 266.429 20.7099C262.817 20.7099 260.325 18.0219 260.325 14.2699Z" stroke="white" stroke-width="2" mask="url(#path-1-outside-1)"/>
<path d="M281.285 4.46994V24.0699H285.317V16.9579H287.053L291.617 24.0699H296.405L291.085 16.4819C293.745 15.5859 295.229 13.5139 295.229 10.7419C295.229 7.01794 292.541 4.46994 287.893 4.46994H281.285ZM287.641 7.94195C289.713 7.94195 291.057 9.00594 291.057 10.8539C291.057 12.7019 289.713 13.7659 287.641 13.7659H285.317V7.94195H287.641Z" stroke="white" stroke-width="2" mask="url(#path-1-outside-1)"/>
</svg>
