<svg width="298" height="28" viewBox="0 0 298 28" fill="none" xmlns="http://www.w3.org/2000/svg">
<mask id="path-1-outside-1" maskUnits="userSpaceOnUse" x="0" y="0" width="298" height="28" fill="black">
<rect fill="white" width="298" height="28"/>
<path d="M5.368 13.976C5.368 10.084 8.28 7.648 11.64 7.648C14.412 7.648 16.316 8.824 17.632 10.336V5.8C16.036 4.512 14.328 3.784 11.472 3.784C5.424 3.784 1 7.928 1 13.976C1 20.024 5.424 24.168 11.472 24.168C14.328 24.168 16.036 23.44 17.632 22.152V17.616C16.316 19.128 14.412 20.304 11.64 20.304C8.28 20.304 5.368 17.868 5.368 13.976Z"/>
<path d="M22.9888 4.176V23.776H27.0208V16.664H28.7568L33.3208 23.776H38.1088L32.7887 16.188C35.4487 15.292 36.9328 13.22 36.9328 10.448C36.9328 6.724 34.2448 4.176 29.5968 4.176H22.9888ZM29.3447 7.648C31.4167 7.648 32.7607 8.712 32.7607 10.56C32.7607 12.408 31.4167 13.472 29.3447 13.472H27.0208V7.648H29.3447Z"/>
<path d="M41.752 4.176V23.776H54.24V20.36H45.672V15.04H53.68V11.708H45.672V7.592H54.24V4.176H41.752Z"/>
<path d="M72.8296 23.776H77.3936L67.4256 3L57.4856 23.776H62.0496L64.0656 19.352H70.7856L72.8296 23.776ZM67.4256 10.56L69.8336 16.16H65.0176L67.4256 10.56Z"/>
<path d="M76.9905 7.816H82.2545V23.776H86.2865V7.816H91.5785V4.176H76.9905V7.816Z"/>
<path d="M95.2528 4.176V23.776H99.3408V4.176H95.2528Z"/>
<path d="M112.805 16.888L107.541 4.176H102.865L112.805 24.952L122.773 4.176H118.069L112.805 16.888Z"/>
<path d="M126.299 4.176V23.776H138.787V20.36H130.219V15.04H138.227V11.708H130.219V7.592H138.787V4.176H126.299Z"/>
<path d="M160.591 23.776C166.807 23.776 170.895 19.94 170.895 13.976C170.895 8.012 166.807 4.176 160.591 4.176H153.927V23.776H160.591ZM160.479 7.844C163.923 7.844 166.751 9.664 166.751 13.976C166.751 18.288 163.923 20.108 160.479 20.108H158.071V7.844H160.479Z"/>
<path d="M175.397 4.176V23.776H179.485V4.176H175.397Z"/>
<path d="M185.11 4.176V23.776H189.142V16.664H190.878L195.442 23.776H200.23L194.91 16.188C197.57 15.292 199.054 13.22 199.054 10.448C199.054 6.724 196.366 4.176 191.718 4.176H185.11ZM191.466 7.648C193.538 7.648 194.882 8.712 194.882 10.56C194.882 12.408 193.538 13.472 191.466 13.472H189.142V7.648H191.466Z"/>
<path d="M203.873 4.176V23.776H216.361V20.36H207.793V15.04H215.801V11.708H207.793V7.592H216.361V4.176H203.873Z"/>
<path d="M224.955 13.976C224.955 10.084 227.867 7.648 231.227 7.648C233.999 7.648 235.903 8.824 237.219 10.336V5.8C235.623 4.512 233.915 3.784 231.059 3.784C225.011 3.784 220.587 7.928 220.587 13.976C220.587 20.024 225.011 24.168 231.059 24.168C233.915 24.168 235.623 23.44 237.219 22.152V17.616C235.903 19.128 233.999 20.304 231.227 20.304C227.867 20.304 224.955 17.868 224.955 13.976Z"/>
<path d="M239.768 7.816H245.032V23.776H249.064V7.816H254.356V4.176H239.768V7.816Z"/>
<path d="M255.516 13.976C255.516 19.912 259.856 24.28 265.876 24.28C271.896 24.28 276.236 19.912 276.236 13.976C276.236 8.04 271.812 3.784 265.876 3.784C259.996 3.784 255.516 8.04 255.516 13.976ZM259.772 13.976C259.772 10.224 262.264 7.536 265.876 7.536C269.572 7.536 271.98 10.224 271.98 13.976C271.98 17.728 269.488 20.416 265.876 20.416C262.264 20.416 259.772 17.728 259.772 13.976Z"/>
<path d="M280.731 4.176V23.776H284.763V16.664H286.499L291.063 23.776H295.851L290.531 16.188C293.191 15.292 294.675 13.22 294.675 10.448C294.675 6.724 291.987 4.176 287.339 4.176H280.731ZM287.087 7.648C289.159 7.648 290.503 8.712 290.503 10.56C290.503 12.408 289.159 13.472 287.087 13.472H284.763V7.648H287.087Z"/>
</mask>
<path d="M5.368 13.976C5.368 10.084 8.28 7.648 11.64 7.648C14.412 7.648 16.316 8.824 17.632 10.336V5.8C16.036 4.512 14.328 3.784 11.472 3.784C5.424 3.784 1 7.928 1 13.976C1 20.024 5.424 24.168 11.472 24.168C14.328 24.168 16.036 23.44 17.632 22.152V17.616C16.316 19.128 14.412 20.304 11.64 20.304C8.28 20.304 5.368 17.868 5.368 13.976Z" fill="white"/>
<path d="M22.9888 4.176V23.776H27.0208V16.664H28.7568L33.3208 23.776H38.1088L32.7887 16.188C35.4487 15.292 36.9328 13.22 36.9328 10.448C36.9328 6.724 34.2448 4.176 29.5968 4.176H22.9888ZM29.3447 7.648C31.4167 7.648 32.7607 8.712 32.7607 10.56C32.7607 12.408 31.4167 13.472 29.3447 13.472H27.0208V7.648H29.3447Z" fill="white"/>
<path d="M41.752 4.176V23.776H54.24V20.36H45.672V15.04H53.68V11.708H45.672V7.592H54.24V4.176H41.752Z" fill="white"/>
<path d="M72.8296 23.776H77.3936L67.4256 3L57.4856 23.776H62.0496L64.0656 19.352H70.7856L72.8296 23.776ZM67.4256 10.56L69.8336 16.16H65.0176L67.4256 10.56Z" fill="white"/>
<path d="M76.9905 7.816H82.2545V23.776H86.2865V7.816H91.5785V4.176H76.9905V7.816Z" fill="white"/>
<path d="M95.2528 4.176V23.776H99.3408V4.176H95.2528Z" fill="white"/>
<path d="M112.805 16.888L107.541 4.176H102.865L112.805 24.952L122.773 4.176H118.069L112.805 16.888Z" fill="white"/>
<path d="M126.299 4.176V23.776H138.787V20.36H130.219V15.04H138.227V11.708H130.219V7.592H138.787V4.176H126.299Z" fill="white"/>
<path d="M160.591 23.776C166.807 23.776 170.895 19.94 170.895 13.976C170.895 8.012 166.807 4.176 160.591 4.176H153.927V23.776H160.591ZM160.479 7.844C163.923 7.844 166.751 9.664 166.751 13.976C166.751 18.288 163.923 20.108 160.479 20.108H158.071V7.844H160.479Z" fill="white"/>
<path d="M175.397 4.176V23.776H179.485V4.176H175.397Z" fill="white"/>
<path d="M185.11 4.176V23.776H189.142V16.664H190.878L195.442 23.776H200.23L194.91 16.188C197.57 15.292 199.054 13.22 199.054 10.448C199.054 6.724 196.366 4.176 191.718 4.176H185.11ZM191.466 7.648C193.538 7.648 194.882 8.712 194.882 10.56C194.882 12.408 193.538 13.472 191.466 13.472H189.142V7.648H191.466Z" fill="white"/>
<path d="M203.873 4.176V23.776H216.361V20.36H207.793V15.04H215.801V11.708H207.793V7.592H216.361V4.176H203.873Z" fill="white"/>
<path d="M224.955 13.976C224.955 10.084 227.867 7.648 231.227 7.648C233.999 7.648 235.903 8.824 237.219 10.336V5.8C235.623 4.512 233.915 3.784 231.059 3.784C225.011 3.784 220.587 7.928 220.587 13.976C220.587 20.024 225.011 24.168 231.059 24.168C233.915 24.168 235.623 23.44 237.219 22.152V17.616C235.903 19.128 233.999 20.304 231.227 20.304C227.867 20.304 224.955 17.868 224.955 13.976Z" fill="white"/>
<path d="M239.768 7.816H245.032V23.776H249.064V7.816H254.356V4.176H239.768V7.816Z" fill="white"/>
<path d="M255.516 13.976C255.516 19.912 259.856 24.28 265.876 24.28C271.896 24.28 276.236 19.912 276.236 13.976C276.236 8.04 271.812 3.784 265.876 3.784C259.996 3.784 255.516 8.04 255.516 13.976ZM259.772 13.976C259.772 10.224 262.264 7.536 265.876 7.536C269.572 7.536 271.98 10.224 271.98 13.976C271.98 17.728 269.488 20.416 265.876 20.416C262.264 20.416 259.772 17.728 259.772 13.976Z" fill="white"/>
<path d="M280.731 4.176V23.776H284.763V16.664H286.499L291.063 23.776H295.851L290.531 16.188C293.191 15.292 294.675 13.22 294.675 10.448C294.675 6.724 291.987 4.176 287.339 4.176H280.731ZM287.087 7.648C289.159 7.648 290.503 8.712 290.503 10.56C290.503 12.408 289.159 13.472 287.087 13.472H284.763V7.648H287.087Z" fill="white"/>
<path d="M5.368 13.976C5.368 10.084 8.28 7.648 11.64 7.648C14.412 7.648 16.316 8.824 17.632 10.336V5.8C16.036 4.512 14.328 3.784 11.472 3.784C5.424 3.784 1 7.928 1 13.976C1 20.024 5.424 24.168 11.472 24.168C14.328 24.168 16.036 23.44 17.632 22.152V17.616C16.316 19.128 14.412 20.304 11.64 20.304C8.28 20.304 5.368 17.868 5.368 13.976Z" stroke="white" stroke-width="2" mask="url(#path-1-outside-1)"/>
<path d="M22.9888 4.176V23.776H27.0208V16.664H28.7568L33.3208 23.776H38.1088L32.7887 16.188C35.4487 15.292 36.9328 13.22 36.9328 10.448C36.9328 6.724 34.2448 4.176 29.5968 4.176H22.9888ZM29.3447 7.648C31.4167 7.648 32.7607 8.712 32.7607 10.56C32.7607 12.408 31.4167 13.472 29.3447 13.472H27.0208V7.648H29.3447Z" stroke="white" stroke-width="2" mask="url(#path-1-outside-1)"/>
<path d="M41.752 4.176V23.776H54.24V20.36H45.672V15.04H53.68V11.708H45.672V7.592H54.24V4.176H41.752Z" stroke="white" stroke-width="2" mask="url(#path-1-outside-1)"/>
<path d="M72.8296 23.776H77.3936L67.4256 3L57.4856 23.776H62.0496L64.0656 19.352H70.7856L72.8296 23.776ZM67.4256 10.56L69.8336 16.16H65.0176L67.4256 10.56Z" stroke="white" stroke-width="2" mask="url(#path-1-outside-1)"/>
<path d="M76.9905 7.816H82.2545V23.776H86.2865V7.816H91.5785V4.176H76.9905V7.816Z" stroke="white" stroke-width="2" mask="url(#path-1-outside-1)"/>
<path d="M95.2528 4.176V23.776H99.3408V4.176H95.2528Z" stroke="white" stroke-width="2" mask="url(#path-1-outside-1)"/>
<path d="M112.805 16.888L107.541 4.176H102.865L112.805 24.952L122.773 4.176H118.069L112.805 16.888Z" stroke="white" stroke-width="2" mask="url(#path-1-outside-1)"/>
<path d="M126.299 4.176V23.776H138.787V20.36H130.219V15.04H138.227V11.708H130.219V7.592H138.787V4.176H126.299Z" stroke="white" stroke-width="2" mask="url(#path-1-outside-1)"/>
<path d="M160.591 23.776C166.807 23.776 170.895 19.94 170.895 13.976C170.895 8.012 166.807 4.176 160.591 4.176H153.927V23.776H160.591ZM160.479 7.844C163.923 7.844 166.751 9.664 166.751 13.976C166.751 18.288 163.923 20.108 160.479 20.108H158.071V7.844H160.479Z" stroke="white" stroke-width="2" mask="url(#path-1-outside-1)"/>
<path d="M175.397 4.176V23.776H179.485V4.176H175.397Z" stroke="white" stroke-width="2" mask="url(#path-1-outside-1)"/>
<path d="M185.11 4.176V23.776H189.142V16.664H190.878L195.442 23.776H200.23L194.91 16.188C197.57 15.292 199.054 13.22 199.054 10.448C199.054 6.724 196.366 4.176 191.718 4.176H185.11ZM191.466 7.648C193.538 7.648 194.882 8.712 194.882 10.56C194.882 12.408 193.538 13.472 191.466 13.472H189.142V7.648H191.466Z" stroke="white" stroke-width="2" mask="url(#path-1-outside-1)"/>
<path d="M203.873 4.176V23.776H216.361V20.36H207.793V15.04H215.801V11.708H207.793V7.592H216.361V4.176H203.873Z" stroke="white" stroke-width="2" mask="url(#path-1-outside-1)"/>
<path d="M224.955 13.976C224.955 10.084 227.867 7.648 231.227 7.648C233.999 7.648 235.903 8.824 237.219 10.336V5.8C235.623 4.512 233.915 3.784 231.059 3.784C225.011 3.784 220.587 7.928 220.587 13.976C220.587 20.024 225.011 24.168 231.059 24.168C233.915 24.168 235.623 23.44 237.219 22.152V17.616C235.903 19.128 233.999 20.304 231.227 20.304C227.867 20.304 224.955 17.868 224.955 13.976Z" stroke="white" stroke-width="2" mask="url(#path-1-outside-1)"/>
<path d="M239.768 7.816H245.032V23.776H249.064V7.816H254.356V4.176H239.768V7.816Z" stroke="white" stroke-width="2" mask="url(#path-1-outside-1)"/>
<path d="M255.516 13.976C255.516 19.912 259.856 24.28 265.876 24.28C271.896 24.28 276.236 19.912 276.236 13.976C276.236 8.04 271.812 3.784 265.876 3.784C259.996 3.784 255.516 8.04 255.516 13.976ZM259.772 13.976C259.772 10.224 262.264 7.536 265.876 7.536C269.572 7.536 271.98 10.224 271.98 13.976C271.98 17.728 269.488 20.416 265.876 20.416C262.264 20.416 259.772 17.728 259.772 13.976Z" stroke="white" stroke-width="2" mask="url(#path-1-outside-1)"/>
<path d="M280.731 4.176V23.776H284.763V16.664H286.499L291.063 23.776H295.851L290.531 16.188C293.191 15.292 294.675 13.22 294.675 10.448C294.675 6.724 291.987 4.176 287.339 4.176H280.731ZM287.087 7.648C289.159 7.648 290.503 8.712 290.503 10.56C290.503 12.408 289.159 13.472 287.087 13.472H284.763V7.648H287.087Z" stroke="white" stroke-width="2" mask="url(#path-1-outside-1)"/>
</svg>
