<svg width="232" height="267" viewBox="0 0 232 267" fill="none" xmlns="http://www.w3.org/2000/svg">
<path d="M39.7619 254.707C47.6767 245.205 47.1216 234.482 38.2012 227.051C29.2808 219.62 18.6335 221.012 10.7187 230.513L2.07813 240.885L31.1213 265.079L39.7619 254.707ZM16.7764 235.981C20.5091 231.5 25.9293 229.127 32.1528 234.312C38.3763 239.496 37.0223 245.256 33.2895 249.737L30.9047 252.599L14.3916 238.844L16.7764 235.981Z" fill="#A40E3B"/>
<path d="M30.8823 206.308L59.9255 230.501L75.997 211.208L70.2299 206.404L59.7921 218.934L53.1536 213.404L62.9002 201.704L57.216 196.969L47.4694 208.669L42.2832 204.349L52.721 191.819L46.9538 187.015L30.8823 206.308Z" fill="#A40E3B"/>
<path d="M76.6616 189.656L76.11 197.489C81.9318 199.106 89.1635 197.259 93.8986 191.574C98.4608 186.098 99.614 178.133 93.6809 173.19C88.9095 169.216 83.3716 170.295 78.5738 173.186C73.8106 176.035 70.8033 177.536 68.8117 175.877C67.5255 174.806 67.4353 172.974 69.0943 170.982C70.9607 168.742 73.816 168.098 76.962 168.54L78.4332 160.699C74.1671 159.746 68.0483 160.342 63.1751 166.192C58.4746 171.835 57.8536 178.908 63.0399 183.228C68.6826 187.928 75.0014 184.899 78.465 182.935C83.5324 180.058 85.6686 179.096 87.8261 180.893C89.6102 182.38 89.4793 184.73 87.7512 186.805C85.2972 189.751 81.3011 190.498 76.6616 189.656Z" fill="#A40E3B"/>
<path d="M80.2215 147.079L109.265 171.272L115.209 164.136L86.1662 139.942L80.2215 147.079Z" fill="#A40E3B"/>
<path d="M125.288 130.692L131.716 122.975C133.95 126.452 134.228 130.759 130.668 135.033C126.416 140.136 119.731 140.822 114.005 136.052C108.279 131.283 108.202 124.542 112.246 119.687C115.08 116.285 118.585 115.621 121.973 116.194L123.956 107.233C117.65 106.619 111.262 108.466 106.147 114.607C98.4394 123.859 98.6767 135.723 107.888 143.396C117.098 151.069 128.852 149.615 136.559 140.362C144.82 130.446 141.755 118.686 132.129 111.511L119.894 126.199L125.288 130.692Z" fill="#A40E3B"/>
<path d="M143.048 71.6589L159.353 85.2419L124.902 90.489L155.397 115.892L161.031 109.129L144.725 95.5464L179.177 90.2993L148.681 64.896L143.048 71.6589Z" fill="#A40E3B"/>
<path d="M157.217 54.6492L186.26 78.8428L202.332 59.5499L196.565 54.7457L186.127 67.2758L179.488 61.7458L189.235 50.0455L183.551 45.3105L173.804 57.0107L168.618 52.6904L179.056 40.1604L173.289 35.3562L157.217 54.6492Z" fill="#A40E3B"/>
<path d="M181.499 25.5006L210.542 49.6943L216.383 42.6824L206.342 34.3183L208.139 32.1609L223.364 34.3014L230.242 26.0448L212.999 24.4716C214.726 19.4448 213.232 14.8265 209.249 11.5086C203.648 6.84264 196.499 7.49388 190.312 14.9206L181.499 25.5006ZM195.872 20.3955C198.222 17.5741 201.008 17.0136 203.415 19.0182C205.821 21.0228 205.773 23.8645 203.423 26.6858L200.865 29.7561L193.314 23.4658L195.872 20.3955Z" fill="#A40E3B"/>
</svg>
