<svg width="103" height="103" viewBox="0 0 103 103" fill="none" xmlns="http://www.w3.org/2000/svg">
<circle cx="51.5" cy="51.5" r="51.5" fill="#FCF3F3"/>
<path d="M35.0426 51.1216C34.6141 51.5935 33.8842 51.6285 33.4123 51.2C32.9405 50.7714 32.9054 50.0415 33.334 49.5697C34.8545 47.8957 37.7358 46.8833 40.8926 46.8833C42.8519 46.8833 44.7172 47.2726 46.2224 47.9836C46.7987 48.2558 47.0453 48.9437 46.7731 49.52C46.5008 50.0964 45.813 50.3429 45.2366 50.0707C44.0509 49.5107 42.5219 49.1915 40.8926 49.1915C38.3347 49.1915 36.0743 49.9858 35.0426 51.1216Z" fill="black"/>
<path d="M20.4632 54.3038C20.3919 53.5035 20.3508 52.6945 20.3411 51.8779L36.6299 56.3203L36.5189 55.7655C36.391 55.1262 36.8177 54.508 37.4609 54.4008L51.3103 52.0926C51.4359 52.0716 51.5641 52.0716 51.6898 52.0926L65.5392 54.4008C66.1823 54.508 66.609 55.1262 66.4812 55.7655L66.3702 56.3203L82.659 51.8779C82.6493 52.6945 82.6082 53.5035 82.5368 54.3038L65.8641 58.8509L64.9343 63.4999L78.4988 67.0695C78.0942 67.7694 77.6633 68.4522 77.2072 69.1164L64.4808 65.7674L64.1729 67.3067C64.0893 67.7251 63.7816 68.0632 63.3729 68.1859L51.8317 71.6482C51.6153 71.7131 51.3847 71.7131 51.1684 71.6482L39.6272 68.1859C39.2185 68.0632 38.9108 67.7251 38.8271 67.3067L38.5193 65.7674L25.7928 69.1164C25.3368 68.4522 24.9058 67.7694 24.5013 67.0695L38.0657 63.4999L37.136 58.8509L20.4632 54.3038ZM40.9546 66.1742L51.5 69.3378L62.0455 66.1742L63.984 56.4817L51.5 54.401L39.0161 56.4817L40.9546 66.1742Z" fill="black"/>
<path d="M57.7635 50.0707C57.1871 50.3429 56.4992 50.0964 56.227 49.52C55.9548 48.9437 56.2014 48.2558 56.7777 47.9836C58.2829 47.2726 60.1482 46.8833 62.1075 46.8833C65.2643 46.8833 68.1456 47.8957 69.6661 49.5697C70.0947 50.0415 70.0596 50.7714 69.5878 51.2C69.1159 51.6285 68.386 51.5935 67.9575 51.1216C66.9258 49.9858 64.6654 49.1915 62.1075 49.1915C60.4782 49.1915 58.9492 49.5107 57.7635 50.0707Z" fill="black"/>
<path d="M51.4999 83.8152C69.3472 83.8152 83.8152 69.3472 83.8152 51.4999C83.8152 33.6526 69.3472 19.1846 51.4999 19.1846C33.6526 19.1846 19.1846 33.6526 19.1846 51.4999C19.1846 69.3472 33.6526 83.8152 51.4999 83.8152ZM51.4999 81.507C34.9274 81.507 21.4928 68.0724 21.4928 51.4999C21.4928 34.9274 34.9274 21.4928 51.4999 21.4928C68.0724 21.4928 81.507 34.9274 81.507 51.4999C81.507 68.0724 68.0724 81.507 51.4999 81.507Z" fill="black"/>
</svg>
