<svg width="374" height="88" viewBox="0 0 374 88" fill="none" xmlns="http://www.w3.org/2000/svg">
<path d="M0 5.21045L0 83.3754H20.7695V54.0077H48.5739V36.9231H20.7695V23.7467L49.6905 23.7467V5.21045L0 5.21045Z" fill="#FAFAFA"/>
<path d="M55.646 5.21045L55.646 83.3754H77.3088V57.5809H81.9987L97.2967 83.3754H122.644L102.992 54.6777C113.153 50.4344 117.955 41.948 117.955 31.3399C117.955 16.0419 107.793 5.21045 86.3536 5.21045L55.646 5.21045ZM84.567 23.5234C91.4902 23.5234 95.2868 26.65 95.2868 32.2332C95.2868 37.8164 91.4902 40.943 84.567 40.943H77.3088V23.5234H84.567Z" fill="#FAFAFA"/>
<path d="M189.233 83.4131H213.8L171.256 0L128.6 83.4131H153.278L159.642 70.9067H182.645L189.233 83.4131ZM171.256 37.4075L178.849 54.8271H163.551L171.256 37.4075Z" fill="#FAFAFA"/>
<path d="M272.126 5.39701V45.0378L219.755 1.48877V83.5619H240.525V43.9211L293.007 87.4701V5.39701H272.126Z" fill="#FAFAFA"/>
<path d="M298.962 5.21045V83.3754H321.518V50.4344L347.647 83.3754H374L341.171 41.8363L372.213 5.21045L346.866 5.21045L321.518 35.1364V5.21045L298.962 5.21045Z" fill="#FAFAFA"/>
</svg>
