<svg width="428" height="100" viewBox="0 0 428 100" fill="none" xmlns="http://www.w3.org/2000/svg">
<path d="M0 5.95703L0 95.3187H23.7447V61.7442H55.5319V42.2123H23.7447L23.7447 27.1485L56.8085 27.1485V5.95703L0 5.95703Z" fill="#FAFAFA"/>
<path d="M63.6169 5.95703L63.6169 95.3187H88.3829V65.8293H93.7446L111.234 95.3187H140.213L117.745 62.5102C129.362 57.6591 134.851 47.957 134.851 35.8294C134.851 18.34 123.234 5.95703 98.7233 5.95703L63.6169 5.95703ZM96.6808 26.8932C104.596 26.8932 108.936 30.4677 108.936 36.8506C108.936 43.2336 104.596 46.8081 96.6808 46.8081H88.3829V26.8932L96.6808 26.8932Z" fill="#FAFAFA"/>
<path d="M216.34 95.3616H244.425L195.787 0L147.021 95.3616H175.234L182.511 81.0638H208.808L216.34 95.3616ZM195.787 42.7659L204.468 62.6808H186.979L195.787 42.7659Z" fill="#FAFAFA"/>
<path d="M311.106 6.17023V51.4893L251.234 1.70215V95.5319H274.979V50.2128L334.979 100V6.17023L311.106 6.17023Z" fill="#FAFAFA"/>
<path d="M341.787 5.95703V95.3187H367.574V57.6591L397.446 95.3187H427.574L390.042 47.8294L425.531 5.95703L396.553 5.95703L367.574 40.1698V5.95703L341.787 5.95703Z" fill="#FAFAFA"/>
</svg>
