<svg width="503" height="118" viewBox="0 0 503 118" fill="none" xmlns="http://www.w3.org/2000/svg">
<path d="M0 7L0 112H27.9L27.9 72.55H65.25V49.6L27.9 49.6L27.9 31.9L66.75 31.9V7L0 7Z" fill="#FAFAFA"/>
<path d="M74.75 7V112H103.85V77.35H110.15L130.7 112H164.75L138.35 73.45C152 67.75 158.45 56.35 158.45 42.1C158.45 21.55 144.8 7 116 7L74.75 7ZM113.6 31.6C122.9 31.6 128 35.8 128 43.3C128 50.8 122.9 55 113.6 55H103.85V31.6L113.6 31.6Z" fill="#FAFAFA"/>
<path d="M254.2 112.05H287.2L230.05 0L172.75 112.05H205.9L214.45 95.25H245.35L254.2 112.05ZM230.05 50.25L240.25 73.65H219.7L230.05 50.25Z" fill="#FAFAFA"/>
<path d="M365.55 7.25V60.5L295.2 2V112.25H323.1V59L393.6 117.5V7.25L365.55 7.25Z" fill="#FAFAFA"/>
<path d="M401.6 7V112H431.9V67.75L467 112H502.4L458.3 56.2L500 7L465.95 7L431.9 47.2V7L401.6 7Z" fill="#FAFAFA"/>
</svg>
