<svg width="401" height="108" viewBox="0 0 401 108" fill="none" xmlns="http://www.w3.org/2000/svg">
<g filter="url(#filter0_d)">
<path d="M4.67212 6.72222V94.9575H28.1175V61.8063H59.5041V42.5205H28.1175V27.6466H60.7646V6.72222H4.67212ZM66.3531 6.72222V94.9575H90.8066V65.8399H96.1007L113.37 94.9575H141.983L119.798 62.5626C131.269 57.7726 136.689 48.1928 136.689 36.218C136.689 18.9491 125.218 6.72222 101.017 6.72222H66.3531ZM98.9999 27.3945C106.815 27.3945 111.101 30.9239 111.101 37.2264C111.101 43.5289 106.815 47.0584 98.9999 47.0584H90.8066V27.3945H98.9999ZM200.074 94.9575H227.805L179.78 0.797852L131.628 94.9575H159.486L166.67 80.8399H192.637L200.074 94.9575ZM179.78 43.0247L188.351 62.6886H171.082L179.78 43.0247ZM282.995 6.72222V51.4701L223.877 2.31046V94.9575H247.323V50.2096L306.566 99.3693V6.72222H282.995ZM311.965 6.72222V94.9575H337.427V57.7726L366.923 94.9575H396.67L359.612 48.0668L394.654 6.72222H366.04L337.427 40.5037V6.72222H311.965Z" fill="url(#paint0_linear)"/>
</g>
<defs>
<filter id="filter0_d" x="0" y="0" width="401.277" height="108" filterUnits="userSpaceOnUse" color-interpolation-filters="sRGB">
<feFlood flood-opacity="0" result="BackgroundImageFix"/>
<feColorMatrix in="SourceAlpha" type="matrix" values="0 0 0 0 0 0 0 0 0 0 0 0 0 0 0 0 0 0 127 0"/>
<feOffset dy="4"/>
<feGaussianBlur stdDeviation="2"/>
<feColorMatrix type="matrix" values="0 0 0 0 0 0 0 0 0 0 0 0 0 0 0 0 0 0 0.25 0"/>
<feBlend mode="normal" in2="BackgroundImageFix" result="effect1_dropShadow"/>
<feBlend mode="normal" in="SourceGraphic" in2="effect1_dropShadow" result="shape"/>
</filter>
<linearGradient id="paint0_linear" x1="4.00002" y1="16.7142" x2="373.681" y2="100.286" gradientUnits="userSpaceOnUse">
<stop stop-color="#FFA7A7"/>
<stop offset="0.364557" stop-color="#FF8686"/>
<stop offset="1" stop-color="#FF9A9A"/>
</linearGradient>
</defs>
</svg>
