<svg width="440" height="129" viewBox="0 0 440 129" fill="none" xmlns="http://www.w3.org/2000/svg">
<path d="M67.629 79.5262H32.2725V126H0.561V5.715H32.2725V51.9154H67.629V5.715H99.1583V126H67.629V79.5262ZM145.36 95.1086C145.603 97.1134 146.393 98.8751 147.729 100.394C149.127 101.852 150.949 103.006 153.197 103.857C155.505 104.646 158.209 105.041 161.307 105.041C164.344 105.041 167.2 104.829 169.873 104.403C172.546 103.917 174.915 103.279 176.98 102.49C179.107 101.7 180.777 100.819 181.992 99.8471L193.93 119.895C192.593 121.049 190.588 122.264 187.915 123.54C185.242 124.815 181.567 125.909 176.889 126.82C172.272 127.731 166.349 128.187 159.12 128.187C150.736 128.187 143.203 126.699 136.521 123.722C129.838 120.745 124.553 116.28 120.665 110.326C116.777 104.312 114.833 96.8096 114.833 87.8186C114.833 80.5286 116.473 73.9676 119.754 68.1356C123.034 62.2429 127.773 57.5955 133.969 54.1935C140.166 50.7307 147.669 48.9994 156.477 48.9994C164.922 48.9994 172.242 50.4877 178.438 53.4645C184.635 56.3805 189.404 60.8152 192.745 66.7687C196.086 72.7222 197.757 80.2552 197.757 89.3677C197.757 89.8537 197.727 90.8257 197.666 92.2837C197.666 93.7417 197.605 94.6834 197.484 95.1086H145.36ZM167.412 80.5286C167.352 78.5239 166.896 76.7317 166.045 75.1522C165.256 73.5727 164.101 72.3274 162.583 71.4161C161.064 70.5049 159.211 70.0492 157.024 70.0492C154.898 70.0492 153.015 70.4745 151.374 71.325C149.734 72.1755 148.458 73.3905 147.547 74.97C146.636 76.4887 146.119 78.3416 145.998 80.5286H167.412ZM242.925 126H210.576V0.611996H242.925V126ZM290.801 126H258.452V0.611996H290.801V126ZM346.15 128.187C337.766 128.187 330.324 126.516 323.824 123.175C317.324 119.834 312.221 115.217 308.515 109.324C304.809 103.371 302.956 96.5362 302.956 88.821C302.956 81.1057 304.809 74.2714 308.515 68.3179C312.221 62.3036 317.324 57.5955 323.824 54.1935C330.324 50.7307 337.766 48.9994 346.15 48.9994C354.472 48.9994 361.823 50.7307 368.202 54.1935C374.641 57.5955 379.653 62.3036 383.238 68.3179C386.883 74.2714 388.705 81.1057 388.705 88.821C388.705 96.5362 386.883 103.371 383.238 109.324C379.653 115.217 374.641 119.834 368.202 123.175C361.823 126.516 354.472 128.187 346.15 128.187ZM346.15 101.852C348.64 101.852 350.797 101.335 352.62 100.303C354.442 99.2092 355.839 97.6601 356.811 95.6554C357.783 93.6506 358.269 91.3117 358.269 88.6387C358.269 86.0265 357.783 83.718 356.811 81.7132C355.839 79.7085 354.442 78.1594 352.62 77.0659C350.797 75.9116 348.64 75.3345 346.15 75.3345C343.598 75.3345 341.411 75.9116 339.589 77.0659C337.766 78.1594 336.339 79.7085 335.306 81.7132C334.273 83.718 333.757 86.0265 333.757 88.6387C333.757 91.3117 334.273 93.6506 335.306 95.6554C336.339 97.6601 337.766 99.2092 339.589 100.303C341.411 101.335 343.598 101.852 346.15 101.852ZM410.386 84.5381L403.916 0.611996H438.452L432.073 84.5381H410.386ZM421.138 128.187C417.858 128.187 414.82 127.367 412.026 125.727C409.292 124.086 407.105 121.899 405.465 119.166C403.825 116.432 403.005 113.394 403.005 110.053C403.005 104.95 404.766 100.606 408.29 97.0222C411.874 93.438 416.157 91.6459 421.138 91.6459C426.241 91.6459 430.555 93.438 434.078 97.0222C437.662 100.606 439.455 104.95 439.455 110.053C439.455 115.035 437.662 119.317 434.078 122.902C430.555 126.425 426.241 128.187 421.138 128.187Z" fill="white"/>
</svg>
