<svg width="174" height="174" viewBox="0 0 174 174" fill="none" xmlns="http://www.w3.org/2000/svg">
<circle cx="87" cy="87" r="87" fill="#41DD7C"/>
<path d="M86.0808 161.539C44.9552 161.539 11.6426 128.225 11.6426 87.1008C11.6426 45.9763 44.9563 12.6626 86.0808 12.6626C127.206 12.664 160.519 45.9778 160.519 87.1045C160.519 128.231 127.207 161.543 86.0808 161.543V161.539ZM86.0808 19.5563C48.8617 19.5563 18.5362 49.8828 18.5362 87.1008C18.5362 124.32 48.8628 154.645 86.0808 154.645C123.299 154.645 153.625 124.319 153.625 87.1008C153.625 49.8817 123.299 19.5563 86.0808 19.5563V19.5563ZM86.0808 142.929C59.66 142.929 36.6842 124.09 31.4005 98.1299C30.711 95.1429 31.6298 92.1557 33.4688 89.8598C35.3063 87.5621 38.0639 86.1833 41.0511 86.1833H131.344C134.331 86.1833 137.088 87.5621 138.927 89.8598C140.764 92.1574 141.454 94.9139 140.995 97.9006V98.3607C135.707 124.091 112.503 142.931 86.082 142.931L86.0808 142.929ZM41.0486 93.304C39.9005 93.304 39.2111 93.9934 38.751 94.4521C38.2909 95.1415 38.0615 96.0603 38.0615 96.9791C42.6567 119.725 62.8739 136.037 86.0771 136.037C109.28 136.037 129.499 119.495 134.093 96.7502V96.2901C134.322 95.6006 133.863 94.6818 133.403 94.4525C132.943 93.7631 132.024 93.3044 131.106 93.3044L41.0486 93.304ZM51.158 73.5454C50.0099 71.9372 50.4685 69.8689 52.0767 68.7209L64.9424 60.22L51.1581 50.3414C49.5499 49.1933 49.3205 47.125 50.2393 45.517C51.3874 43.9087 53.4557 43.6794 55.0638 44.5982L71.3767 56.0848C72.7555 57.0036 73.445 58.6118 73.445 60.2199C73.445 61.828 72.5262 63.4363 71.1473 64.355L55.7546 74.6936C54.3742 75.6124 52.0766 75.1537 51.1579 73.5455L51.158 73.5454ZM121.001 73.5454C119.853 75.1536 117.785 75.6137 116.177 74.4642L100.783 64.3548C99.4042 63.436 98.7147 62.0572 98.4854 60.2197C98.4854 58.6115 99.1749 57.0033 100.554 56.0846L116.867 44.598C118.475 43.4499 120.543 43.9086 121.691 45.5168C122.839 47.125 122.381 49.1933 120.772 50.3413L106.757 60.2198L119.623 68.7208C121.691 69.8689 122.15 71.9372 121.002 73.5452L121.001 73.5454Z" fill="black"/>
</svg>
