<svg width="88" height="88" viewBox="0 0 88 88" fill="none" xmlns="http://www.w3.org/2000/svg">
<path d="M21.7191 43.4881C21.1389 44.1268 20.1507 44.1743 19.512 43.5941C18.8732 43.0139 18.8257 42.0257 19.4059 41.3869C21.4644 39.1206 25.3652 37.75 29.6391 37.75C32.2917 37.75 34.817 38.2771 36.8548 39.2396C37.6351 39.6081 37.9689 40.5395 37.6003 41.3197C37.2318 42.1 36.3005 42.4338 35.5202 42.0653C33.915 41.3071 31.8449 40.875 29.6391 40.875C26.1761 40.875 23.1159 41.9503 21.7191 43.4881Z" fill="white"/>
<path d="M1.98084 47.796C1.88421 46.7125 1.82858 45.6172 1.81543 44.5117L23.868 50.5261L23.7177 49.775C23.5446 48.9094 24.1223 48.0724 24.993 47.9273L43.743 44.8023C43.9131 44.774 44.0867 44.774 44.2568 44.8023L63.0068 47.9273C63.8774 48.0724 64.4552 48.9094 64.2821 49.775L64.1318 50.5261L86.1843 44.5117C86.1712 45.6172 86.1155 46.7125 86.0189 47.796L63.4466 53.952L62.1878 60.2461L80.552 65.0787C80.0043 66.0264 79.4209 66.9508 78.8035 67.85L61.5739 63.3159L61.1571 65.4C61.0438 65.9664 60.6272 66.4241 60.0739 66.5901L44.4489 71.2776C44.156 71.3655 43.8438 71.3655 43.5509 71.2776L27.9259 66.5901C27.3726 66.4241 26.956 65.9664 26.8427 65.4L26.4259 63.3159L9.1963 67.85C8.57889 66.9508 7.99541 66.0264 7.44773 65.0787L25.8119 60.2461L24.5531 53.952L1.98084 47.796ZM29.7229 63.8667L43.9999 68.1497L58.2768 63.8667L60.9012 50.7445L43.9999 47.9276L27.0985 50.7445L29.7229 63.8667Z" fill="white"/>
<path d="M52.4796 42.0653C51.6994 42.4338 50.7681 42.1 50.3995 41.3197C50.031 40.5395 50.3648 39.6081 51.1451 39.2396C53.1829 38.2771 55.7082 37.75 58.3608 37.75C62.6346 37.75 66.5355 39.1206 68.594 41.3869C69.1742 42.0257 69.1267 43.0139 68.4879 43.5941C67.8492 44.1743 66.861 44.1268 66.2807 43.4881C64.884 41.9503 61.8238 40.875 58.3608 40.875C56.155 40.875 54.0849 41.3071 52.4796 42.0653Z" fill="white"/>
<path d="M44 87.75C68.1625 87.75 87.75 68.1625 87.75 44C87.75 19.8375 68.1625 0.25 44 0.25C19.8375 0.25 0.25 19.8375 0.25 44C0.25 68.1625 19.8375 87.75 44 87.75ZM44 84.625C21.5634 84.625 3.375 66.4366 3.375 44C3.375 21.5634 21.5634 3.375 44 3.375C66.4366 3.375 84.625 21.5634 84.625 44C84.625 66.4366 66.4366 84.625 44 84.625Z" fill="white"/>
</svg>
