<svg width="28" height="95" viewBox="0 0 28 95" fill="none" xmlns="http://www.w3.org/2000/svg">
<g clip-path="url(#clip0)">
<path d="M14.7549 29.2699L15.7739 29.2379L15.8379 28.7279L15.9339 28.0599L16.5059 27.1369L16.9519 26.4049L18.0499 25.6089L20.1029 24.5109L20.4849 23.7949L20.9149 22.6489L22.1079 20.1669L22.4899 19.2599L23.3489 18.4949L23.6359 17.6359L23.7319 16.8719L23.3969 15.5349L23.1579 13.4829L22.5379 10.1409L21.7899 7.68986L20.9629 7.65786L19.4019 7.46686L18.8299 7.40386L18.1929 6.35386L18.0029 5.78086L18.2579 5.14486L18.3529 4.76286L18.2899 4.09486L18.6399 3.93586L19.1819 4.12686L19.4039 4.60386L19.3409 5.14586L19.4679 5.78186L19.7549 5.68686L20.3269 5.46386L20.9309 5.33586L21.6629 5.39986L21.9489 5.17686L21.7259 4.60386L21.5349 3.93586L21.1529 3.39486C21.1529 3.39486 20.3569 2.12186 20.2619 2.12186C20.1659 2.12186 19.9109 1.42186 19.9749 1.29486C20.0389 1.16786 20.3259 0.402863 20.3259 0.402863L20.8669 -0.265137H21.7589L22.2679 0.179863L22.9359 0.847863L23.7009 1.80286L24.4009 3.36286L24.8779 4.60386L25.0689 6.10086L25.0059 6.92786L24.7199 7.56486L24.7509 8.10586L24.4339 8.83786L24.3059 9.21986L24.6569 9.79286L25.1019 10.7799L25.4189 11.4169L26.2469 13.3259L27.4079 16.6839L27.9019 17.9259L27.6949 18.6889L27.0259 19.4529L26.1679 20.9809L25.5469 22.6519L25.1169 23.7979L24.1619 25.2299L23.5899 26.4709L22.6349 28.0469L22.2049 28.7629L22.0609 30.0519L21.7269 31.2449L21.3449 32.5349L20.9629 33.7279L20.7719 35.6859L20.1999 37.4999L19.7699 38.9789L19.5789 40.8409L18.9099 42.3199L18.4799 44.7389L18.3529 47.6669L18.4169 49.3209L19.1809 51.1669L20.0079 52.5669L20.5809 54.2229L22.0139 56.9769L22.7779 58.7899C22.7779 58.7899 23.3979 60.7469 23.3979 60.8919C23.3979 61.0349 23.6369 63.5659 23.6369 63.5659L23.7799 66.1909L23.8279 68.6729L23.5419 71.2999L23.7329 74.0849L23.9869 75.0709L24.4329 76.6299L24.8459 78.3489L25.2279 80.6729L25.4519 82.6139V84.4909L25.5789 86.2739L25.7379 88.2779L25.9929 88.8519L26.3749 89.4239L26.6289 90.0609L27.3609 90.5059L27.6789 91.1429L27.9019 91.6839L27.7749 92.1139H23.6049L23.1209 91.8759L22.8399 91.4299L22.7769 90.7309C22.7769 90.7309 22.9359 90.2209 23.0629 90.0609C23.1899 89.9009 23.0629 89.3289 23.0629 89.3289C23.0629 89.3289 22.8399 88.3109 22.8719 88.2159C22.9039 88.1199 22.6179 87.1009 22.6179 87.1009L22.3949 84.9999V83.5679L21.5349 82.6439L20.3889 81.0209L19.7209 79.9389L19.3709 79.0799L19.3389 78.4429L19.3709 77.4249L19.6249 75.9909L19.8479 74.8129L20.0709 73.8579V73.3169L19.4029 72.7449L18.8299 72.0439L18.2579 71.1529L17.7159 70.2619L17.3989 69.1489L17.1439 68.0029L16.7609 66.2369L16.4749 64.6609L16.0929 63.3719L15.7109 61.7959L15.3289 60.7449L14.9949 60.0769L14.7089 60.3169L14.3259 61.3189L14.0399 62.3699L13.5619 63.0849L13.2759 64.0889L12.9419 65.4739L12.5119 67.1439L12.2249 68.3369L11.7949 69.1959L11.6519 70.8679L11.4129 71.7269L11.1269 72.7289L11.2219 74.0179L11.3659 75.7839L11.6039 77.4559V78.6959L11.0309 80.2719L10.4099 81.5609L9.5029 82.6119L8.8349 83.6139L8.7869 84.4729L8.4999 85.9529L8.2139 88.1479L7.7129 89.5329V90.5839V91.7299L7.0679 92.1109H0.0979004L0.527901 91.5389L1.7209 91.0599L3.2959 90.0109H4.8239L4.7769 88.9129L4.7289 87.7669L4.6819 85.9039L5.1589 84.1379L5.3979 82.6579L5.9219 80.6539C5.9219 80.6539 6.1609 79.2689 6.2559 79.0779C6.3509 78.8869 6.3999 77.3589 6.3999 77.3589L6.8299 75.4999L7.1169 72.9689V71.7759L6.4489 70.4869L6.2109 69.0549L6.0179 68.0999L5.7319 66.5239L5.8759 64.2819L6.7029 60.2699L6.8299 59.3149L6.3209 58.5829L5.6529 57.2469L4.6339 55.0179L3.9339 53.0769L3.2659 51.4869L3.1699 49.6079L3.3929 47.9519L3.6469 46.2659L3.6789 44.2919L3.4249 41.8409L3.1699 40.7269L2.2469 38.7539L1.2919 36.3349L1.1009 34.2349L1.5149 32.2929L1.9919 29.8099L2.5009 28.7909L3.4249 28.0589L4.3159 27.9319L5.3029 28.2499L6.9259 28.5359L8.5259 29.0219L10.2919 29.2369L11.1279 28.7839L11.5339 28.0909C11.5339 28.0909 11.4389 26.7779 11.4389 26.6819C11.4389 26.5869 11.4389 25.0359 11.4389 25.0359L11.1049 23.6749C11.1049 23.6749 10.7709 21.9809 10.7229 21.8849C10.6749 21.7899 10.5559 20.4999 10.5559 20.4999C10.5559 20.4999 10.7939 19.1399 10.7939 19.0669C10.7939 18.9959 11.7489 17.9459 11.7489 17.9459L12.9419 17.4679H13.8019L14.6609 18.0409L15.1849 19.1629L15.3289 19.8779L15.1129 22.0999L14.8979 23.3179L14.6349 24.0329L14.2059 25.8709L13.7879 27.2319L13.6809 28.1859L13.8959 29.2369L14.7549 29.2699ZM6.5919 38.8929L6.4009 39.5969L6.6389 42.9389L6.4009 44.8969L6.6389 49.0979V50.7209L7.6889 52.3439L8.1659 53.8729L8.2139 54.8279L8.6909 55.2089L9.4069 53.6349L10.4579 50.2439L9.8369 48.2859L9.1689 45.6609L8.5479 43.1309L8.2149 41.8889L7.3549 39.9789L6.9249 38.6419L6.5919 38.8929Z" fill="white"/>
</g>
<defs>
<clipPath id="clip0">
<rect width="28" height="95" fill="white"/>
</clipPath>
</defs>
</svg>
