<svg width="92" height="92" viewBox="0 0 92 92" fill="none" xmlns="http://www.w3.org/2000/svg">
<circle cx="46" cy="46" r="46" fill="white"/>
<path d="M61.6375 32.0293L62.4265 32.0044L62.476 31.6067L62.5503 31.0858L62.9932 30.3662L63.3385 29.7954L64.1886 29.1747L65.7781 28.3186L66.0738 27.7603L66.4067 26.8667L67.3304 24.9314L67.6261 24.2242L68.2912 23.6277L68.5134 22.9579L68.5877 22.3622L68.3283 21.3197L68.1433 19.7197L67.6633 17.1139L67.0842 15.2028L66.4439 15.1778L65.2353 15.0289L64.7925 14.9797L64.2993 14.161L64.1522 13.7142L64.3496 13.2183L64.4232 12.9205L64.3744 12.3996L64.6454 12.2756L65.065 12.4246L65.2369 12.7965L65.1881 13.2191L65.2864 13.715L65.5086 13.641L65.9515 13.4671L66.4191 13.3673L66.9858 13.4172L67.2073 13.2433L67.0346 12.7965L66.8867 12.2756L66.591 11.8538C66.591 11.8538 65.9747 10.8612 65.9012 10.8612C65.8268 10.8612 65.6294 10.3154 65.679 10.2164C65.7285 10.1174 65.9507 9.52086 65.9507 9.52086L66.3696 9H67.0602L67.4542 9.34698L67.9714 9.86784L68.5637 10.6125L69.1057 11.8289L69.475 12.7965L69.6228 13.9638L69.5741 14.6086L69.3526 15.1053L69.3766 15.5271L69.1312 16.0979L69.0321 16.3957L69.3039 16.8425L69.6484 17.6121L69.8938 18.1088L70.5349 19.5973L71.4337 22.2156L71.8162 23.1841L71.6559 23.779L71.138 24.3747L70.4737 25.5661L69.9929 26.8691L69.66 27.7626L68.9206 28.8792L68.4778 29.8469L67.7384 31.0757L67.4055 31.634L67.294 32.6391L67.0354 33.5693L66.7396 34.5751L66.4439 35.5054L66.296 37.0321L65.8532 38.4465L65.5202 39.5997L65.3724 41.0516L64.8544 42.2048L64.5215 44.091L64.4232 46.374L64.4727 47.6637L65.0642 49.1031L65.7045 50.1947L66.1481 51.4859L67.2576 53.6333L67.8491 55.0469C67.8491 55.0469 68.3291 56.5729 68.3291 56.6859C68.3291 56.7974 68.5142 58.7709 68.5142 58.7709L68.6249 60.8177L68.662 62.753L68.4406 64.8014L68.5885 66.9729L68.7851 67.7417L69.1304 68.9573L69.4502 70.2977L69.7459 72.1098L69.9194 73.6232V75.0868L70.0177 76.477L70.1408 78.0396L70.3382 78.4872L70.634 78.9332L70.8306 79.4299L71.3973 79.7769L71.6435 80.2735L71.8162 80.6954L71.7179 81.0307H68.4894L68.1147 80.8451L67.8971 80.4973L67.8483 79.9523C67.8483 79.9523 67.9714 79.5546 68.0698 79.4299C68.1681 79.3051 68.0698 78.8591 68.0698 78.8591C68.0698 78.8591 67.8971 78.0654 67.9219 77.9913C67.9467 77.9164 67.7252 77.1219 67.7252 77.1219L67.5526 75.4837V74.3671L66.8867 73.6466L65.9995 72.3811L65.4823 71.5375L65.2113 70.8677L65.1866 70.371L65.2113 69.5772L65.408 68.4591L65.5806 67.5406L65.7533 66.7959V66.3741L65.2361 65.9281L64.7925 65.3815L64.3496 64.6867L63.93 63.992L63.6846 63.1242L63.4871 62.2306L63.1906 60.8536L62.9692 59.6247L62.6734 58.6197L62.3777 57.3908L62.0819 56.5713L61.8233 56.0505L61.6019 56.2376L61.3054 57.0189L61.084 57.8384L60.7139 58.3959L60.4925 59.1787L60.2339 60.2587L59.901 61.5608L59.6788 62.491L59.3458 63.1608L59.2351 64.4645L59.0501 65.1343L58.8287 65.9156L58.9022 66.9207L59.0137 68.2977L59.198 69.6014V70.5682L58.7543 71.7971L58.2735 72.8022L57.5713 73.6217L57.0542 74.403L57.017 75.0727L56.7948 76.2267L56.5734 77.9383L56.1855 79.0182V79.8377V80.7312L55.6861 81.0283H50.2898L50.6227 80.5823L51.5464 80.2088L52.7658 79.3909H53.9488L53.9124 78.5347L53.8752 77.6412L53.8388 76.1885L54.2081 74.8115L54.3932 73.6575L54.7989 72.095C54.7989 72.095 54.9839 71.015 55.0574 70.8661C55.131 70.7172 55.1689 69.5257 55.1689 69.5257L55.5018 68.0762L55.724 66.1027V65.1725L55.2069 64.1674L55.0226 63.0509L54.8732 62.3062L54.6517 61.0774L54.7632 59.3292L55.4035 56.2009L55.5018 55.4563L55.1078 54.8855L54.5906 53.8438L53.8017 52.1058L53.2597 50.5923L52.7425 49.3526L52.6682 47.8875L52.8409 46.5962L53.0375 45.2816L53.0623 43.7424L52.8656 41.8313L52.6682 40.9627L51.9536 39.4243L51.2142 37.5381L51.0663 35.9007L51.3869 34.3864L51.7562 32.4504L52.1502 31.6558L52.8656 31.0851L53.5555 30.986L54.3196 31.234L55.5762 31.457L56.8149 31.8359L58.1822 32.0036L58.8294 31.6504L59.1438 31.11C59.1438 31.11 59.0702 30.0862 59.0702 30.0114C59.0702 29.9373 59.0702 28.7279 59.0702 28.7279L58.8116 27.6667C58.8116 27.6667 58.553 26.3459 58.5159 26.271C58.4787 26.1969 58.3866 25.1911 58.3866 25.1911C58.3866 25.1911 58.5708 24.1307 58.5708 24.0737C58.5708 24.0184 59.3102 23.1997 59.3102 23.1997L60.2339 22.8269H60.8997L61.5648 23.2737L61.9704 24.1486L62.0819 24.7061L61.9147 26.4387L61.7482 27.3884L61.5446 27.9459L61.2125 29.379L60.8889 30.4402L60.806 31.1841L60.9725 32.0036L61.6375 32.0293ZM55.3176 39.5327L55.1697 40.0816L55.354 42.6874L55.1697 44.2142L55.354 47.4898V48.7553L56.1669 50.0208L56.5362 51.213L56.5734 51.9577L56.9427 52.2547L57.497 51.0274L58.3107 48.3834L57.8299 46.8567L57.3127 44.8099L56.832 42.8372L56.5741 41.8687L55.9083 40.3794L55.5754 39.3369L55.3176 39.5327Z" fill="#171717"/>
<path d="M41.6769 39.3513L42.3444 39.3301L42.3864 38.9919L42.4493 38.5488L42.824 37.9367L43.1162 37.4512L43.8355 36.9233L45.1804 36.1951L45.4307 35.7202L45.7124 34.9602L46.4939 33.3141L46.7442 32.7125L47.3069 32.2052L47.4949 31.6355L47.5578 31.1288L47.3383 30.242L47.1818 28.8811L46.7756 26.6646L46.2856 25.0391L45.7438 25.0179L44.7212 24.8912L44.3465 24.8494L43.9291 24.153L43.8047 23.773L43.9717 23.3512L44.034 23.0978L43.9927 22.6548L44.222 22.5494L44.5771 22.676L44.7225 22.9924L44.6812 23.3519L44.7644 23.7737L44.9524 23.7107L45.3272 23.5628L45.7228 23.4779L46.2024 23.5203L46.3897 23.3724L46.2436 22.9924L46.1185 22.5494L45.8683 22.1906C45.8683 22.1906 45.3468 21.3463 45.2846 21.3463C45.2217 21.3463 45.0546 20.882 45.0966 20.7978C45.1385 20.7136 45.3265 20.2062 45.3265 20.2062L45.6809 19.7632H46.2653L46.5987 20.0583L47.0363 20.5013L47.5375 21.1347L47.9961 22.1693L48.3086 22.9924L48.4337 23.9852L48.3924 24.5337L48.205 24.9562L48.2254 25.315L48.0177 25.8005L47.9338 26.0538L48.1638 26.4338L48.4553 27.0884L48.663 27.5109L49.2054 28.777L49.966 31.0041L50.2896 31.8278L50.154 32.3338L49.7157 32.8405L49.1536 33.8539L48.7468 34.9622L48.4651 35.7222L47.8395 36.6719L47.4648 37.495L46.8391 38.5402L46.5574 39.0151L46.4631 39.87L46.2443 40.6612L45.9941 41.5167L45.7438 42.308L45.6187 43.6065L45.244 44.8096L44.9623 45.7905L44.8371 47.0254L44.3989 48.0063L44.1172 49.6107L44.034 51.5526L44.0759 52.6495L44.5764 53.8738L45.1182 54.8023L45.4935 55.9006L46.4323 57.7271L46.9328 58.9295C46.9328 58.9295 47.339 60.2275 47.339 60.3236C47.339 60.4185 47.4956 62.0971 47.4956 62.0971L47.5892 63.838L47.6207 65.4841L47.4333 67.2264L47.5585 69.0735L47.7248 69.7274L48.017 70.7614L48.2876 71.9014L48.5378 73.4428L48.6846 74.7301V75.9749L48.7678 77.1574L48.8719 78.4865L49.039 78.8672L49.2893 79.2466L49.4556 79.669L49.9352 79.9642L50.1435 80.3867L50.2896 80.7455L50.2064 81.0306H47.4746L47.1575 80.8728L46.9734 80.577L46.9322 80.1134C46.9322 80.1134 47.0363 79.7752 47.1195 79.669C47.2027 79.5629 47.1195 79.1836 47.1195 79.1836C47.1195 79.1836 46.9734 78.5084 46.9944 78.4454C47.0154 78.3817 46.828 77.7059 46.828 77.7059L46.6819 76.3125V75.3628L46.1185 74.75L45.3678 73.6736L44.9302 72.956L44.7009 72.3863L44.6799 71.9638L44.7009 71.2886L44.8673 70.3376L45.0134 69.5563L45.1594 68.9229V68.5641L44.7218 68.1848L44.3465 67.7198L43.9717 67.1289L43.6167 66.538L43.409 65.7998L43.2419 65.0398L42.991 63.8685L42.8037 62.8233L42.5534 61.9684L42.3032 60.9232L42.0529 60.2261L41.8341 59.7831L41.6467 59.9423L41.3958 60.6068L41.2085 61.3039L40.8953 61.7781L40.708 62.4439L40.4892 63.3625L40.2075 64.4701L40.0195 65.2613L39.7378 65.831L39.6441 66.9399L39.4875 67.5096L39.3001 68.1741L39.3624 69.029L39.4567 70.2003L39.6126 71.3092V72.1316L39.2373 73.1768L38.8304 74.0317L38.2363 74.7287L37.7986 75.3933L37.7672 75.963L37.5792 76.9446L37.3918 78.4003L37.0636 79.3189V80.0159V80.776L36.6411 81.0286H32.075L32.3566 80.6493L33.1382 80.3316L34.17 79.6359H35.171L35.1402 78.9077L35.1088 78.1476L35.078 76.9121L35.3905 75.7408L35.547 74.7592L35.8903 73.4302C35.8903 73.4302 36.0469 72.5116 36.1091 72.3849C36.1713 72.2583 36.2034 71.2449 36.2034 71.2449L36.4851 70.0119L36.6732 68.3333V67.5421L36.2355 66.6872L36.0796 65.7375L35.9532 65.1041L35.7658 64.0589L35.8602 62.5719L36.4019 59.9111L36.4851 59.2777L36.1517 58.7923L35.7141 57.9062L35.0465 56.4279L34.5879 55.1406L34.1503 54.0861L34.0874 52.8399L34.2335 51.7416L34.3999 50.6234L34.4209 49.3142L34.2545 47.6887L34.0874 46.9498L33.4828 45.6413L32.8572 44.037L32.732 42.6442L33.0032 41.3562L33.3157 39.7095L33.6492 39.0337L34.2545 38.5482L34.8382 38.464L35.4848 38.6749L36.548 38.8645L37.5962 39.1869L38.7531 39.3295L39.3008 39.029L39.5668 38.5694C39.5668 38.5694 39.5045 37.6986 39.5045 37.6349C39.5045 37.5719 39.5045 36.5433 39.5045 36.5433L39.2857 35.6406C39.2857 35.6406 39.0669 34.5171 39.0355 34.4535C39.004 34.3905 38.9261 33.5349 38.9261 33.5349C38.9261 33.5349 39.082 32.6329 39.082 32.5845C39.082 32.5374 39.7076 31.8411 39.7076 31.8411L40.4892 31.524H41.0526L41.6153 31.9041L41.9586 32.6482L42.0529 33.1224L41.9114 34.5961L41.7706 35.4039L41.5983 35.8781L41.3172 37.0971L41.0434 37.9997L40.9733 38.6324L41.1141 39.3295L41.6769 39.3513ZM36.3292 45.7335L36.2041 46.2004L36.36 48.4169L36.2041 49.7155L36.36 52.5016V53.578L37.0479 54.6544L37.3604 55.6685L37.3918 56.3019L37.7043 56.5546L38.1734 55.5107L38.8619 53.2617L38.4551 51.9631L38.0174 50.2222L37.6106 48.5442L37.3925 47.7205L36.8291 46.4537L36.5474 45.567L36.3292 45.7335Z" fill="#1D1D1D"/>
<path d="M25.4197 49.4895L25.9355 49.4734L25.9679 49.2175L26.0165 48.8822L26.3061 48.4189L26.5318 48.0516L27.0877 47.652L28.1269 47.101L28.3203 46.7416L28.538 46.1664L29.1419 44.9207L29.3353 44.4655L29.7701 44.0816L29.9154 43.6504L29.964 43.267L29.7944 42.596L29.6734 41.5661L29.3596 39.8887L28.9809 38.6586L28.5623 38.6425L27.7721 38.5467L27.4825 38.515L27.1601 37.9881L27.0639 37.7005L27.193 37.3813L27.2411 37.1895L27.2092 36.8543L27.3863 36.7745L27.6607 36.8703L27.7731 37.1097L27.7412 37.3818L27.8055 37.701L27.9508 37.6533L28.2403 37.5414L28.5461 37.4771L28.9166 37.5093L29.0614 37.3973L28.9485 37.1097L28.8518 36.7745L28.6585 36.503C28.6585 36.503 28.2555 35.864 28.2074 35.864C28.1588 35.864 28.0297 35.5127 28.0621 35.449C28.0945 35.3852 28.2398 35.0013 28.2398 35.0013L28.5137 34.666H28.9652L29.2229 34.8894L29.5611 35.2246L29.9483 35.7039L30.3027 36.4869L30.5441 37.1097L30.6408 37.8611L30.6089 38.2761L30.4642 38.5959L30.4799 38.8674L30.3194 39.2348L30.2546 39.4265L30.4323 39.7141L30.6575 40.2094L30.818 40.5292L31.2372 41.4873L31.8249 43.1726L32.075 43.796L31.9702 44.1789L31.6315 44.5624L31.1972 45.3293L30.8828 46.1679L30.6651 46.7431L30.1817 47.4618L29.8921 48.0847L29.4087 48.8757L29.191 49.235L29.1181 49.882L28.949 50.4807L28.7557 51.1282L28.5623 51.7269L28.4656 52.7096L28.176 53.6201L27.9584 54.3624L27.8617 55.2969L27.523 56.0392L27.3053 57.2533L27.2411 58.7228L27.2735 59.553L27.6602 60.4795L28.0789 61.1821L28.3689 62.0133L29.0943 63.3955L29.4811 64.3054C29.4811 64.3054 29.7949 65.2876 29.7949 65.3604C29.7949 65.4322 29.9159 66.7025 29.9159 66.7025L29.9883 68.02L30.0126 69.2657L29.8678 70.5841L29.9645 71.9819L30.0931 72.4768L30.3189 73.2592L30.5279 74.122L30.7213 75.2884L30.8347 76.2626V77.2046L30.899 78.0995L30.9795 79.1053L31.1086 79.3934L31.302 79.6805L31.4305 80.0002L31.8011 80.2235L31.9621 80.5432L32.075 80.8148L32.0107 81.0306H29.8997L29.6547 80.9111L29.5125 80.6873L29.4806 80.3365C29.4806 80.3365 29.5611 80.0805 29.6254 80.0002C29.6896 79.9199 29.6254 79.6328 29.6254 79.6328C29.6254 79.6328 29.5125 79.1219 29.5287 79.0742C29.5449 79.026 29.4001 78.5146 29.4001 78.5146L29.2872 77.4601V76.7414L28.8518 76.2776L28.2717 75.4631L27.9336 74.92L27.7564 74.4889L27.7402 74.1692L27.7564 73.6582L27.885 72.9385L27.9979 72.3473L28.1107 71.868V71.5965L27.7726 71.3094L27.4825 70.9575L27.193 70.5104L26.9186 70.0632L26.7581 69.5046L26.629 68.9294L26.4352 68.043L26.2904 67.2521L26.097 66.6051L25.9036 65.8141L25.7102 65.2866L25.5412 64.9514L25.3964 65.0718L25.2025 65.5747L25.0577 66.1022L24.8158 66.4611L24.671 66.965L24.5019 67.6601L24.2842 68.4983L24.1389 69.097L23.9213 69.5281L23.8489 70.3673L23.7279 70.7984L23.5831 71.3013L23.6312 71.9483L23.7041 72.8346L23.8246 73.6738V74.2962L23.5345 75.0871L23.2201 75.7341L22.761 76.2616L22.4228 76.7645L22.3985 77.1956L22.2533 77.9384L22.1085 79.0401L21.8549 79.7352V80.2627V80.8379L21.5284 81.0291H18L18.2177 80.742L18.8216 80.5016L19.6189 79.9751H20.3924L20.3686 79.424L20.3443 78.8488L20.3205 77.9138L20.562 77.0275L20.683 76.2847L20.9482 75.2789C20.9482 75.2789 21.0692 74.5837 21.1173 74.4879C21.1654 74.392 21.1902 73.6251 21.1902 73.6251L21.4079 72.6921L21.5532 71.4218V70.823L21.215 70.1761L21.0945 69.4574L20.9968 68.9781L20.852 68.1871L20.9249 67.0618L21.3436 65.0482L21.4079 64.5689L21.1502 64.2015L20.8121 63.531L20.2962 62.4123L19.9419 61.4381L19.6037 60.6401L19.5551 59.697L19.668 58.8659L19.7966 58.0197L19.8128 57.029L19.6842 55.7988L19.5551 55.2397L19.0879 54.2495L18.6044 53.0354L18.5077 51.9814L18.7173 51.0067L18.9588 49.7605L19.2164 49.2491L19.6842 48.8817L20.1352 48.818L20.6349 48.9776L21.4565 49.1211L22.2664 49.365L23.1604 49.4729L23.5836 49.2456L23.7891 48.8978C23.7891 48.8978 23.741 48.2388 23.741 48.1906C23.741 48.1429 23.741 47.3645 23.741 47.3645L23.572 46.6814C23.572 46.6814 23.4029 45.8312 23.3786 45.783C23.3543 45.7353 23.2941 45.0879 23.2941 45.0879C23.2941 45.0879 23.4145 44.4053 23.4145 44.3687C23.4145 44.333 23.898 43.806 23.898 43.806L24.5019 43.5661H24.9372L25.3721 43.8537L25.6373 44.4168L25.7102 44.7757L25.6009 45.8909L25.4921 46.5022L25.3589 46.8611L25.1418 47.7835L24.9302 48.4666L24.876 48.9454L24.9848 49.4729L25.4197 49.4895ZM21.2874 54.3192L21.1907 54.6726L21.3112 56.3499L21.1907 57.3326L21.3112 59.4411V60.2556L21.8427 61.0702L22.0842 61.8376L22.1085 62.3169L22.35 62.5081L22.7124 61.7182L23.2444 60.0162L22.9301 59.0335L22.5919 57.716L22.2776 56.4463L22.109 55.8229L21.6736 54.8643L21.456 54.1932L21.2874 54.3192Z" fill="#2E2E2E"/>
</svg>
