<svg width="297" height="40" viewBox="0 0 297 40" fill="none" xmlns="http://www.w3.org/2000/svg">
<path d="M9.24658 36.1334L11.1493 19.9607L19.485 33.4134L19.91 34.0993L20.335 33.4134L28.6677 19.9656L30.5283 36.1322L30.5793 36.575H31.025H37.82H38.3973L38.3149 36.0036L33.5449 2.92863L33.3546 1.60949L32.6303 2.72826L19.9086 22.3772L7.09886 2.72695L6.37153 1.61121L6.18493 2.92995L1.50493 36.005L1.42427 36.575H2H8.75H9.19462L9.24658 36.1334ZM44.8045 4.075H44.3045V4.575V25.725C44.3045 29.5598 45.6335 32.5598 47.9017 34.5964C50.1624 36.6263 53.3063 37.655 56.8645 37.655C60.4225 37.655 63.5771 36.6264 65.8488 34.5973C68.1282 32.5613 69.4695 29.5612 69.4695 25.725V4.575V4.075H68.9695H62.4895H61.9895V4.575V25.365C61.9895 27.0319 61.5306 28.3726 60.6915 29.2916C59.8586 30.2038 58.5971 30.76 56.8645 30.76C55.1319 30.76 53.8703 30.2038 53.0375 29.2916C52.1984 28.3726 51.7395 27.0319 51.7395 25.365V4.575V4.075H51.2395H44.8045ZM81.003 25.2093L80.7302 24.7256L80.2777 25.0476L75.5977 28.3776L75.2602 28.6177L75.4333 28.994C77.578 33.6563 82.5163 37.385 88.5775 37.385C94.4124 37.385 100.148 33.7506 100.148 27.255C100.148 21.6245 95.9724 18.6643 91.8034 17.1983L91.7997 17.197C89.4372 16.387 87.7316 15.6745 86.6195 14.8976C85.5311 14.1373 85.0725 13.362 85.0725 12.405C85.0725 11.7579 85.3278 11.1684 85.841 10.7332C86.3591 10.2937 87.1794 9.98 88.3525 9.98C90.8832 9.98 92.6856 11.6436 93.9988 13.8322L94.2506 14.252L94.6756 14.0091L99.7156 11.1291L100.126 10.8945L99.9147 10.4714C98.2308 7.10358 94.5243 3.445 88.3525 3.445C85.3121 3.445 82.5847 4.32681 80.607 5.93037C78.621 7.54067 77.4125 9.86395 77.4125 12.675C77.4125 15.861 78.8131 18.0624 80.6138 19.6025C82.3954 21.1262 84.5713 22.006 86.151 22.5928C88.2834 23.4095 89.8312 24.0384 90.8558 24.799C91.3576 25.1715 91.7141 25.5623 91.948 26.004C92.1809 26.4438 92.3075 26.9629 92.3075 27.615C92.3075 28.6037 91.9368 29.3832 91.3023 29.9229C90.6596 30.4697 89.704 30.805 88.4875 30.805C85.3846 30.805 82.9511 28.6628 81.003 25.2093ZM107.054 4.075H106.554V4.575V36.075V36.575H107.054H113.624H114.124V36.075V4.575V4.075H113.624H107.054ZM147.216 14.8033L148.093 15.8111V14.475V7.185V6.946L147.907 6.7959C145.251 4.6524 142.395 3.445 137.693 3.445C132.718 3.445 128.382 5.1511 125.287 8.12974C122.19 11.1101 120.363 15.3381 120.363 20.325C120.363 25.3119 122.19 29.5399 125.287 32.5203C128.382 35.4989 132.718 37.205 137.693 37.205C142.395 37.205 145.251 35.9976 147.907 33.8541L148.093 33.704V33.465V26.175V24.8389L147.216 25.8467C145.182 28.1835 142.254 29.995 137.963 29.995C132.817 29.995 128.383 26.2821 128.383 20.325C128.383 14.3679 132.817 10.655 137.963 10.655C142.254 10.655 145.182 12.4665 147.216 14.8033ZM194.309 4.075H193.809V4.575V22.8591L172.286 2.63562L171.444 1.84408V3V36.075V36.575H171.944H178.244H178.744V36.075V17.7925L200.221 38.014L201.064 38.8075V37.65V4.575V4.075H200.564H194.309ZM209.613 4.075H209.113V4.575V36.075V36.575H209.613H229.683H230.183V36.075V30.585V30.085H229.683H216.413V22.535H228.783H229.283V22.035V16.68V16.18H228.783H216.413V10.565H229.683H230.183V10.065V4.575V4.075H229.683H209.613ZM238.275 4.075H237.775V4.575V36.075V36.575H238.275H244.755H245.255V36.075V25.145H247.271L254.459 36.345L254.606 36.575H254.88H262.575H263.536L262.984 35.788L254.808 24.1259C256.738 23.3627 258.279 22.1963 259.363 20.6904C260.563 19.0256 261.185 16.9739 261.185 14.655C261.185 11.5354 260.055 8.87248 257.921 6.99525C255.794 5.12363 252.718 4.075 248.895 4.075H238.275ZM268.43 4.075H267.93V4.575V36.075V36.575H268.43H279.14C284.238 36.575 288.509 35.0006 291.51 32.1573C294.514 29.3115 296.2 25.2362 296.2 20.325C296.2 15.4138 294.514 11.3385 291.51 8.49267C288.509 5.64944 284.238 4.075 279.14 4.075H268.43ZM248.49 10.655C250.075 10.655 251.321 11.0621 252.163 11.765C252.993 12.4583 253.48 13.4811 253.48 14.835C253.48 16.1889 252.993 17.2117 252.163 17.905C251.321 18.6079 250.075 19.015 248.49 19.015H245.255V10.655H248.49ZM278.96 10.97C281.646 10.97 284.035 11.6799 285.747 13.1753C287.447 14.6608 288.54 16.9763 288.54 20.325C288.54 23.6737 287.447 25.9892 285.747 27.4747C284.035 28.9701 281.646 29.68 278.96 29.68H275.59V10.97H278.96Z" stroke="white"/>
</svg>
