<svg width="313" height="80" viewBox="0 0 313 80" fill="none" xmlns="http://www.w3.org/2000/svg">
<path d="M14.4814 77.7237C26.8474 77.7237 34.7314 70.4337 34.7314 58.8237C34.7314 47.2137 26.8474 39.9237 14.4814 39.9237H0.981445L0.981445 77.7237H14.4814ZM14.1574 48.0777C19.9894 48.0777 25.2814 50.7237 25.2814 58.8237C25.2814 66.9237 19.9894 69.5697 14.1574 69.5697H10.4314L10.4314 48.0777H14.1574Z" fill="#A40E3B"/>
<path d="M45.985 39.9237L45.985 77.7237L71.095 77.7237V70.2177L54.787 70.2177V61.5777H70.015V54.1797H54.787V47.4297L71.095 47.4297V39.9237L45.985 39.9237Z" fill="#A40E3B"/>
<path d="M88.0801 64.4397L81.7081 69.0297C84.1921 74.5377 90.2401 78.9117 97.6381 78.9117C104.766 78.9117 111.624 74.6997 111.624 66.9777C111.624 60.7677 107.25 57.2037 101.958 55.3677C96.7201 53.5317 93.6421 52.1817 93.6421 49.5897C93.6421 47.9157 94.9921 46.6737 97.5841 46.6737C100.5 46.6737 102.822 48.4557 104.496 51.1557L111.462 47.2677C109.464 43.3797 105.09 39.0597 97.4761 39.0597C90.1321 39.0597 84.3001 43.1097 84.3001 49.8597C84.3001 57.2037 90.6721 60.1197 94.3981 61.5237C99.8521 63.5757 101.958 64.6017 101.958 67.4097C101.958 69.7317 100.068 71.1357 97.3681 71.1357C93.5341 71.1357 90.4021 68.5437 88.0801 64.4397Z" fill="#A40E3B"/>
<path d="M123.072 39.9237V77.7237H132.36V39.9237H123.072Z" fill="#A40E3B"/>
<path d="M164.507 64.0617H174.551C173.309 68.0037 170.177 70.9737 164.615 70.9737C157.973 70.9737 153.167 66.2757 153.167 58.8237C153.167 51.3717 158.297 46.9977 164.615 46.9977C169.043 46.9977 171.797 49.2657 173.525 52.2357L181.679 48.0237C178.115 42.7857 172.607 39.0597 164.615 39.0597C152.573 39.0597 143.609 46.8357 143.609 58.8237C143.609 70.8117 152.249 78.9117 164.291 78.9117C177.197 78.9117 184.271 69.0297 183.623 57.0417H164.507V64.0617Z" fill="#A40E3B"/>
<path d="M221.231 39.9237V61.1457L195.149 38.0337V77.7237H203.951V56.5017L230.033 79.6137V39.9237H221.231Z" fill="#A40E3B"/>
<path d="M243.37 39.9237V77.7237H268.48V70.2177H252.172V61.5777H267.4V54.1797H252.172V47.4297H268.48V39.9237H243.37Z" fill="#A40E3B"/>
<path d="M281.307 39.9237V77.7237H290.433V64.6557H293.241L301.341 77.7237H312.087L302.259 63.4677C307.227 61.5777 309.819 57.4737 309.819 52.2897C309.819 44.9997 304.743 39.9237 295.077 39.9237H281.307ZM294.429 47.6997C298.101 47.6997 300.315 49.4817 300.315 52.6137C300.315 55.7457 298.101 57.5277 294.429 57.5277H290.433V47.6997H294.429Z" fill="#A40E3B"/>
<g opacity="0.8">
<path d="M2 1.75435L2 39.4719H10.5414L10.5414 25.7858L15.4645 25.7858C25.3108 25.7858 30.9458 21.2597 30.9458 13.824C30.9458 6.38822 25.3108 1.75435 15.4645 1.75435L2 1.75435ZM15.4645 8.32798C19.8538 8.32798 22.701 10.2677 22.701 13.824C22.701 17.3802 19.8538 19.2122 15.4645 19.2122L10.5414 19.2122L10.5414 8.32798L15.4645 8.32798Z" stroke="#A40E3B" stroke-width="2"/>
<path d="M43.4974 1.75435L43.4974 39.4719H52.0388V25.7858L55.7163 25.7858L65.3847 39.4719L75.5276 39.4719L64.2577 24.8698C69.8926 23.1456 73.0363 19.1583 73.0363 13.824C73.0363 6.65763 67.3421 1.75435 57.4958 1.75435L43.4974 1.75435ZM56.9619 8.43574C61.3512 8.43574 64.1984 10.4833 64.1984 14.0395C64.1984 17.5957 61.3512 19.6432 56.9619 19.6432L52.0388 19.6432V8.43574L56.9619 8.43574Z" stroke="#A40E3B" stroke-width="2"/>
<path d="M83.8386 20.6131C83.8386 32.0362 93.0325 40.4418 105.785 40.4418C118.538 40.4418 127.732 32.0362 127.732 20.6131C127.732 9.19009 118.36 1 105.785 1C93.329 1 83.8386 9.19009 83.8386 20.6131ZM92.8545 20.6131C92.8545 13.3929 98.1336 8.22022 105.785 8.22022C113.615 8.22022 118.716 13.3929 118.716 20.6131C118.716 27.8333 113.437 33.006 105.785 33.006C98.1336 33.006 92.8545 27.8333 92.8545 20.6131Z" stroke="#A40E3B" stroke-width="2"/>
<path d="M154.337 39.4719C167.505 39.4719 176.165 32.09 176.165 20.6131C176.165 9.13621 167.505 1.75435 154.337 1.75435L140.22 1.75435V39.4719L154.337 39.4719ZM154.1 8.81292C161.396 8.81292 167.387 12.3153 167.387 20.6131C167.387 28.911 161.396 32.4133 154.1 32.4133H148.999V8.81292H154.1Z" stroke="#A40E3B" stroke-width="2"/>
<path d="M188.372 1.75435V27.079C188.372 35.9695 195.134 40.7651 204.269 40.7651C213.403 40.7651 220.224 35.9695 220.224 27.079V1.75435L211.683 1.75435V26.6479C211.683 30.8507 209.133 33.7065 204.269 33.7065C199.405 33.7065 196.854 30.8507 196.854 26.6479V1.75435L188.372 1.75435Z" stroke="#A40E3B" stroke-width="2"/>
<path d="M241.681 20.6131C241.681 13.1235 247.85 8.43574 254.967 8.43574C260.84 8.43574 264.873 10.6988 267.661 13.6084V4.87952C264.28 2.40094 260.662 1 254.611 1C241.799 1 232.428 8.97456 232.428 20.6131C232.428 32.2517 241.799 40.2262 254.611 40.2262C260.662 40.2262 264.28 38.8253 267.661 36.3467V27.6178C264.873 30.5274 260.84 32.7905 254.967 32.7905C247.85 32.7905 241.681 28.1027 241.681 20.6131Z" stroke="#A40E3B" stroke-width="2"/>
<path d="M276.026 8.75904H287.178V39.4719H295.719V8.75904H306.93V1.75435L276.026 1.75435V8.75904Z" stroke="#A40E3B" stroke-width="2"/>
</g>
</svg>
