<svg width="308" height="85" viewBox="0 0 308 85" fill="none" xmlns="http://www.w3.org/2000/svg">
<path d="M13.3219 83.1364C25.5247 83.1364 33.3046 75.948 33.3046 64.5C33.3046 53.0519 25.5247 45.8636 13.3219 45.8636H0L0 83.1364H13.3219ZM13.0021 53.9039C18.7572 53.9039 23.9793 56.513 23.9793 64.5C23.9793 72.487 18.7572 75.0961 13.0021 75.0961H9.3253L9.3253 53.9039H13.0021Z" fill="#F2FFDC"/>
<path d="M44.4096 45.8636L44.4096 83.1364L69.1883 83.1364V75.7351L53.0955 75.7351V67.2156L68.1225 67.2156V59.9208L53.0955 59.9208V53.2649L69.1883 53.2649V45.8636L44.4096 45.8636Z" fill="#F2FFDC"/>
<path d="M85.9493 70.0377L79.6613 74.5636C82.1126 79.9948 88.0808 84.3078 95.3811 84.3078C102.415 84.3078 109.183 80.1545 109.183 72.5403C109.183 66.4169 104.866 62.9026 99.6441 61.0922C94.4752 59.2818 91.4379 57.9506 91.4379 55.3948C91.4379 53.7442 92.7701 52.5195 95.3279 52.5195C98.2054 52.5195 100.497 54.2766 102.149 56.939L109.023 53.1052C107.051 49.2714 102.735 45.0117 95.2213 45.0117C87.9742 45.0117 82.2191 49.0052 82.2191 55.661C82.2191 62.9026 88.5071 65.7779 92.1839 67.1623C97.5659 69.1857 99.6441 70.1974 99.6441 72.9662C99.6441 75.2558 97.7791 76.6403 95.1147 76.6403C91.3313 76.6403 88.2406 74.0844 85.9493 70.0377Z" fill="#F2FFDC"/>
<path d="M120.48 45.8636V83.1364H129.645V45.8636H120.48Z" fill="#F2FFDC"/>
<path d="M161.368 69.6649H171.279C170.053 73.5519 166.963 76.4805 161.474 76.4805C154.92 76.4805 150.177 71.848 150.177 64.5C150.177 57.1519 155.24 52.839 161.474 52.839C165.844 52.839 168.561 55.0753 170.267 58.0039L178.313 53.8506C174.796 48.6857 169.361 45.0117 161.474 45.0117C149.591 45.0117 140.745 52.6792 140.745 64.5C140.745 76.3208 149.271 84.3078 161.154 84.3078C173.89 84.3078 180.871 74.5636 180.231 62.7429H161.368V69.6649Z" fill="#F2FFDC"/>
<path d="M217.344 45.8636V66.7896L191.606 44V83.1364H200.292V62.2104L226.029 85V45.8636H217.344Z" fill="#F2FFDC"/>
<path d="M239.19 45.8636V83.1364H263.968V75.7351H247.876V67.2156H262.903V59.9208H247.876V53.2649H263.968V45.8636H239.19Z" fill="#F2FFDC"/>
<path d="M276.626 45.8636V83.1364L285.632 83.1364V70.2506L288.403 70.2506L296.396 83.1364H307L297.302 69.0792C302.204 67.2156 304.762 63.1688 304.762 58.0571C304.762 50.8688 299.753 45.8636 290.214 45.8636L276.626 45.8636ZM289.575 53.5312C293.199 53.5312 295.383 55.2883 295.383 58.3766C295.383 61.4649 293.199 63.2221 289.575 63.2221L285.632 63.2221V53.5312H289.575Z" fill="#F2FFDC"/>
<path d="M1.02148 1.75806L1.02148 39.6609H9.58742L9.58742 25.9076L14.5247 25.9076C24.3994 25.9076 30.0505 21.3593 30.0505 13.887C30.0505 6.4147 24.3994 1.75806 14.5247 1.75806L1.02148 1.75806ZM14.5247 8.36399C18.9267 8.36399 21.782 10.3133 21.782 13.887C21.782 17.4607 18.9267 19.3017 14.5247 19.3017L9.58742 19.3017L9.58742 8.36399L14.5247 8.36399Z" fill="#F2FFDC"/>
<path d="M42.6382 1.75806L42.6382 39.6609H51.2042V25.9076L54.8923 25.9076L64.5884 39.6609L74.7605 39.6609L63.4582 24.9871C69.1093 23.2544 72.2621 19.2475 72.2621 13.887C72.2621 6.68543 66.5515 1.75806 56.6768 1.75806L42.6382 1.75806ZM56.1415 8.47228C60.5434 8.47228 63.3987 10.5299 63.3987 14.1036C63.3987 17.6773 60.5434 19.7349 56.1415 19.7349L51.2042 19.7349V8.47228L56.1415 8.47228Z" fill="#F2FFDC"/>
<path d="M83.0954 20.7095C83.0954 32.1887 92.3157 40.6356 105.105 40.6356C117.895 40.6356 127.115 32.1887 127.115 20.7095C127.115 9.23034 117.716 1 105.105 1C92.6132 1 83.0954 9.23034 83.0954 20.7095ZM92.1373 20.7095C92.1373 13.4538 97.4315 8.25569 105.105 8.25569C112.957 8.25569 118.073 13.4538 118.073 20.7095C118.073 27.9652 112.779 33.1633 105.105 33.1633C97.4315 33.1633 92.1373 27.9652 92.1373 20.7095Z" fill="#F2FFDC"/>
<path d="M153.797 39.6609C167.003 39.6609 175.688 32.2428 175.688 20.7095C175.688 9.17619 167.003 1.75806 153.797 1.75806L139.639 1.75806V39.6609L153.797 39.6609ZM153.559 8.85131C160.876 8.85131 166.884 12.3709 166.884 20.7095C166.884 29.0481 160.876 32.5677 153.559 32.5677H148.443V8.85131H153.559Z" fill="#F2FFDC"/>
<path d="M187.93 1.75806V27.2071C187.93 36.1414 194.711 40.9605 203.872 40.9605C213.033 40.9605 219.873 36.1414 219.873 27.2071V1.75806L211.308 1.75806V26.774C211.308 30.9974 208.75 33.8672 203.872 33.8672C198.994 33.8672 196.436 30.9974 196.436 26.774V1.75806L187.93 1.75806Z" fill="#F2FFDC"/>
<path d="M241.391 20.7095C241.391 13.1831 247.578 8.47228 254.716 8.47228C260.605 8.47228 264.65 10.7465 267.446 13.6704V4.89858C264.055 2.40782 260.427 1 254.359 1C241.51 1 232.112 9.01375 232.112 20.7095C232.112 32.4052 241.51 40.419 254.359 40.419C260.427 40.419 264.055 39.0112 267.446 36.5204V27.7486C264.65 30.6725 260.605 32.9467 254.716 32.9467C247.578 32.9467 241.391 28.2359 241.391 20.7095Z" fill="#F2FFDC"/>
<path d="M275.836 8.79716L287.019 8.79716V39.6609H295.585V8.79716H306.828V1.75806L275.836 1.75806V8.79716Z" fill="#F2FFDC"/>
<path d="M1.02148 1.75806L1.02148 39.6609H9.58742L9.58742 25.9076L14.5247 25.9076C24.3994 25.9076 30.0505 21.3593 30.0505 13.887C30.0505 6.4147 24.3994 1.75806 14.5247 1.75806L1.02148 1.75806ZM14.5247 8.36399C18.9267 8.36399 21.782 10.3133 21.782 13.887C21.782 17.4607 18.9267 19.3017 14.5247 19.3017L9.58742 19.3017L9.58742 8.36399L14.5247 8.36399Z" stroke="#F2FFDC" stroke-width="2"/>
<path d="M42.6382 1.75806L42.6382 39.6609H51.2042V25.9076L54.8923 25.9076L64.5884 39.6609L74.7605 39.6609L63.4582 24.9871C69.1093 23.2544 72.2621 19.2475 72.2621 13.887C72.2621 6.68543 66.5515 1.75806 56.6768 1.75806L42.6382 1.75806ZM56.1415 8.47228C60.5434 8.47228 63.3987 10.5299 63.3987 14.1036C63.3987 17.6773 60.5434 19.7349 56.1415 19.7349L51.2042 19.7349V8.47228L56.1415 8.47228Z" stroke="#F2FFDC" stroke-width="2"/>
<path d="M83.0954 20.7095C83.0954 32.1887 92.3157 40.6356 105.105 40.6356C117.895 40.6356 127.115 32.1887 127.115 20.7095C127.115 9.23034 117.716 1 105.105 1C92.6132 1 83.0954 9.23034 83.0954 20.7095ZM92.1373 20.7095C92.1373 13.4538 97.4315 8.25569 105.105 8.25569C112.957 8.25569 118.073 13.4538 118.073 20.7095C118.073 27.9652 112.779 33.1633 105.105 33.1633C97.4315 33.1633 92.1373 27.9652 92.1373 20.7095Z" stroke="#F2FFDC" stroke-width="2"/>
<path d="M153.797 39.6609C167.003 39.6609 175.688 32.2428 175.688 20.7095C175.688 9.17619 167.003 1.75806 153.797 1.75806L139.639 1.75806V39.6609L153.797 39.6609ZM153.559 8.85131C160.876 8.85131 166.884 12.3709 166.884 20.7095C166.884 29.0481 160.876 32.5677 153.559 32.5677H148.443V8.85131H153.559Z" stroke="#F2FFDC" stroke-width="2"/>
<path d="M187.93 1.75806V27.2071C187.93 36.1414 194.711 40.9605 203.872 40.9605C213.033 40.9605 219.873 36.1414 219.873 27.2071V1.75806L211.308 1.75806V26.774C211.308 30.9974 208.75 33.8672 203.872 33.8672C198.994 33.8672 196.436 30.9974 196.436 26.774V1.75806L187.93 1.75806Z" stroke="#F2FFDC" stroke-width="2"/>
<path d="M241.391 20.7095C241.391 13.1831 247.578 8.47228 254.716 8.47228C260.605 8.47228 264.65 10.7465 267.446 13.6704V4.89858C264.055 2.40782 260.427 1 254.359 1C241.51 1 232.112 9.01375 232.112 20.7095C232.112 32.4052 241.51 40.419 254.359 40.419C260.427 40.419 264.055 39.0112 267.446 36.5204V27.7486C264.65 30.6725 260.605 32.9467 254.716 32.9467C247.578 32.9467 241.391 28.2359 241.391 20.7095Z" stroke="#F2FFDC" stroke-width="2"/>
<path d="M275.836 8.79716L287.019 8.79716V39.6609H295.585V8.79716H306.828V1.75806L275.836 1.75806V8.79716Z" stroke="#F2FFDC" stroke-width="2"/>
</svg>
