<svg width="208" height="239" viewBox="0 0 208 239" fill="none" xmlns="http://www.w3.org/2000/svg">
<g opacity="0.8">
<path d="M0.579596 213.312L29.5594 237.453L34.5256 231.492L24.01 222.732L26.8724 219.296C32.5973 212.423 32.396 205.594 26.6828 200.834C20.9696 196.075 14.133 197.042 8.40814 203.915L0.579596 213.312ZM13.4589 208.122C16.0109 205.058 19.1567 204.313 21.8891 206.589C24.6215 208.865 24.3737 212.025 21.8217 215.088L18.9592 218.525L10.5965 211.558L13.4589 208.122Z" fill="#C60A42"/>
<path d="M24.707 184.349L53.6868 208.49L58.653 202.528L48.1374 193.768L50.2756 191.202L66.4125 193.213L72.3098 186.134L54.5379 184.654C56.4894 179.617 55.2536 174.871 51.1551 171.457C45.6489 166.87 38.5708 167.706 32.8459 174.578L24.707 184.349ZM37.6691 179.227C40.2211 176.164 43.4497 175.487 46.1821 177.763C48.9145 180.039 48.8323 183.337 46.2803 186.401L43.4178 189.837L34.8067 182.664L37.6691 179.227Z" fill="#C60A42"/>
<path d="M62.6521 168.262C71.4288 175.574 83.2327 174.537 90.6474 165.636C98.0621 156.735 96.9492 144.938 88.1724 137.627C79.3957 130.315 67.654 131.615 60.3428 140.391C53.1005 149.085 53.8753 160.951 62.6521 168.262ZM67.8941 161.97C62.3465 157.348 61.4415 150.353 65.8903 145.013C70.4426 139.548 77.3829 139.298 82.9304 143.919C88.478 148.541 89.383 155.536 84.9342 160.877C80.4854 166.217 73.4417 166.591 67.8941 161.97Z" fill="#C60A42"/>
<path d="M118.131 131.127C125.787 121.937 125.151 111.167 116.333 103.822C107.515 96.476 96.8076 97.7957 89.1515 106.986L80.9436 116.84L109.923 140.98L118.131 131.127ZM94.437 111.67C98.6789 106.578 104.853 104.638 111.229 109.949C117.604 115.26 116.812 121.683 112.57 126.775L109.604 130.336L91.4711 115.23L94.437 111.67Z" fill="#C60A42"/>
<path d="M108.94 83.2314L128.398 99.4403C135.229 105.131 142.845 103.48 148.156 97.1048C153.467 90.7292 153.748 82.8989 146.917 77.2086L127.46 60.9997L122.493 66.9613L141.62 82.8942C144.849 85.5842 145.561 89.1922 142.733 92.587C139.905 95.9818 136.228 95.9342 132.998 93.2442L113.872 77.3112L108.94 83.2314Z" fill="#C60A42"/>
<path d="M154.425 58.0944C148.67 53.3007 148.655 45.9948 152.793 41.0268C156.208 36.9282 160.291 35.5615 164.148 35.478L157.441 29.8911C153.571 30.6645 150.391 32.2932 146.873 36.516C139.424 45.4584 140.102 57.1036 149.045 64.5528C157.987 72.002 169.563 70.5649 177.012 61.6225C180.53 57.3997 181.557 53.9777 181.619 50.0315L174.912 44.4446C175.527 48.2527 174.92 52.5163 171.506 56.6149C167.368 61.5829 160.179 62.8881 154.425 58.0944Z" fill="#C60A42"/>
<path d="M165.286 26.5352L171.769 18.752L195.367 38.4096L200.333 32.448L176.736 12.7905L183.254 4.96591L177.872 0.482608L159.904 22.0519L165.286 26.5352Z" fill="#C60A42"/>
</g>
</svg>
