<svg width="413" height="68" viewBox="0 0 413 68" fill="none" xmlns="http://www.w3.org/2000/svg">
<g filter="url(#filter0_d)">
<rect width="405" height="60" transform="translate(4)" fill="url(#paint0_linear)"/>
<path d="M4.23926 4.13239H25.5755C30.541 4.13239 34.6272 4.90825 37.8341 6.45996C41.0927 8.01168 43.4979 10.1582 45.0496 12.8996C46.6531 15.5893 47.4548 18.7186 47.4548 22.2875C47.4548 25.96 46.6013 29.1927 44.8944 31.9858C43.1875 34.7789 40.6013 36.9255 37.1358 38.4255L50.7134 58.4429H33.1789L22.472 40.4427H19.291V58.4429H4.23926V4.13239ZM24.2565 16.8565H19.291V29.0375H24.2565C26.6875 29.0375 28.5496 28.4944 29.8427 27.4082C31.1358 26.322 31.7824 24.822 31.7824 22.9082C31.7824 20.9427 31.1358 19.4427 29.8427 18.4082C28.5496 17.3738 26.6875 16.8565 24.2565 16.8565ZM56.3673 4.13239H93.9966V16.3134H70.7984V24.3048H92.4449V36.0979H70.7984V46.2617H93.9966V58.4429H56.3673V4.13239ZM104.329 4.13239H119.691V58.4429H104.329V4.13239ZM144.116 31.2875C144.116 34.3393 144.789 36.9513 146.134 39.1238C147.53 41.2444 149.366 42.8738 151.642 44.0117C153.97 45.0979 156.504 45.641 159.246 45.641C163.073 45.641 166.228 44.9169 168.711 43.4686C171.194 42.0203 173.315 40.4169 175.073 38.6582V54.486C172.901 56.0894 170.547 57.3825 168.013 58.3653C165.478 59.348 162.22 59.8394 158.237 59.8394C152.185 59.8394 146.858 58.6498 142.254 56.2705C137.703 53.8911 134.134 50.5806 131.547 46.3393C128.961 42.0462 127.668 37.0289 127.668 31.2875C127.668 25.5462 128.961 20.5548 131.547 16.3134C134.134 12.0203 137.703 8.6841 142.254 6.30479C146.858 3.9255 152.185 2.73584 158.237 2.73584C162.22 2.73584 165.478 3.22722 168.013 4.20998C170.547 5.19272 172.901 6.48582 175.073 8.08927V23.9169C173.315 22.1065 171.194 20.5031 168.711 19.1065C166.228 17.6582 163.073 16.9341 159.246 16.9341C156.504 16.9341 153.97 17.5031 151.642 18.641C149.366 19.7272 147.53 21.3306 146.134 23.4513C144.789 25.572 144.116 28.1841 144.116 31.2875ZM185.4 4.13239H200.452V23.3738H221.865V4.13239H236.917V58.4429H221.865V36.7186H200.452V58.4429H185.4V4.13239ZM284.294 58.4429L279.717 49.6755H263.734L259.234 58.4429H242.165L271.725 0.48584L301.363 58.4429H284.294ZM271.725 26.3996L266.372 38.5806H277.156L271.725 26.3996ZM306.628 4.13239H327.965C332.93 4.13239 337.016 4.90825 340.223 6.45996C343.482 8.01168 345.887 10.1582 347.439 12.8996C349.042 15.5893 349.844 18.7186 349.844 22.2875C349.844 25.96 348.99 29.1927 347.284 31.9858C345.577 34.7789 342.99 36.9255 339.525 38.4255L353.103 58.4429H335.568L324.861 40.4427H321.68V58.4429H306.628V4.13239ZM326.646 16.8565H321.68V29.0375H326.646C329.077 29.0375 330.939 28.4944 332.232 27.4082C333.525 26.322 334.171 24.822 334.171 22.9082C334.171 20.9427 333.525 19.4427 332.232 18.4082C330.939 17.3738 329.077 16.8565 326.646 16.8565ZM379.084 58.4429H358.756V4.13239H379.084C385.188 4.13239 390.463 5.24444 394.912 7.46858C399.36 9.64099 402.774 12.7444 405.153 16.7789C407.584 20.8134 408.8 25.6496 408.8 31.2875C408.8 36.8738 407.584 41.71 405.153 45.7962C402.774 49.8307 399.36 52.9601 394.912 55.1843C390.463 57.3567 385.188 58.4429 379.084 58.4429ZM378.463 17.322H374.351V45.2531H378.463C380.894 45.2531 383.222 44.891 385.446 44.1669C387.67 43.391 389.506 41.9944 390.955 39.9772C392.403 37.96 393.127 35.0634 393.127 31.2875C393.127 27.46 392.403 24.5634 390.955 22.5979C389.506 20.5806 387.67 19.21 385.446 18.4858C383.222 17.71 380.894 17.322 378.463 17.322Z" fill="white"/>
</g>
<defs>
<filter id="filter0_d" x="0" y="0" width="413" height="68" filterUnits="userSpaceOnUse" color-interpolation-filters="sRGB">
<feFlood flood-opacity="0" result="BackgroundImageFix"/>
<feColorMatrix in="SourceAlpha" type="matrix" values="0 0 0 0 0 0 0 0 0 0 0 0 0 0 0 0 0 0 127 0"/>
<feOffset dy="4"/>
<feGaussianBlur stdDeviation="2"/>
<feColorMatrix type="matrix" values="0 0 0 0 0 0 0 0 0 0 0 0 0 0 0 0 0 0 0.25 0"/>
<feBlend mode="normal" in2="BackgroundImageFix" result="effect1_dropShadow"/>
<feBlend mode="normal" in="SourceGraphic" in2="effect1_dropShadow" result="shape"/>
</filter>
<linearGradient id="paint0_linear" x1="202.5" y1="0" x2="202.5" y2="60" gradientUnits="userSpaceOnUse">
<stop stop-color="#0ABB4D"/>
<stop offset="1" stop-color="#12B952"/>
</linearGradient>
</defs>
</svg>
