<svg width="374" height="58" viewBox="0 0 374 58" fill="none" xmlns="http://www.w3.org/2000/svg">
<path d="M0 3.53271L0 56.5251H14.6865L14.6865 39.0376H17.866L28.2374 56.5251H45.422L32.0982 37.0693C38.9873 34.1926 42.2425 28.4391 42.2425 21.2473C42.2425 10.8759 35.3535 3.53271 20.8184 3.53271L0 3.53271ZM19.6072 15.9481C24.3008 15.9481 26.8747 18.0678 26.8747 21.8529C26.8747 25.6381 24.3008 27.7578 19.6072 27.7578H14.6865L14.6865 15.9481L19.6072 15.9481Z" fill="#FAFAFA"/>
<path d="M49.4595 3.53271L49.4595 56.5251L86.1756 56.5251V44.6397L63.5403 44.6397V34.7982L84.6616 34.7982V23.2156L63.5403 23.2156V15.4181L86.1756 15.4181V3.53271L49.4595 3.53271Z" fill="#FAFAFA"/>
<path d="M90.2134 3.53271L90.2134 56.5251H105.203L105.203 3.53271L90.2134 3.53271Z" fill="#FAFAFA"/>
<path d="M125.441 29.8774C125.441 20.9444 132.103 15.948 140.127 15.948C147.622 15.948 152.164 19.2789 155.571 22.7613V7.16639C151.331 4.13825 146.789 2.01855 139.067 2.01855C121.353 2.01855 109.24 13.147 109.24 29.8774C109.24 46.6079 121.353 57.7363 139.067 57.7363C146.789 57.7363 151.331 55.6166 155.571 52.5884V36.9935C152.164 40.4759 147.622 43.8068 140.127 43.8068C132.103 43.8068 125.441 38.8104 125.441 29.8774Z" fill="#FAFAFA"/>
<path d="M159.608 3.53271V56.5251H174.295V35.4039L195.189 35.4039V56.5251H209.875V3.53271L195.189 3.53271V22.3072L174.295 22.3072V3.53271L159.608 3.53271Z" fill="#FAFAFA"/>
<path d="M255.02 56.5504H271.674L242.831 0L213.913 56.5504H230.643L234.958 48.0717L250.553 48.0717L255.02 56.5504ZM242.831 25.3606L247.979 37.1704H237.608L242.831 25.3606Z" fill="#FAFAFA"/>
<path d="M275.712 3.53271V56.5251H290.398V39.0376H293.578L303.949 56.5251H321.134L307.81 37.0693C314.699 34.1926 317.954 28.4391 317.954 21.2473C317.954 10.8759 311.065 3.53271 296.53 3.53271L275.712 3.53271ZM295.319 15.9481C300.013 15.9481 302.587 18.0678 302.587 21.8529C302.587 25.6381 300.013 27.7578 295.319 27.7578H290.398V15.9481L295.319 15.9481Z" fill="#FAFAFA"/>
<path d="M345.006 56.5251C362.872 56.5251 374 46.4565 374 30.0289C374 13.6013 362.872 3.53271 345.006 3.53271L325.171 3.53271V56.5251H345.006ZM344.4 16.4023C351.44 16.4023 358.632 18.9762 358.632 30.0289C358.632 41.0816 351.44 43.6555 344.4 43.6555H340.463V16.4023L344.4 16.4023Z" fill="#FAFAFA"/>
</svg>
