<svg width="427" height="66" viewBox="0 0 427 66" fill="none" xmlns="http://www.w3.org/2000/svg">
<path d="M0 4.0332L0 64.5352H16.7677L16.7677 44.5695H20.3978L32.2389 64.5352H51.8589L36.6469 42.3223C44.5122 39.0379 48.2287 32.4691 48.2287 24.2582C48.2287 12.4171 40.3635 4.0332 23.7686 4.0332L0 4.0332ZM22.3857 18.208C27.7445 18.208 30.6832 20.628 30.6832 24.9496C30.6832 29.2712 27.7445 31.6913 22.3857 31.6913H16.7677V18.208H22.3857Z" fill="#FAFAFA"/>
<path d="M56.4685 4.0332L56.4685 64.5352H98.3878V50.9655L72.5448 50.9655V39.7294L96.6591 39.7294V26.5054L72.5448 26.5054V17.6029L98.3878 17.6029V4.0332L56.4685 4.0332Z" fill="#FAFAFA"/>
<path d="M102.998 4.0332L102.998 64.5352H120.111L120.111 4.0332L102.998 4.0332Z" fill="#FAFAFA"/>
<path d="M143.217 34.1115C143.217 23.9125 150.823 18.2081 159.985 18.2081C168.541 18.2081 173.727 22.0111 177.617 25.9869V8.18203C172.777 4.72477 167.591 2.30469 158.775 2.30469C138.55 2.30469 124.721 15.0101 124.721 34.1115C124.721 53.2128 138.55 65.9182 158.775 65.9182C167.591 65.9182 172.777 63.4981 177.617 60.0409V42.236C173.727 46.2119 168.541 50.0148 159.985 50.0148C150.823 50.0148 143.217 44.3104 143.217 34.1115Z" fill="#FAFAFA"/>
<path d="M182.226 4.0332V64.5352H198.994V40.4208L222.849 40.4208V64.5352H239.617V4.0332L222.849 4.0332V25.4682L198.994 25.4682V4.0332L182.226 4.0332Z" fill="#FAFAFA"/>
<path d="M291.159 64.5643H310.174L277.243 0L244.227 64.5643H263.328L268.255 54.884H286.059L291.159 64.5643ZM277.243 28.9545L283.121 42.4378H271.28L277.243 28.9545Z" fill="#FAFAFA"/>
<path d="M314.783 4.0332V64.5352H331.551V44.5695H335.181L347.022 64.5352H366.642L351.43 42.3223C359.295 39.0379 363.012 32.4691 363.012 24.2582C363.012 12.4171 355.147 4.0332 338.552 4.0332L314.783 4.0332ZM337.169 18.208C342.528 18.208 345.466 20.628 345.466 24.9496C345.466 29.2712 342.528 31.6913 337.169 31.6913H331.551V18.208H337.169Z" fill="#FAFAFA"/>
<path d="M393.897 64.5352C414.295 64.5352 427 53.0398 427 34.2842C427 15.5286 414.295 4.0332 393.897 4.0332L371.252 4.0332V64.5352H393.897ZM393.205 18.7265C401.243 18.7265 409.454 21.6652 409.454 34.2842C409.454 46.9032 401.243 49.8419 393.205 49.8419L388.711 49.8419V18.7265H393.205Z" fill="#FAFAFA"/>
</svg>
