<svg width="208" height="38" viewBox="0 0 208 38" fill="none" xmlns="http://www.w3.org/2000/svg">
<g clip-path="url(#clip0)" filter="url(#filter0_d)">
<rect width="200" height="29.6296" transform="translate(4)" fill="url(#paint0_linear)"/>
<path d="M4.11816 2.04051H14.6546C17.1067 2.04051 19.1246 2.42365 20.7082 3.18993C22.3174 3.95621 23.5051 5.01624 24.2714 6.37C25.0632 7.69823 25.4592 9.24357 25.4592 11.006C25.4592 12.8196 25.0377 14.416 24.1948 15.7953C23.3519 17.1746 22.0747 18.2346 20.3634 18.9754L27.0684 28.8605H18.4094L13.122 19.9715H11.5511V28.8605H4.11816V2.04051ZM14.0032 8.32403H11.5511V14.3394H14.0032C15.2037 14.3394 16.1233 14.0712 16.7618 13.5348C17.4004 12.9984 17.7197 12.2576 17.7197 11.3125C17.7197 10.3419 17.4004 9.60117 16.7618 9.09031C16.1233 8.57945 15.2037 8.32403 14.0032 8.32403ZM29.8604 2.04051H48.4428V8.05583H36.9869V12.0022H47.6765V17.8259H36.9869V22.8451H48.4428V28.8605H29.8604V2.04051ZM53.545 2.04051H61.1312V28.8605H53.545V2.04051ZM73.1932 15.4505C73.1932 16.9575 73.5253 18.2474 74.1894 19.3202C74.8791 20.3674 75.7858 21.172 76.9097 21.734C78.0591 22.2704 79.3107 22.5386 80.6645 22.5386C82.5547 22.5386 84.1128 22.181 85.3388 21.4658C86.5649 20.7506 87.6121 19.9588 88.4806 19.0903V26.9065C87.4078 27.6983 86.2456 28.3369 84.994 28.8222C83.7424 29.3075 82.1332 29.5502 80.1664 29.5502C77.1779 29.5502 74.547 28.9627 72.2737 27.7877C70.0259 26.6127 68.2635 24.9779 66.9863 22.8834C65.7092 20.7634 65.0706 18.2857 65.0706 15.4505C65.0706 12.6152 65.7092 10.1503 66.9863 8.05583C68.2635 5.93578 70.0259 4.28827 72.2737 3.1133C74.547 1.93834 77.1779 1.35086 80.1664 1.35086C82.1332 1.35086 83.7424 1.59351 84.994 2.07883C86.2456 2.56413 87.4078 3.2027 88.4806 3.99452V11.8106C87.6121 10.9166 86.5649 10.1248 85.3388 9.43514C84.1128 8.71994 82.5547 8.36234 80.6645 8.36234C79.3107 8.36234 78.0591 8.64331 76.9097 9.20525C75.7858 9.74165 74.8791 10.5335 74.1894 11.5807C73.5253 12.628 73.1932 13.9179 73.1932 15.4505ZM93.5802 2.04051H101.013V11.5424H111.588V2.04051H119.021V28.8605H111.588V18.1325H101.013V28.8605H93.5802V2.04051ZM142.417 28.8605L140.156 24.5309H132.264L130.042 28.8605H121.612L136.21 0.239746L150.846 28.8605H142.417ZM136.21 13.0367L133.566 19.052H138.892L136.21 13.0367ZM153.446 2.04051H163.982C166.435 2.04051 168.452 2.42365 170.036 3.18993C171.645 3.95621 172.833 5.01624 173.599 6.37C174.391 7.69823 174.787 9.24357 174.787 11.006C174.787 12.8196 174.366 14.416 173.523 15.7953C172.68 17.1746 171.403 18.2346 169.691 18.9754L176.396 28.8605H167.737L162.45 19.9715H160.879V28.8605H153.446V2.04051ZM163.331 8.32403H160.879V14.3394H163.331C164.532 14.3394 165.451 14.0712 166.09 13.5348C166.728 12.9984 167.048 12.2576 167.048 11.3125C167.048 10.3419 166.728 9.60117 166.09 9.09031C165.451 8.57945 164.532 8.32403 163.331 8.32403ZM189.227 28.8605H179.188V2.04051H189.227C192.241 2.04051 194.846 2.58967 197.043 3.68801C199.239 4.76081 200.925 6.29338 202.1 8.28571C203.301 10.2781 203.901 12.6663 203.901 15.4505C203.901 18.2091 203.301 20.5973 202.1 22.6152C200.925 24.6076 199.239 26.153 197.043 27.2513C194.846 28.3241 192.241 28.8605 189.227 28.8605ZM188.92 8.55391H186.89V22.347H188.92C190.121 22.347 191.27 22.1682 192.368 21.8106C193.467 21.4275 194.374 20.7378 195.089 19.7417C195.804 18.7455 196.162 17.3151 196.162 15.4505C196.162 13.5603 195.804 12.1299 195.089 11.1593C194.374 10.1631 193.467 9.48622 192.368 9.12862C191.27 8.74548 190.121 8.55391 188.92 8.55391Z" fill="white"/>
</g>
<defs>
<filter id="filter0_d" x="0" y="0" width="208" height="37.6296" filterUnits="userSpaceOnUse" color-interpolation-filters="sRGB">
<feFlood flood-opacity="0" result="BackgroundImageFix"/>
<feColorMatrix in="SourceAlpha" type="matrix" values="0 0 0 0 0 0 0 0 0 0 0 0 0 0 0 0 0 0 127 0"/>
<feOffset dy="4"/>
<feGaussianBlur stdDeviation="2"/>
<feColorMatrix type="matrix" values="0 0 0 0 0 0 0 0 0 0 0 0 0 0 0 0 0 0 0.25 0"/>
<feBlend mode="normal" in2="BackgroundImageFix" result="effect1_dropShadow"/>
<feBlend mode="normal" in="SourceGraphic" in2="effect1_dropShadow" result="shape"/>
</filter>
<linearGradient id="paint0_linear" x1="100" y1="0" x2="100" y2="29.6296" gradientUnits="userSpaceOnUse">
<stop stop-color="#0ABB4D"/>
<stop offset="1" stop-color="#12B952"/>
</linearGradient>
<clipPath id="clip0">
<rect width="200" height="29.6296" fill="white" transform="translate(4)"/>
</clipPath>
</defs>
</svg>
