<svg width="86" height="100" viewBox="0 0 86 100" fill="none" xmlns="http://www.w3.org/2000/svg">
<g clip-path="url(#clip0)">
<path d="M24.9168 26.4066L34.5214 25.325C34.5458 25.3208 34.5705 25.3176 34.5957 25.3157C35.0205 25.2835 35.3911 25.6018 35.4233 26.0266L35.4225 26.0277L36.1385 35.4573L37.4143 40.2186C37.439 40.294 37.4523 40.3745 37.4523 40.4582V47.4121L42.9943 52.9541C43.1359 53.094 43.2236 53.2881 43.2236 53.5028V61.233L49.2754 62.8545C49.5506 62.9127 49.784 63.1197 49.8617 63.41L49.1165 63.6096L49.8609 63.4107L51.5505 69.7166H54.3628C54.7091 69.7101 55.0284 69.9388 55.1221 70.2884L54.3769 70.4881L55.1213 70.2892L56.0287 73.6756C56.0533 73.751 56.0667 73.8315 56.0667 73.9152C56.0667 74.3413 55.7213 74.6867 55.2952 74.6867H25.0012C24.5751 74.6867 24.2297 74.3413 24.2297 73.9152V27.1795V27.172C24.2293 26.7842 24.5205 26.4498 24.9149 26.4054L24.9168 26.4066L24.9168 26.4066Z" fill="white"/>
<path d="M49.791 37.4448H49.7911V37.4466C50.6091 37.4187 51.365 37.7217 51.9285 38.2367C52.4993 38.7584 52.8711 39.4975 52.9085 40.3301C52.9458 41.1609 52.6416 41.9296 52.1197 42.5007C51.598 43.0715 50.8589 43.4433 50.0263 43.4807C49.1955 43.518 48.4267 43.2138 47.8556 42.6918C47.3012 42.1851 46.9345 41.4732 46.8797 40.6698C46.8766 40.6468 46.8745 40.6236 46.8734 40.6V40.5998C46.8729 40.5884 46.8726 40.5769 46.8726 40.5653V40.5652H46.8743C46.8464 39.7472 47.1495 38.9913 47.6645 38.4278C48.1712 37.8734 48.883 37.5068 49.6864 37.4519L49.6966 37.4506L49.6999 37.4502L49.7154 37.4485L49.7212 37.448L49.7352 37.4469L49.7406 37.4465L49.7546 37.4457L49.7565 37.4456V37.4456C49.7679 37.4451 49.7794 37.4448 49.791 37.4448L49.791 37.4448Z" fill="white"/>
<path d="M50.1266 44.2326C50.6811 43.9028 51.2131 43.6914 51.7232 43.5844C53.3405 43.2449 54.6259 43.9309 55.6453 45.2123C56.5515 46.3513 57.2327 47.9858 57.7418 49.7521C58.6992 53.0738 59.0569 56.8989 59.1469 58.6278C59.6139 59.4664 61.739 63.3557 61.7618 64.7283L61.7702 64.7281C61.7703 64.7331 61.8451 66.4942 59.6585 66.6373C59.2817 66.716 57.9466 66.8562 57.25 65.1131L54.6268 60.114L54.624 60.1155C54.5595 59.9926 54.5315 59.8603 54.536 59.7309L54.384 56.3494L51.9805 57.5451L51.6261 60.9414L51.6279 60.9431C51.6104 61.1115 51.5398 61.2615 51.4347 61.3784C51.1036 61.8032 50.6323 62.0898 50.1386 62.2462C49.7678 62.3636 49.3736 62.41 49.014 62.3874C48.6088 62.362 48.2303 62.2445 47.943 62.0374C47.7037 61.8649 47.5275 61.6385 47.4386 61.3579C47.2499 60.7619 47.2985 57.4401 47.2986 57.4305L47.2956 57.4301C47.2963 57.3804 47.3016 57.3319 47.3112 57.2849C47.3544 56.986 47.6085 55.3048 47.9671 54.5554L47.9643 54.5539C48.0461 54.3828 48.1827 54.2558 48.3431 54.1836L51.3991 52.6633L49.9475 50.3247C49.2024 50.8605 48.0467 51.6268 46.9488 52.1025C46.2975 52.3847 45.6534 52.5687 45.0911 52.5603C44.3397 52.5491 43.7413 52.2446 43.4171 51.5034C43.2743 51.1768 43.2018 50.7693 43.2165 50.2676L43.2139 50.2661C43.221 50.0215 43.3414 49.8069 43.5231 49.6708L49.9977 44.3202L49.9975 44.3192C50.0383 44.2854 50.0816 44.2566 50.1266 44.2326L50.1266 44.2326Z" fill="white"/>
<path fill-rule="evenodd" clip-rule="evenodd" d="M35.4354 26.1969L45.4679 49.4426C45.7193 50.0249 45.4256 50.7078 44.8387 50.949C44.2516 51.1902 43.5905 50.8994 43.3317 50.3195L32.9582 27.076C32.6997 26.4967 32.9923 25.7898 33.5874 25.5696C34.7303 25.1467 34.9414 25.4497 35.0955 25.825C35.1565 25.9739 35.4785 25.9915 35.4355 26.197L35.4354 26.1969Z" fill="white"/>
<path d="M60.9882 51.3946C60.9858 51.3991 60.3939 52.5241 59.2993 53.1678C59.1762 52.4545 59.0347 51.7445 58.8717 51.0411C58.7549 50.5371 58.6264 50.0357 58.4831 49.5385C58.0109 47.9002 57.3189 46.077 56.249 44.7321C56.0059 44.4265 55.7463 44.1492 55.4707 43.905C55.8866 43.6429 56.3286 43.4107 56.7697 43.2558C57.8796 42.866 58.9685 42.928 59.7357 43.9936L59.8683 44.307L61.0666 50.8974L60.9882 51.3946L60.9882 51.3946Z" fill="white"/>
<path d="M43.7714 0.452207L64.6495 12.5062L64.6479 12.5088L85.5216 24.5601L86.2991 25.009V25.8921V50.0001V74.1081V74.9912L85.5216 75.4401L64.6479 87.4914L64.6495 87.494L43.7714 99.548L42.9999 99.9934L42.2284 99.548L21.3503 87.494L21.3519 87.4914L0.478176 75.4401L-0.299316 74.9912V74.1081V50.0001V25.8921V25.009L0.478176 24.5601L21.3519 12.5088L21.3503 12.5062L42.2284 0.452207L42.9999 0.00683594L43.7714 0.452207V0.452207ZM42.9999 5.3516L27.6804 14.1963L27.6819 14.199L4.32944 27.6814V72.3189L27.6819 85.8014L27.6804 85.804L43 94.6488L58.3194 85.8041L58.3179 85.8014L81.6704 72.3189V27.6814L58.3179 14.199L58.3194 14.1964L42.9999 5.3516V5.3516Z" fill="white"/>
</g>
<defs>
<clipPath id="clip0">
<rect width="86" height="100" fill="white"/>
</clipPath>
</defs>
</svg>
