<svg width="89" height="89" viewBox="0 0 89 89" fill="none" xmlns="http://www.w3.org/2000/svg">
<circle cx="44.5" cy="44.5" r="44.5" fill="white"/>
<path d="M25.687 20.0931L35.2916 19.0115C35.316 19.0073 35.3408 19.0041 35.366 19.0022C35.7908 18.97 36.1614 19.2883 36.1936 19.7131L36.1928 19.7142L36.9088 29.1439L38.1846 33.9051C38.2092 33.9805 38.2226 34.061 38.2226 34.1447V41.0986L43.7646 46.6406C43.9061 46.7805 43.9939 46.9747 43.9939 47.1894V54.9195L50.0456 56.5411C50.3208 56.5992 50.5542 56.8062 50.632 57.0965L49.8868 57.2962L50.6311 57.0973L52.3208 63.4032H55.1331C55.4794 63.3966 55.7987 63.6254 55.8924 63.975L55.1472 64.1746L55.8915 63.9757L56.7989 67.3621C56.8236 67.4375 56.8369 67.5181 56.8369 67.6017C56.8369 68.0278 56.4915 68.3732 56.0655 68.3732H25.7715C25.3454 68.3732 25 68.0278 25 67.6017V20.8661V20.8585C24.9995 20.4708 25.2908 20.1363 25.6851 20.0919L25.6871 20.0931L25.687 20.0931Z" fill="#1D1D1D"/>
<path d="M50.5613 31.1314H50.5613V31.1331C51.3794 31.1053 52.1353 31.4083 52.6988 31.9233C53.2695 32.4449 53.6414 33.184 53.6788 34.0166C53.7161 34.8474 53.4119 35.6161 52.8899 36.1872C52.3683 36.758 51.6291 37.1298 50.7965 37.1672C49.9657 37.2045 49.1969 36.9003 48.6259 36.3783C48.0715 35.8716 47.7048 35.1598 47.65 34.3563C47.6468 34.3334 47.6447 34.3101 47.6437 34.2865V34.2864C47.6432 34.2749 47.6429 34.2634 47.6429 34.2518V34.2517H47.6446C47.6167 33.4337 47.9197 32.6778 48.4348 32.1143C48.9415 31.56 49.6533 31.1933 50.4567 31.1384L50.4669 31.1371L50.4701 31.1368L50.4857 31.135L50.4915 31.1345L50.5054 31.1334L50.5109 31.133L50.5249 31.1322L50.5267 31.1321V31.1322C50.5382 31.1316 50.5497 31.1314 50.5612 31.1314L50.5613 31.1314Z" fill="#1D1D1D"/>
<path d="M50.8969 37.9191C51.4513 37.5893 51.9834 37.378 52.4934 37.2709C54.1108 36.9315 55.3961 37.6174 56.4156 38.8989C57.3217 40.0379 58.003 41.6723 58.5121 43.4387C59.4694 46.7604 59.8272 50.5854 59.9172 52.3143C60.3841 53.1529 62.5093 57.0422 62.532 58.4148L62.5404 58.4146C62.5405 58.4197 62.6153 60.1807 60.4288 60.3238C60.052 60.4026 58.7169 60.5428 58.0203 58.7996L55.3971 53.8005L55.3943 53.802C55.3298 53.6791 55.3017 53.5469 55.3062 53.4175L55.1542 50.0359L52.7508 51.2316L52.3963 54.628L52.3982 54.6297C52.3806 54.798 52.3101 54.948 52.205 55.0649C51.8738 55.4897 51.4025 55.7764 50.9089 55.9327C50.5381 56.0501 50.1439 56.0965 49.7842 56.0739C49.3791 56.0485 49.0005 55.931 48.7133 55.7239C48.474 55.5514 48.2977 55.325 48.2089 55.0444C48.0201 54.4484 48.0687 51.1266 48.0688 51.1171L48.0659 51.1166C48.0665 51.0669 48.0719 51.0184 48.0814 50.9715C48.1246 50.6725 48.3788 48.9913 48.7373 48.2419L48.7345 48.2404C48.8163 48.0694 48.953 47.9423 49.1133 47.8701L52.1694 46.3498L50.7177 44.0112C49.9726 44.547 48.8169 45.3134 47.7191 45.789C47.0677 46.0712 46.4236 46.2552 45.8614 46.2468C45.1099 46.2356 44.5116 45.9311 44.1874 45.19C44.0445 44.8633 43.9721 44.4558 43.9868 43.9541L43.9841 43.9526C43.9913 43.708 44.1116 43.4934 44.2934 43.3574L50.768 38.0067L50.7677 38.0057C50.8086 37.9719 50.8519 37.9431 50.8969 37.9191L50.8969 37.9191Z" fill="#1D1D1D"/>
<path fill-rule="evenodd" clip-rule="evenodd" d="M36.2057 19.8835L46.2382 43.1291C46.4896 43.7114 46.1959 44.3943 45.609 44.6355C45.0219 44.8767 44.3607 44.5859 44.1019 44.006L33.7285 20.7625C33.47 20.1832 33.7626 19.4763 34.3577 19.2561C35.5005 18.8332 35.7117 19.1362 35.8657 19.5115C35.9268 19.6604 36.2488 19.678 36.2057 19.8835L36.2057 19.8835Z" fill="#1D1D1D"/>
<path d="M61.7585 45.0811C61.756 45.0857 61.1641 46.2106 60.0696 46.8544C59.9464 46.1411 59.805 45.431 59.642 44.7277C59.5252 44.2237 59.3966 43.7222 59.2534 43.225C58.7812 41.5867 58.0892 39.7635 57.0193 38.4186C56.7761 38.113 56.5166 37.8358 56.241 37.5916C56.6569 37.3294 57.0988 37.0972 57.54 36.9423C58.6498 36.5525 59.7388 36.6145 60.506 37.6801L60.6386 37.9935L61.8368 44.5839L61.7585 45.0811L61.7585 45.0811Z" fill="#1D1D1D"/>
</svg>
