<svg width="291" height="32" viewBox="0 0 291 32" fill="none" xmlns="http://www.w3.org/2000/svg">
<mask id="path-1-outside-1" maskUnits="userSpaceOnUse" x="0.376221" y="-0.125" width="290" height="32" fill="black">
<rect fill="white" x="0.376221" y="-0.125" width="290" height="32"/>
<path d="M1.37622 4.17V30.07H6.70422V20.672H8.99822L15.0292 30.07H21.3562L14.3262 20.043C17.8412 18.859 19.8022 16.121 19.8022 12.458C19.8022 7.537 16.2502 4.17 10.1082 4.17H1.37622ZM9.77522 8.758C12.5132 8.758 14.2892 10.164 14.2892 12.606C14.2892 15.048 12.5132 16.454 9.77522 16.454H6.70422V8.758H9.77522Z"/>
<path d="M24.6906 17.12C24.6906 24.964 30.4256 30.736 38.3806 30.736C46.3356 30.736 52.0706 24.964 52.0706 17.12C52.0706 9.276 46.2246 3.652 38.3806 3.652C30.6106 3.652 24.6906 9.276 24.6906 17.12ZM30.3146 17.12C30.3146 12.162 33.6076 8.61 38.3806 8.61C43.2646 8.61 46.4466 12.162 46.4466 17.12C46.4466 22.078 43.1536 25.63 38.3806 25.63C33.6076 25.63 30.3146 22.078 30.3146 17.12Z"/>
<path d="M62.3028 17.12C62.3028 11.977 66.1508 8.758 70.5908 8.758C74.2538 8.758 76.7698 10.312 78.5088 12.31V6.316C76.3998 4.614 74.1428 3.652 70.3688 3.652C62.3768 3.652 56.5308 9.128 56.5308 17.12C56.5308 25.112 62.3768 30.588 70.3688 30.588C74.1428 30.588 76.3998 29.626 78.5088 27.924V21.93C76.7698 23.928 74.2538 25.482 70.5908 25.482C66.1508 25.482 62.3028 22.263 62.3028 17.12Z"/>
<path d="M85.5874 4.17V30.07H91.0634V18.341L100.683 30.07H107.121L95.8734 16.306L106.603 4.17H100.276L91.0634 14.678V4.17H85.5874Z"/>
<path d="M129.062 17.12C129.062 11.977 132.91 8.758 137.35 8.758C141.013 8.758 143.529 10.312 145.268 12.31V6.316C143.159 4.614 140.902 3.652 137.128 3.652C129.136 3.652 123.29 9.128 123.29 17.12C123.29 25.112 129.136 30.588 137.128 30.588C140.902 30.588 143.159 29.626 145.268 27.924V21.93C143.529 23.928 141.013 25.482 137.35 25.482C132.91 25.482 129.062 22.263 129.062 17.12Z"/>
<path d="M152.346 4.17V30.07H167.997V25.408H157.674V4.17H152.346Z"/>
<path d="M172.841 4.17V30.07H178.243V4.17H172.841Z"/>
<path d="M191.447 15.603L198.921 27.665L206.395 15.603L208.06 30.07H213.647L209.725 2.875L198.921 19.562L188.043 2.875L184.195 30.07H189.745L191.447 15.603Z"/>
<path d="M238.445 22.67C238.445 19.118 236.188 17.046 233.117 16.084C235.485 15.085 236.965 13.272 236.965 10.719C236.965 6.316 233.339 4.17 228.233 4.17H219.575V30.07H228.751C234.523 30.07 238.445 27.813 238.445 22.67ZM227.752 8.388C230.046 8.388 231.489 9.498 231.489 11.422C231.489 13.346 230.046 14.53 227.752 14.53H224.903V8.388H227.752ZM224.903 25.852V18.378H228.307C230.971 18.378 232.969 19.488 232.969 22.004C232.969 24.668 230.971 25.852 228.307 25.852H224.903Z"/>
<path d="M244.803 4.17V30.07H261.305V25.556H249.983V18.526H260.565V14.123H249.983V8.684H261.305V4.17H244.803Z"/>
<path d="M268.369 4.17V30.07H273.697V20.672H275.991L282.022 30.07H288.349L281.319 20.043C284.834 18.859 286.795 16.121 286.795 12.458C286.795 7.537 283.243 4.17 277.101 4.17H268.369ZM276.768 8.758C279.506 8.758 281.282 10.164 281.282 12.606C281.282 15.048 279.506 16.454 276.768 16.454H273.697V8.758H276.768Z"/>
</mask>
<path d="M1.37622 4.17V30.07H6.70422V20.672H8.99822L15.0292 30.07H21.3562L14.3262 20.043C17.8412 18.859 19.8022 16.121 19.8022 12.458C19.8022 7.537 16.2502 4.17 10.1082 4.17H1.37622ZM9.77522 8.758C12.5132 8.758 14.2892 10.164 14.2892 12.606C14.2892 15.048 12.5132 16.454 9.77522 16.454H6.70422V8.758H9.77522Z" stroke="white" stroke-width="2" mask="url(#path-1-outside-1)"/>
<path d="M24.6906 17.12C24.6906 24.964 30.4256 30.736 38.3806 30.736C46.3356 30.736 52.0706 24.964 52.0706 17.12C52.0706 9.276 46.2246 3.652 38.3806 3.652C30.6106 3.652 24.6906 9.276 24.6906 17.12ZM30.3146 17.12C30.3146 12.162 33.6076 8.61 38.3806 8.61C43.2646 8.61 46.4466 12.162 46.4466 17.12C46.4466 22.078 43.1536 25.63 38.3806 25.63C33.6076 25.63 30.3146 22.078 30.3146 17.12Z" stroke="white" stroke-width="2" mask="url(#path-1-outside-1)"/>
<path d="M62.3028 17.12C62.3028 11.977 66.1508 8.758 70.5908 8.758C74.2538 8.758 76.7698 10.312 78.5088 12.31V6.316C76.3998 4.614 74.1428 3.652 70.3688 3.652C62.3768 3.652 56.5308 9.128 56.5308 17.12C56.5308 25.112 62.3768 30.588 70.3688 30.588C74.1428 30.588 76.3998 29.626 78.5088 27.924V21.93C76.7698 23.928 74.2538 25.482 70.5908 25.482C66.1508 25.482 62.3028 22.263 62.3028 17.12Z" stroke="white" stroke-width="2" mask="url(#path-1-outside-1)"/>
<path d="M85.5874 4.17V30.07H91.0634V18.341L100.683 30.07H107.121L95.8734 16.306L106.603 4.17H100.276L91.0634 14.678V4.17H85.5874Z" stroke="white" stroke-width="2" mask="url(#path-1-outside-1)"/>
<path d="M129.062 17.12C129.062 11.977 132.91 8.758 137.35 8.758C141.013 8.758 143.529 10.312 145.268 12.31V6.316C143.159 4.614 140.902 3.652 137.128 3.652C129.136 3.652 123.29 9.128 123.29 17.12C123.29 25.112 129.136 30.588 137.128 30.588C140.902 30.588 143.159 29.626 145.268 27.924V21.93C143.529 23.928 141.013 25.482 137.35 25.482C132.91 25.482 129.062 22.263 129.062 17.12Z" stroke="white" stroke-width="2" mask="url(#path-1-outside-1)"/>
<path d="M152.346 4.17V30.07H167.997V25.408H157.674V4.17H152.346Z" stroke="white" stroke-width="2" mask="url(#path-1-outside-1)"/>
<path d="M172.841 4.17V30.07H178.243V4.17H172.841Z" stroke="white" stroke-width="2" mask="url(#path-1-outside-1)"/>
<path d="M191.447 15.603L198.921 27.665L206.395 15.603L208.06 30.07H213.647L209.725 2.875L198.921 19.562L188.043 2.875L184.195 30.07H189.745L191.447 15.603Z" stroke="white" stroke-width="2" mask="url(#path-1-outside-1)"/>
<path d="M238.445 22.67C238.445 19.118 236.188 17.046 233.117 16.084C235.485 15.085 236.965 13.272 236.965 10.719C236.965 6.316 233.339 4.17 228.233 4.17H219.575V30.07H228.751C234.523 30.07 238.445 27.813 238.445 22.67ZM227.752 8.388C230.046 8.388 231.489 9.498 231.489 11.422C231.489 13.346 230.046 14.53 227.752 14.53H224.903V8.388H227.752ZM224.903 25.852V18.378H228.307C230.971 18.378 232.969 19.488 232.969 22.004C232.969 24.668 230.971 25.852 228.307 25.852H224.903Z" stroke="white" stroke-width="2" mask="url(#path-1-outside-1)"/>
<path d="M244.803 4.17V30.07H261.305V25.556H249.983V18.526H260.565V14.123H249.983V8.684H261.305V4.17H244.803Z" stroke="white" stroke-width="2" mask="url(#path-1-outside-1)"/>
<path d="M268.369 4.17V30.07H273.697V20.672H275.991L282.022 30.07H288.349L281.319 20.043C284.834 18.859 286.795 16.121 286.795 12.458C286.795 7.537 283.243 4.17 277.101 4.17H268.369ZM276.768 8.758C279.506 8.758 281.282 10.164 281.282 12.606C281.282 15.048 279.506 16.454 276.768 16.454H273.697V8.758H276.768Z" stroke="white" stroke-width="2" mask="url(#path-1-outside-1)"/>
</svg>
