<svg width="181" height="181" viewBox="0 0 181 181" fill="none" xmlns="http://www.w3.org/2000/svg">
<circle cx="90.9692" cy="90.4199" r="90" fill="#FF8484"/>
<path d="M91.436 11.9854C134.035 11.9854 169.729 46.1246 169.729 90.2783C169.729 132.822 135.442 168.42 91.6988 168.549C45.0205 168.699 10.1711 129.973 13.5568 82.2097C17.6182 42.4761 51.269 11.9854 91.436 11.9854ZM120.616 134.147L108.824 120.559H74.0474L62.2559 134.147L75.5445 162.689C86.0069 164.973 96.8623 164.973 107.307 162.689L120.615 134.147H120.616ZM112.099 117.995L123.891 131.601L155.41 127.746C160.914 118.369 164.17 108.038 165.199 97.5183L142.215 76.1065L122.787 85.1087L112.099 117.995ZM58.9627 131.601L70.7727 117.995L60.0853 85.1109L40.6579 76.1088L17.6551 97.539C18.685 108.039 21.9601 118.371 27.4621 127.747L58.9622 131.602L58.9627 131.601ZM42.0997 72.2134L61.5458 81.2155L89.3582 61.0205V37.6814L61.7138 22.3339C52.0563 26.5637 43.3151 32.853 36.0156 41.0318L42.0986 72.2131L42.0997 72.2134ZM121.327 81.2155L140.773 72.2134L146.837 41.0321C139.556 32.8533 130.797 26.5639 121.158 22.3342L93.5138 37.6816V61.0208L121.327 81.2155Z" fill="black"/>
<path d="M13.3933 168.824C13.3901 168.828 13.3869 168.829 13.3848 168.829H13.3719C13.3633 168.829 13.3548 168.827 13.3462 168.82C13.3398 168.815 13.3376 168.806 13.3376 168.795C13.3376 168.786 13.3398 168.78 13.3462 168.773C13.3548 168.765 13.3633 168.76 13.3719 168.76C13.3773 168.76 13.3815 168.762 13.3848 168.765H13.3933V168.782C13.3901 168.78 13.3869 168.777 13.3848 168.777C13.3815 168.775 13.3783 168.773 13.3762 168.773C13.3698 168.773 13.3644 168.776 13.3591 168.782C13.3558 168.785 13.3548 168.789 13.3548 168.795C13.3548 168.803 13.3558 168.81 13.3591 168.812C13.3644 168.815 13.3698 168.816 13.3762 168.816H13.3848C13.3869 168.816 13.3901 168.815 13.3933 168.812V168.824Z" fill="black"/>
<path d="M13.4438 168.793C13.4438 168.791 13.4417 168.789 13.4397 168.789C13.4334 168.789 13.4293 168.791 13.4272 168.793V168.806V168.827H13.4106V168.777H13.4272V168.785C13.4272 168.783 13.4283 168.781 13.4314 168.781C13.4334 168.779 13.4366 168.777 13.4397 168.777H13.4438V168.793Z" fill="black"/>
<path d="M13.5021 168.802V168.806H13.469V168.818H13.4814H13.4897C13.4949 168.816 13.499 168.813 13.5021 168.81V168.822C13.499 168.826 13.4949 168.827 13.4897 168.827H13.4814C13.47 168.827 13.4617 168.826 13.4565 168.822C13.4534 168.817 13.4524 168.81 13.4524 168.802C13.4524 168.793 13.4534 168.788 13.4565 168.785C13.4617 168.78 13.469 168.777 13.4773 168.777C13.4856 168.777 13.4907 168.78 13.4938 168.785C13.499 168.788 13.5021 168.793 13.5021 168.802ZM13.4897 168.798C13.4897 168.796 13.4876 168.793 13.4856 168.793C13.4824 168.791 13.4793 168.789 13.4773 168.789C13.4742 168.789 13.471 168.791 13.469 168.793V168.798H13.4897Z" fill="black"/>
<path d="M13.541 168.806C13.5379 168.806 13.5348 168.808 13.5327 168.81V168.818H13.5368C13.542 168.818 13.5451 168.817 13.5451 168.814C13.5472 168.812 13.5493 168.809 13.5493 168.806H13.541ZM13.5659 168.798V168.827H13.5493V168.818C13.5462 168.821 13.5431 168.825 13.541 168.827H13.5327C13.5265 168.827 13.5223 168.826 13.5203 168.822C13.5171 168.82 13.5161 168.816 13.5161 168.81C13.5161 168.805 13.5171 168.802 13.5203 168.802C13.5254 168.8 13.5327 168.798 13.541 168.798H13.5493V168.793C13.5493 168.791 13.5472 168.789 13.5451 168.789H13.5368H13.5285H13.5203V168.781C13.5223 168.779 13.5254 168.777 13.5285 168.777H13.541C13.5493 168.777 13.5545 168.78 13.5576 168.785C13.5627 168.788 13.5659 168.792 13.5659 168.798V168.798Z" fill="black"/>
<path d="M13.5999 168.765V168.777H13.617V168.79H13.5999V168.812V168.816H13.6042H13.6128V168.829H13.5999C13.5935 168.829 13.5892 168.828 13.5871 168.825C13.5839 168.822 13.5828 168.818 13.5828 168.812V168.79H13.5742V168.777H13.5828V168.765H13.5999Z" fill="black"/>
<path d="M13.6733 168.802V168.806H13.6401V168.818H13.6525H13.6608C13.666 168.816 13.6702 168.813 13.6733 168.81V168.822C13.6702 168.826 13.666 168.827 13.6608 168.827H13.6525C13.6412 168.827 13.6329 168.826 13.6277 168.822C13.6246 168.817 13.6235 168.81 13.6235 168.802C13.6235 168.793 13.6246 168.788 13.6277 168.785C13.6329 168.78 13.6401 168.777 13.6484 168.777C13.6567 168.777 13.6619 168.78 13.665 168.785C13.6702 168.788 13.6733 168.793 13.6733 168.802ZM13.6608 168.798C13.6608 168.796 13.6588 168.793 13.6567 168.793C13.6536 168.791 13.6505 168.789 13.6484 168.789C13.6453 168.789 13.6422 168.791 13.6401 168.793V168.798H13.6608Z" fill="black"/>
<path d="M13.7258 168.786V168.76H13.7386V168.829H13.7258V168.82C13.7226 168.823 13.7194 168.827 13.7172 168.829H13.7087C13.7022 168.829 13.6969 168.828 13.6915 168.824C13.6883 168.819 13.6873 168.812 13.6873 168.803C13.6873 168.795 13.6883 168.789 13.6915 168.786C13.6969 168.781 13.7022 168.777 13.7087 168.777C13.7108 168.777 13.714 168.78 13.7172 168.782C13.7194 168.782 13.7226 168.784 13.7258 168.786ZM13.713 168.82C13.7151 168.82 13.7183 168.819 13.7215 168.816C13.7237 168.814 13.7258 168.81 13.7258 168.803C13.7258 168.801 13.7237 168.798 13.7215 168.795C13.7183 168.792 13.7151 168.79 13.713 168.79C13.7097 168.79 13.7065 168.792 13.7044 168.795V168.803V168.816C13.7065 168.819 13.7097 168.82 13.713 168.82Z" fill="black"/>
<path d="M13.8165 168.82C13.8186 168.82 13.8208 168.819 13.8208 168.816C13.8229 168.814 13.825 168.81 13.825 168.803C13.825 168.801 13.8229 168.798 13.8208 168.795C13.8208 168.792 13.8186 168.79 13.8165 168.79C13.8133 168.79 13.81 168.792 13.8079 168.795V168.803V168.816C13.81 168.819 13.8133 168.82 13.8165 168.82ZM13.8079 168.786C13.8079 168.784 13.809 168.782 13.8122 168.782C13.8143 168.78 13.8175 168.777 13.8208 168.777C13.8293 168.777 13.8347 168.781 13.8379 168.786C13.84 168.789 13.8422 168.795 13.8422 168.803C13.8422 168.812 13.84 168.819 13.8379 168.824C13.8347 168.828 13.8293 168.829 13.8208 168.829H13.8122C13.809 168.827 13.8079 168.823 13.8079 168.82V168.829H13.7908V168.76H13.8079V168.786Z" fill="black"/>
<path d="M13.8506 168.777H13.8677L13.8806 168.811L13.8934 168.777H13.9105L13.8891 168.833C13.8859 168.838 13.8827 168.842 13.8806 168.845C13.8774 168.848 13.8731 168.85 13.8677 168.85H13.8592V168.837H13.8634H13.8677C13.8699 168.837 13.872 168.835 13.872 168.833V168.828L13.8506 168.777Z" fill="black"/>
<path d="M14.0014 168.798V168.827H13.9848V168.806V168.798C13.9848 168.796 13.9827 168.793 13.9807 168.793V168.789H13.9765C13.9734 168.789 13.9703 168.791 13.9682 168.793V168.802V168.827H13.9517V168.777H13.9682V168.785C13.9682 168.783 13.9693 168.781 13.9724 168.781C13.9745 168.779 13.9776 168.777 13.9807 168.777C13.9859 168.777 13.99 168.78 13.9931 168.785C13.9983 168.788 14.0014 168.792 14.0014 168.798V168.798Z" fill="black"/>
<path d="M14.0095 168.777H14.0267L14.0395 168.811L14.0523 168.777H14.0695L14.0481 168.833C14.0449 168.838 14.0416 168.842 14.0395 168.845C14.0363 168.848 14.032 168.85 14.0267 168.85H14.0181V168.837H14.0224H14.0267C14.0288 168.837 14.0309 168.835 14.0309 168.833V168.828L14.0095 168.777Z" fill="black"/>
<path d="M14.1004 168.79C14.0972 168.79 14.094 168.792 14.0919 168.794V168.803V168.815C14.094 168.819 14.0972 168.82 14.1004 168.82C14.1058 168.82 14.109 168.819 14.109 168.815C14.1111 168.813 14.1133 168.809 14.1133 168.803C14.1133 168.797 14.1111 168.794 14.109 168.794C14.109 168.792 14.1058 168.79 14.1004 168.79ZM14.1004 168.777C14.109 168.777 14.1154 168.78 14.1219 168.785C14.1272 168.789 14.1304 168.794 14.1304 168.803C14.1304 168.811 14.1272 168.819 14.1219 168.824C14.1154 168.827 14.109 168.828 14.1004 168.828C14.0919 168.828 14.0844 168.827 14.079 168.824C14.0758 168.819 14.0747 168.811 14.0747 168.803C14.0747 168.794 14.0758 168.789 14.079 168.785C14.0844 168.78 14.0919 168.777 14.1004 168.777Z" fill="black"/>
<path d="M14.144 168.76H14.1612V168.799L14.1783 168.777H14.1954L14.1697 168.803L14.1997 168.829H14.1783L14.1612 168.807V168.829H14.144L14.144 168.76Z" fill="black"/>
<path d="M14.2276 168.79C14.2244 168.79 14.2212 168.792 14.219 168.794V168.803V168.815C14.2212 168.819 14.2244 168.82 14.2276 168.82C14.233 168.82 14.2362 168.819 14.2362 168.815C14.2383 168.813 14.2405 168.809 14.2405 168.803C14.2405 168.797 14.2383 168.794 14.2362 168.794C14.2362 168.792 14.233 168.79 14.2276 168.79ZM14.2276 168.777C14.2362 168.777 14.2426 168.78 14.249 168.785C14.2544 168.789 14.2576 168.794 14.2576 168.803C14.2576 168.811 14.2544 168.819 14.249 168.824C14.2426 168.827 14.2362 168.828 14.2276 168.828C14.219 168.828 14.2115 168.827 14.2062 168.824C14.203 168.819 14.2019 168.811 14.2019 168.803C14.2019 168.794 14.203 168.789 14.2062 168.785C14.2115 168.78 14.219 168.777 14.2276 168.777Z" fill="black"/>
<path d="M14.3202 168.798V168.827H14.3037V168.806V168.798C14.3037 168.796 14.3016 168.793 14.2995 168.793V168.789H14.2954C14.2923 168.789 14.2892 168.791 14.2871 168.793V168.802V168.827H14.2705V168.777H14.2871V168.785C14.2871 168.783 14.2881 168.781 14.2912 168.781C14.2933 168.779 14.2964 168.777 14.2995 168.777C14.3047 168.777 14.3088 168.78 14.312 168.785C14.3171 168.788 14.3202 168.792 14.3202 168.798V168.798Z" fill="black"/>
<path d="M13.372 168.854V168.862H13.3635C13.3635 168.862 13.3613 168.864 13.3592 168.866V168.871H13.372V168.883H13.3592V168.922H13.3421V168.883H13.3335V168.871H13.3421C13.3421 168.865 13.3431 168.861 13.3463 168.858C13.3485 168.856 13.3549 168.854 13.3635 168.854H13.372Z" fill="black"/>
<path d="M13.4155 168.887C13.4155 168.885 13.4134 168.883 13.4113 168.883C13.4051 168.883 13.401 168.885 13.3989 168.887V168.899V168.92H13.3823V168.87H13.3989V168.878C13.3989 168.876 13.3999 168.874 13.403 168.874C13.4051 168.872 13.4082 168.87 13.4113 168.87H13.4155V168.887Z" fill="black"/>
<path d="M13.4503 168.883C13.4471 168.883 13.4438 168.885 13.4417 168.887V168.896V168.909C13.4438 168.912 13.4471 168.913 13.4503 168.913C13.4556 168.913 13.4588 168.912 13.4588 168.909C13.461 168.907 13.4631 168.902 13.4631 168.896C13.4631 168.89 13.461 168.887 13.4588 168.887C13.4588 168.885 13.4556 168.883 13.4503 168.883ZM13.4503 168.87C13.4588 168.87 13.4653 168.873 13.4717 168.879C13.4771 168.882 13.4803 168.887 13.4803 168.896C13.4803 168.904 13.4771 168.912 13.4717 168.917C13.4653 168.92 13.4588 168.922 13.4503 168.922C13.4417 168.922 13.4342 168.92 13.4288 168.917C13.4256 168.912 13.4246 168.904 13.4246 168.896C13.4246 168.887 13.4256 168.882 13.4288 168.879C13.4342 168.873 13.4417 168.87 13.4503 168.87Z" fill="black"/>
<path d="M13.5424 168.879C13.5424 168.877 13.5435 168.874 13.5468 168.874C13.549 168.872 13.5523 168.87 13.5556 168.87C13.561 168.87 13.5654 168.873 13.5687 168.879C13.5741 168.882 13.5774 168.887 13.5774 168.892V168.923H13.5599V168.896V168.892C13.5599 168.89 13.5577 168.888 13.5556 168.888C13.5556 168.885 13.5534 168.883 13.5512 168.883C13.5479 168.883 13.5446 168.885 13.5424 168.888V168.896V168.923H13.525V168.896V168.888C13.525 168.885 13.5228 168.883 13.5206 168.883C13.5173 168.883 13.514 168.885 13.5119 168.888V168.896V168.923H13.4944V168.87H13.5119V168.879C13.5119 168.877 13.513 168.874 13.5162 168.874C13.5184 168.872 13.5217 168.87 13.525 168.87C13.5272 168.87 13.5304 168.872 13.5337 168.874C13.5359 168.874 13.5392 168.877 13.5424 168.879V168.879Z" fill="black"/>
<path d="M13.6404 168.858V168.871H13.6576V168.884H13.6404V168.906V168.91H13.6447H13.6533V168.923H13.6404C13.634 168.923 13.6297 168.922 13.6276 168.918C13.6244 168.916 13.6233 168.912 13.6233 168.906V168.884H13.6147V168.871H13.6233V168.858H13.6404Z" fill="black"/>
<path d="M13.7203 168.892V168.922H13.7032V168.901V168.892C13.7032 168.89 13.7011 168.888 13.6989 168.888V168.883H13.6946C13.6914 168.883 13.6882 168.886 13.6861 168.888V168.896V168.922H13.6689V168.854H13.6861V168.879C13.6861 168.877 13.6871 168.875 13.6904 168.875C13.6925 168.873 13.6957 168.871 13.6989 168.871C13.7043 168.871 13.7086 168.874 13.7118 168.879C13.7171 168.882 13.7203 168.887 13.7203 168.892V168.892Z" fill="black"/>
<path d="M13.7809 168.895V168.899H13.7478V168.912H13.7602H13.7685C13.7737 168.909 13.7778 168.906 13.7809 168.903V168.916C13.7778 168.919 13.7737 168.92 13.7685 168.92H13.7602C13.7488 168.92 13.7405 168.919 13.7353 168.916C13.7322 168.911 13.7312 168.903 13.7312 168.895C13.7312 168.887 13.7322 168.882 13.7353 168.878C13.7405 168.873 13.7478 168.87 13.7561 168.87C13.7644 168.87 13.7695 168.873 13.7727 168.878C13.7778 168.882 13.7809 168.887 13.7809 168.895ZM13.7685 168.891C13.7685 168.889 13.7664 168.887 13.7644 168.887C13.7613 168.885 13.7581 168.883 13.7561 168.883C13.753 168.883 13.7499 168.885 13.7478 168.887V168.891H13.7685Z" fill="black"/>
<path d="M13.8311 168.854H13.8482L13.8739 168.901V168.854H13.891V168.922H13.8696L13.8482 168.875V168.922H13.8311V168.854Z" fill="black"/>
<path d="M13.9305 168.883C13.9273 168.883 13.9241 168.885 13.9219 168.887V168.896V168.909C13.9241 168.912 13.9273 168.913 13.9305 168.913C13.9359 168.913 13.9391 168.912 13.9391 168.909C13.9412 168.907 13.9434 168.902 13.9434 168.896C13.9434 168.89 13.9412 168.887 13.9391 168.887C13.9391 168.885 13.9359 168.883 13.9305 168.883ZM13.9305 168.87C13.9391 168.87 13.9455 168.873 13.9519 168.879C13.9573 168.882 13.9605 168.887 13.9605 168.896C13.9605 168.904 13.9573 168.912 13.9519 168.917C13.9455 168.92 13.9391 168.922 13.9305 168.922C13.9219 168.922 13.9144 168.92 13.9091 168.917C13.9059 168.912 13.9048 168.904 13.9048 168.896C13.9048 168.887 13.9059 168.882 13.9091 168.879C13.9144 168.873 13.9219 168.87 13.9305 168.87Z" fill="black"/>
<path d="M13.9731 168.899V168.87H13.9856V168.874V168.887V168.895V168.903C13.9877 168.903 13.9897 168.905 13.9897 168.907H13.9939H14.0022C14.0042 168.905 14.0063 168.901 14.0063 168.895V168.87H14.0187V168.92H14.0063V168.912C14.0032 168.915 14.0001 168.918 13.998 168.92H13.9897C13.9835 168.92 13.9794 168.919 13.9773 168.916C13.9742 168.914 13.9731 168.907 13.9731 168.899V168.899Z" fill="black"/>
<path d="M14.09 168.891V168.92H14.0734V168.899V168.891C14.0734 168.889 14.0714 168.887 14.0693 168.887V168.883H14.0652C14.062 168.883 14.0589 168.885 14.0569 168.887V168.895V168.92H14.0403V168.87H14.0569V168.878C14.0569 168.876 14.0579 168.874 14.061 168.874C14.0631 168.872 14.0662 168.87 14.0693 168.87C14.0745 168.87 14.0786 168.873 14.0817 168.878C14.0869 168.882 14.09 168.886 14.09 168.891V168.891Z" fill="black"/>
<path d="M14.1394 168.854H14.1694C14.178 168.854 14.1833 168.857 14.1865 168.862C14.1919 168.865 14.1951 168.871 14.1951 168.879C14.1951 168.886 14.1919 168.891 14.1865 168.896C14.1833 168.9 14.178 168.901 14.1694 168.901H14.1565V168.922H14.1394L14.1394 168.854ZM14.1565 168.866V168.888H14.1651H14.1737C14.1758 168.886 14.1779 168.882 14.1779 168.879C14.1779 168.874 14.1758 168.871 14.1737 168.871C14.1705 168.869 14.1672 168.866 14.1651 168.866H14.1565Z" fill="black"/>
<path d="M14.2409 168.887C14.2409 168.885 14.2389 168.883 14.2368 168.883C14.2306 168.883 14.2264 168.885 14.2243 168.887V168.899V168.92H14.2078V168.87H14.2243V168.878C14.2243 168.876 14.2254 168.874 14.2285 168.874C14.2306 168.872 14.2337 168.87 14.2368 168.87H14.2409V168.887Z" fill="black"/>
<path d="M14.2755 168.883C14.2723 168.883 14.269 168.885 14.2669 168.887V168.896V168.909C14.269 168.912 14.2723 168.913 14.2755 168.913C14.2808 168.913 14.284 168.912 14.284 168.909C14.2862 168.907 14.2883 168.902 14.2883 168.896C14.2883 168.89 14.2862 168.887 14.284 168.887C14.284 168.885 14.2808 168.883 14.2755 168.883ZM14.2755 168.87C14.284 168.87 14.2905 168.873 14.2969 168.879C14.3023 168.882 14.3055 168.887 14.3055 168.896C14.3055 168.904 14.3023 168.912 14.2969 168.917C14.2905 168.92 14.284 168.922 14.2755 168.922C14.2669 168.922 14.2594 168.92 14.254 168.917C14.2508 168.912 14.2498 168.904 14.2498 168.896C14.2498 168.887 14.2508 168.882 14.254 168.879C14.2594 168.873 14.2669 168.87 14.2755 168.87Z" fill="black"/>
<path d="M14.318 168.871H14.3353V168.923C14.3353 168.928 14.3321 168.933 14.3267 168.936C14.3234 168.942 14.3191 168.945 14.3136 168.945H14.3049V168.932H14.3093C14.3114 168.932 14.3136 168.93 14.3136 168.927C14.3158 168.927 14.318 168.925 14.318 168.923V168.871ZM14.318 168.854H14.3353V168.867H14.318V168.854Z" fill="black"/>
<path d="M14.3957 168.895V168.899H14.3625V168.912H14.375H14.3833C14.3884 168.909 14.3926 168.906 14.3957 168.903V168.916C14.3926 168.919 14.3884 168.92 14.3833 168.92H14.375C14.3636 168.92 14.3553 168.919 14.3501 168.916C14.347 168.911 14.3459 168.903 14.3459 168.895C14.3459 168.887 14.347 168.882 14.3501 168.878C14.3553 168.873 14.3625 168.87 14.3708 168.87C14.3791 168.87 14.3843 168.873 14.3874 168.878C14.3926 168.882 14.3957 168.887 14.3957 168.895ZM14.3833 168.891C14.3833 168.889 14.3812 168.887 14.3791 168.887C14.376 168.885 14.3729 168.883 14.3708 168.883C14.3677 168.883 14.3646 168.885 14.3625 168.887V168.891H14.3833Z" fill="black"/>
<path d="M14.4509 168.874V168.887C14.4478 168.885 14.4447 168.883 14.4426 168.883H14.4384C14.4353 168.883 14.4322 168.885 14.4301 168.887C14.427 168.89 14.426 168.893 14.426 168.895C14.426 168.901 14.427 168.905 14.4301 168.907C14.4322 168.911 14.4353 168.912 14.4384 168.912H14.4467C14.4488 168.909 14.4509 168.907 14.4509 168.907V168.92H14.4426H14.4384C14.427 168.92 14.4187 168.919 14.4136 168.916C14.4105 168.911 14.4094 168.903 14.4094 168.895C14.4094 168.887 14.4105 168.882 14.4136 168.878C14.4187 168.873 14.427 168.87 14.4384 168.87H14.4426C14.4447 168.87 14.4478 168.872 14.4509 168.874Z" fill="black"/>
<path d="M14.4871 168.858V168.871H14.5043V168.884H14.4871V168.906V168.91H14.4914H14.5V168.923H14.4871C14.4807 168.923 14.4764 168.922 14.4743 168.918C14.4711 168.916 14.47 168.912 14.47 168.906V168.884H14.4614V168.871H14.47V168.858H14.4871Z" fill="black"/>
</svg>
