<svg width="84" height="84" viewBox="0 0 84 84" fill="none" xmlns="http://www.w3.org/2000/svg">
<path d="M21.9454 52.1769L30.4898 58.9755C30.8263 59.2433 31.3144 59.1855 31.58 58.8464L36.2212 52.9236C36.4868 52.5845 36.4296 52.0925 36.0931 51.8249L27.5487 45.0263C27.2122 44.7585 26.7241 44.8163 26.4585 45.1554L21.8173 51.0783C21.5515 51.4173 21.6089 51.9091 21.9454 52.1769Z" fill="white"/>
<path d="M25.1116 43.0869L17.0142 36.644C16.6777 36.3762 16.1896 36.434 15.9239 36.7731L11.2827 42.6959C11.0171 43.035 11.0745 43.527 11.4109 43.7946L19.5083 50.2375C19.8448 50.5053 20.3329 50.4475 20.5986 50.1084L25.2398 44.1856C25.5056 43.8465 25.4482 43.3545 25.1116 43.0869Z" fill="white"/>
<path d="M42.6586 43.446L34.1143 36.6474C33.7778 36.3796 33.2897 36.4374 33.024 36.7765L28.3828 42.6993C28.1172 43.0384 28.1746 43.5302 28.511 43.798L37.0553 50.5966C37.3918 50.8644 37.8799 50.8066 38.1455 50.4675L42.7867 44.5447C43.0526 44.2058 42.9951 43.7138 42.6586 43.446Z" fill="white"/>
<path d="M17.9766 35.4161L26.0741 41.8591C26.4106 42.1269 26.8987 42.0691 27.1645 41.73L31.8057 35.8072C32.0714 35.4681 32.0139 34.9763 31.6776 34.7085L23.5802 28.2656C23.2436 27.9978 22.7555 28.0556 22.4899 28.3947L17.8487 34.3175C17.5827 34.6566 17.6401 35.1484 17.9766 35.4161Z" fill="white"/>
<path d="M25.3097 24.7959L24.4138 25.9393C24.1482 26.2783 24.2056 26.7701 24.542 27.0379L32.6394 33.4809C32.9759 33.7486 33.464 33.6908 33.7299 33.3518L37.783 28.1793C33.6168 26.0807 29.3213 24.9447 25.3097 24.7959Z" fill="white"/>
<path d="M23.1954 24.9694L23.327 24.8013C22.8379 24.8237 22.3561 24.8653 21.8792 24.9188L22.1049 25.0985C22.4415 25.3665 22.9295 25.3087 23.1954 24.9694Z" fill="white"/>
<path d="M56.5081 52.4725C56.4384 51.9051 56.3452 51.3342 56.23 50.7607L55.9917 51.0648C55.7261 51.4039 55.7835 51.8957 56.1198 52.1635L56.5081 52.4725Z" fill="white"/>
<path d="M39.4923 52.5358L47.1175 58.603C47.454 58.8707 47.9421 58.8129 48.2077 58.4739L52.8489 52.551C53.1146 52.2119 53.0573 51.72 52.7208 51.4524L45.0956 45.3852C44.7591 45.1174 44.271 45.1752 44.0054 45.5143L39.3642 51.4371C39.0984 51.7762 39.1558 52.268 39.4923 52.5358Z" fill="white"/>
<path d="M41.6425 66.8528L46.2837 60.9299C46.5493 60.5909 46.4921 60.0991 46.1555 59.8313L38.5304 53.7641C38.1938 53.4963 37.7057 53.5541 37.4399 53.8932L32.7989 59.816C32.5333 60.1551 32.5905 60.6469 32.927 60.9147L40.5522 66.9819C40.8886 67.2496 41.3766 67.1916 41.6425 66.8528Z" fill="white"/>
<path d="M42.0268 70.1489C41.6903 69.8811 41.2022 69.9389 40.9364 70.278L40.47 70.8733C41.2274 70.8473 41.9719 70.7848 42.7004 70.6848L42.0268 70.1489Z" fill="white"/>
<path d="M39.7179 69.3083C39.9835 68.9693 39.9261 68.4775 39.5897 68.2097L31.9646 62.1425C31.628 61.8747 31.1399 61.9326 30.8743 62.2716L26.6431 67.6714C30.6069 69.6118 34.6776 70.682 38.4995 70.8634L39.7179 69.3083Z" fill="white"/>
<path d="M21.1428 26.3264L19.8676 25.3117C19.8467 25.2951 19.8301 25.275 19.8111 25.2568C16.3809 26.0043 13.3811 27.6311 11.1572 30.1539C11.3027 30.1668 11.4461 30.2203 11.5693 30.3182L15.5395 33.4771C15.876 33.7449 16.3641 33.6871 16.6297 33.348L21.2709 27.4252C21.5365 27.0859 21.4793 26.5939 21.1428 26.3264Z" fill="white"/>
<path d="M42.9891 68.9205L44.7237 70.3006C48.0393 69.4907 50.9262 67.8375 53.0647 65.3283L48.5924 61.77C48.2559 61.5022 47.7678 61.56 47.5022 61.8991L42.861 67.8219C42.5952 68.1608 42.6526 68.6528 42.9891 68.9205Z" fill="white"/>
<path d="M19.8593 63.3696C21.5946 64.7504 23.4003 65.9377 25.2376 66.9407L29.6562 61.302C29.9218 60.9629 29.8646 60.4709 29.528 60.2033L20.9837 53.4047C20.6472 53.1369 20.1591 53.1948 19.8933 53.5338L15.4341 59.2242C16.7603 60.6836 18.2343 62.0766 19.8593 63.3696Z" fill="white"/>
<path d="M42 0.533203C19.0987 0.533203 0.533447 19.0986 0.533447 42C0.533447 64.9014 19.0987 83.4668 42 83.4668C49.0242 83.4668 55.6394 81.7187 61.4369 78.6358C62.7626 77.9308 62.8643 76.1174 61.6893 75.1826C61.0466 74.6711 60.9369 73.4611 60.2266 73.0484C57.1949 71.2867 54.6028 70.7388 52.862 70.6074C51.5552 70.5088 50.311 71.0102 49.1223 71.5621C40.5487 75.5428 28.2704 73.4559 18.2211 65.46C5.24126 55.1322 0.902783 38.8686 8.53091 29.134C15.5196 20.2153 30.1278 19.873 42.5096 27.8205C42.9121 28.0789 43.1018 28.5616 43.0228 29.0333C42.8679 29.958 41.772 30.5033 40.9812 29.9997C40.7653 29.8622 40.5487 29.7273 40.3314 29.5951C39.6753 29.1958 38.8297 29.3678 38.356 29.9724L34.9483 34.3211C34.6827 34.6602 34.7401 35.152 35.0764 35.4197L43.6208 42.2184C43.9573 42.4861 44.4454 42.4283 44.711 42.0893L45.3612 41.2594C45.6567 40.8822 46.229 40.8858 46.5469 41.2443C46.7916 41.5203 46.8134 41.9308 46.5858 42.2212L45.9295 43.0588C45.6639 43.3979 45.7213 43.8896 46.0577 44.1574L53.6829 50.2246C54.0194 50.4924 54.5075 50.4346 54.7731 50.0955L55.3496 49.3598C55.6096 49.0281 55.6969 48.5911 55.5701 48.1891C55.5378 48.0868 55.5048 47.9845 55.4712 47.8822C55.1864 47.0168 55.9266 46.0987 56.8365 46.142C57.3199 46.1649 57.759 46.4618 57.9116 46.921C59.3108 51.1322 59.6682 55.3672 58.8744 59.2166C58.6269 60.4171 58.4503 61.6563 58.8111 62.8277C59.3912 64.711 60.7474 67.5985 63.9127 70.5911C63.949 70.6253 64.0076 70.6217 64.0383 70.5824C64.3756 70.152 64.9954 70.0785 65.4227 70.4185C67.5696 72.1268 70.6623 72.0907 72.5201 70.0718C79.3165 62.6865 83.4666 52.8281 83.4666 42.0004C83.4666 19.0986 64.9014 0.533203 42 0.533203ZM56.8038 44.0729C55.7073 44.0096 54.6262 43.8063 53.5889 43.4666C51.586 42.8111 49.7481 41.6553 48.2727 40.0687C47.9133 39.6824 47.5735 39.2729 47.2602 38.8361C46.8944 38.326 46.5618 37.7826 46.2676 37.2066C45.5625 35.826 45.1373 34.3764 44.9682 32.9217C44.8377 31.7998 44.8625 30.6756 45.0291 29.5771C45.6186 25.6904 48.0047 22.134 51.7729 20.2096C57.9868 17.0361 65.5965 19.501 68.7698 25.7148C71.943 31.9287 69.4784 39.5385 63.2645 42.7117C61.1938 43.7695 58.9686 44.1977 56.8038 44.0729Z" fill="white"/>
<path d="M10.3477 31.1655C8.34942 33.8892 7.39903 37.1771 7.40235 40.6968C7.50724 40.7226 7.6086 40.7692 7.69884 40.8409L8.97403 41.8556C9.31056 42.1233 9.79864 42.0655 10.0643 41.7265L14.7055 35.8036C14.9711 35.4646 14.9137 34.9726 14.5774 34.705L10.6072 31.5462C10.4797 31.4448 10.3928 31.3108 10.3477 31.1655Z" fill="white"/>
<path d="M8.13994 44.1822C8.40557 43.8432 8.34815 43.3512 8.01182 43.0836L7.50049 42.6768C7.56455 43.3271 7.65537 43.9822 7.78018 44.6416L8.13994 44.1822Z" fill="white"/>
<path d="M56.6614 54.588L55.1577 53.3915C54.8212 53.1238 54.3331 53.1816 54.0675 53.5206L49.4263 59.4435C49.1607 59.7826 49.2181 60.2743 49.5544 60.5421L54.0165 64.0925C55.8839 61.3515 56.7327 58.0753 56.6614 54.588Z" fill="white"/>
<path d="M18.6745 52.5645C18.9401 52.2254 18.8827 51.7336 18.5464 51.4658L10.4489 45.0229C10.1124 44.7551 9.62432 44.8129 9.35869 45.152L8.4542 46.3061C8.38662 46.3922 8.30459 46.4598 8.21436 46.509C9.28193 50.4319 11.3813 54.4073 14.3933 58.0282L18.6745 52.5645Z" fill="white"/>
<path d="M69.187 36.2817C69.3815 35.8104 69.5417 35.3271 69.678 34.836C66.5735 34.1337 63.7911 32.1112 62.2303 29.0548C60.6694 25.9983 60.6622 22.5587 61.9133 19.6319C61.4356 19.4546 60.9501 19.3009 60.4542 19.1821C59.0942 22.4784 59.1225 26.3241 60.8714 29.7487C62.6206 33.1733 65.7192 35.4509 69.187 36.2817Z" fill="white"/>
<path d="M45.8501 26.6401C45.6556 27.1114 45.4955 27.5948 45.3591 28.0858C48.4638 28.7882 51.246 30.8106 52.807 33.8671C53.6546 35.5271 54.0406 37.2997 54.0191 39.0421C54.0029 40.3653 53.75 41.67 53.2802 42.8952C53.2296 43.0274 53.1794 43.1597 53.1238 43.2899C53.275 43.346 53.4273 43.3987 53.58 43.4499C53.9101 43.5601 54.2439 43.6585 54.5828 43.7397C54.923 42.9149 55.1763 42.0558 55.3376 41.1774C55.8208 38.5454 55.4769 35.7409 54.1656 33.1731C52.4166 29.7485 49.3179 27.471 45.8501 26.6401Z" fill="white"/>
</svg>
