<svg width="311" height="26" viewBox="0 0 311 26" fill="none" xmlns="http://www.w3.org/2000/svg">
<mask id="path-1-outside-1" maskUnits="userSpaceOnUse" x="0.0449219" y="-0.222168" width="310" height="26" fill="black">
<rect fill="white" x="0.0449219" y="-0.222168" width="310" height="26"/>
<path d="M20.5569 15.1538L15.4349 2.95983L10.3649 15.1538L6.43892 3.86983H2.04492L9.68892 23.0838L15.4349 11.2018L21.1809 23.0838L28.8249 3.86983H24.4569L20.5569 15.1538Z"/>
<path d="M32.2567 3.86983V22.0698H36.0007V14.0878H44.4767V22.0698H48.2207V3.86983H44.4767V10.6818H36.0007V3.86983H32.2567Z"/>
<path d="M53.4122 3.86983V22.0698H57.2082V3.86983H53.4122Z"/>
<path d="M64.0429 15.9338L61.3389 17.8578C62.5349 20.4578 65.2909 22.5378 68.6709 22.5378C71.9469 22.5378 75.0669 20.5098 75.0669 16.9738C75.0669 13.9058 72.8049 12.2678 70.4389 11.4358C67.7089 10.4998 66.3569 9.74583 66.3569 8.39383C66.3569 7.48383 67.0849 6.70383 68.5409 6.70383C70.1529 6.70383 71.2709 7.76983 72.0509 9.06983L74.9629 7.40583C74.0269 5.53383 71.9729 3.50583 68.5409 3.50583C65.1349 3.50583 62.5089 5.48183 62.5089 8.54983C62.5089 12.0338 65.5509 13.3338 67.3709 14.0098C69.8149 14.9458 71.1149 15.5178 71.1149 17.1818C71.1149 18.4818 70.1269 19.3138 68.6189 19.3138C66.6689 19.3138 65.1869 17.9618 64.0429 15.9338Z"/>
<path d="M79.3462 3.86983V22.0698H83.1942V13.8278L89.9542 22.0698H94.4782L86.5742 12.3978L94.1142 3.86983H89.6682L83.1942 11.2538V3.86983H79.3462Z"/>
<path d="M97.7848 3.86983V22.0698H109.381V18.8978H101.425V13.9578H108.861V10.8638H101.425V7.04183H109.381V3.86983H97.7848Z"/>
<path d="M124.459 3.86983L120.559 11.2018L116.685 3.86983H112.395L118.661 14.5558V22.0698H122.483V14.5298L128.749 3.86983H124.459Z"/>
<path d="M141.116 3.86983V22.0698H152.712V18.8978H144.756V13.9578H152.192V10.8638H144.756V7.04183H152.712V3.86983H141.116Z"/>
<path d="M170.598 3.86983V15.1018L157.676 2.95983V22.0698H161.316V10.8378L174.212 22.9798V3.86983H170.598Z"/>
<path d="M177.621 7.24983H182.509V22.0698H186.253V7.24983H191.167V3.86983H177.621V7.24983Z"/>
<path d="M194.579 3.86983V22.0698H198.323V14.0878H206.799V22.0698H210.543V3.86983H206.799V10.6818H198.323V3.86983H194.579Z"/>
<path d="M215.604 3.86983V16.0898C215.604 20.3798 218.568 22.6938 222.572 22.6938C226.576 22.6938 229.566 20.3798 229.566 16.0898V3.86983H225.822V15.8818C225.822 17.9098 224.704 19.2878 222.572 19.2878C220.44 19.2878 219.322 17.9098 219.322 15.8818V3.86983H215.604Z"/>
<path d="M236.268 15.9338L233.564 17.8578C234.76 20.4578 237.516 22.5378 240.896 22.5378C244.172 22.5378 247.292 20.5098 247.292 16.9738C247.292 13.9058 245.03 12.2678 242.664 11.4358C239.934 10.4998 238.582 9.74583 238.582 8.39383C238.582 7.48383 239.31 6.70383 240.766 6.70383C242.378 6.70383 243.496 7.76983 244.276 9.06983L247.188 7.40583C246.252 5.53383 244.198 3.50583 240.766 3.50583C237.36 3.50583 234.734 5.48183 234.734 8.54983C234.734 12.0338 237.776 13.3338 239.596 14.0098C242.04 14.9458 243.34 15.5178 243.34 17.1818C243.34 18.4818 242.352 19.3138 240.844 19.3138C238.894 19.3138 237.412 17.9618 236.268 15.9338Z"/>
<path d="M251.571 3.86983V22.0698H255.367V3.86983H251.571Z"/>
<path d="M272.888 22.0698H277.126L267.87 2.77783L258.64 22.0698H262.878L264.75 17.9618H270.99L272.888 22.0698ZM267.87 9.79783L270.106 14.9978H265.634L267.87 9.79783Z"/>
<path d="M282.011 15.9338L279.307 17.8578C280.503 20.4578 283.259 22.5378 286.639 22.5378C289.915 22.5378 293.035 20.5098 293.035 16.9738C293.035 13.9058 290.773 12.2678 288.407 11.4358C285.677 10.4998 284.325 9.74583 284.325 8.39383C284.325 7.48383 285.053 6.70383 286.509 6.70383C288.121 6.70383 289.239 7.76983 290.019 9.06983L292.931 7.40583C291.995 5.53383 289.941 3.50583 286.509 3.50583C283.103 3.50583 280.477 5.48183 280.477 8.54983C280.477 12.0338 283.519 13.3338 285.339 14.0098C287.783 14.9458 289.083 15.5178 289.083 17.1818C289.083 18.4818 288.095 19.3138 286.587 19.3138C284.637 19.3138 283.155 17.9618 282.011 15.9338Z"/>
<path d="M295.495 7.24983H300.383V22.0698H304.127V7.24983H309.041V3.86983H295.495V7.24983Z"/>
</mask>
<path d="M20.5569 15.1538L15.4349 2.95983L10.3649 15.1538L6.43892 3.86983H2.04492L9.68892 23.0838L15.4349 11.2018L21.1809 23.0838L28.8249 3.86983H24.4569L20.5569 15.1538Z" stroke="white" stroke-width="2" mask="url(#path-1-outside-1)"/>
<path d="M32.2567 3.86983V22.0698H36.0007V14.0878H44.4767V22.0698H48.2207V3.86983H44.4767V10.6818H36.0007V3.86983H32.2567Z" stroke="white" stroke-width="2" mask="url(#path-1-outside-1)"/>
<path d="M53.4122 3.86983V22.0698H57.2082V3.86983H53.4122Z" stroke="white" stroke-width="2" mask="url(#path-1-outside-1)"/>
<path d="M64.0429 15.9338L61.3389 17.8578C62.5349 20.4578 65.2909 22.5378 68.6709 22.5378C71.9469 22.5378 75.0669 20.5098 75.0669 16.9738C75.0669 13.9058 72.8049 12.2678 70.4389 11.4358C67.7089 10.4998 66.3569 9.74583 66.3569 8.39383C66.3569 7.48383 67.0849 6.70383 68.5409 6.70383C70.1529 6.70383 71.2709 7.76983 72.0509 9.06983L74.9629 7.40583C74.0269 5.53383 71.9729 3.50583 68.5409 3.50583C65.1349 3.50583 62.5089 5.48183 62.5089 8.54983C62.5089 12.0338 65.5509 13.3338 67.3709 14.0098C69.8149 14.9458 71.1149 15.5178 71.1149 17.1818C71.1149 18.4818 70.1269 19.3138 68.6189 19.3138C66.6689 19.3138 65.1869 17.9618 64.0429 15.9338Z" stroke="white" stroke-width="2" mask="url(#path-1-outside-1)"/>
<path d="M79.3462 3.86983V22.0698H83.1942V13.8278L89.9542 22.0698H94.4782L86.5742 12.3978L94.1142 3.86983H89.6682L83.1942 11.2538V3.86983H79.3462Z" stroke="white" stroke-width="2" mask="url(#path-1-outside-1)"/>
<path d="M97.7848 3.86983V22.0698H109.381V18.8978H101.425V13.9578H108.861V10.8638H101.425V7.04183H109.381V3.86983H97.7848Z" stroke="white" stroke-width="2" mask="url(#path-1-outside-1)"/>
<path d="M124.459 3.86983L120.559 11.2018L116.685 3.86983H112.395L118.661 14.5558V22.0698H122.483V14.5298L128.749 3.86983H124.459Z" stroke="white" stroke-width="2" mask="url(#path-1-outside-1)"/>
<path d="M141.116 3.86983V22.0698H152.712V18.8978H144.756V13.9578H152.192V10.8638H144.756V7.04183H152.712V3.86983H141.116Z" stroke="white" stroke-width="2" mask="url(#path-1-outside-1)"/>
<path d="M170.598 3.86983V15.1018L157.676 2.95983V22.0698H161.316V10.8378L174.212 22.9798V3.86983H170.598Z" stroke="white" stroke-width="2" mask="url(#path-1-outside-1)"/>
<path d="M177.621 7.24983H182.509V22.0698H186.253V7.24983H191.167V3.86983H177.621V7.24983Z" stroke="white" stroke-width="2" mask="url(#path-1-outside-1)"/>
<path d="M194.579 3.86983V22.0698H198.323V14.0878H206.799V22.0698H210.543V3.86983H206.799V10.6818H198.323V3.86983H194.579Z" stroke="white" stroke-width="2" mask="url(#path-1-outside-1)"/>
<path d="M215.604 3.86983V16.0898C215.604 20.3798 218.568 22.6938 222.572 22.6938C226.576 22.6938 229.566 20.3798 229.566 16.0898V3.86983H225.822V15.8818C225.822 17.9098 224.704 19.2878 222.572 19.2878C220.44 19.2878 219.322 17.9098 219.322 15.8818V3.86983H215.604Z" stroke="white" stroke-width="2" mask="url(#path-1-outside-1)"/>
<path d="M236.268 15.9338L233.564 17.8578C234.76 20.4578 237.516 22.5378 240.896 22.5378C244.172 22.5378 247.292 20.5098 247.292 16.9738C247.292 13.9058 245.03 12.2678 242.664 11.4358C239.934 10.4998 238.582 9.74583 238.582 8.39383C238.582 7.48383 239.31 6.70383 240.766 6.70383C242.378 6.70383 243.496 7.76983 244.276 9.06983L247.188 7.40583C246.252 5.53383 244.198 3.50583 240.766 3.50583C237.36 3.50583 234.734 5.48183 234.734 8.54983C234.734 12.0338 237.776 13.3338 239.596 14.0098C242.04 14.9458 243.34 15.5178 243.34 17.1818C243.34 18.4818 242.352 19.3138 240.844 19.3138C238.894 19.3138 237.412 17.9618 236.268 15.9338Z" stroke="white" stroke-width="2" mask="url(#path-1-outside-1)"/>
<path d="M251.571 3.86983V22.0698H255.367V3.86983H251.571Z" stroke="white" stroke-width="2" mask="url(#path-1-outside-1)"/>
<path d="M272.888 22.0698H277.126L267.87 2.77783L258.64 22.0698H262.878L264.75 17.9618H270.99L272.888 22.0698ZM267.87 9.79783L270.106 14.9978H265.634L267.87 9.79783Z" stroke="white" stroke-width="2" mask="url(#path-1-outside-1)"/>
<path d="M282.011 15.9338L279.307 17.8578C280.503 20.4578 283.259 22.5378 286.639 22.5378C289.915 22.5378 293.035 20.5098 293.035 16.9738C293.035 13.9058 290.773 12.2678 288.407 11.4358C285.677 10.4998 284.325 9.74583 284.325 8.39383C284.325 7.48383 285.053 6.70383 286.509 6.70383C288.121 6.70383 289.239 7.76983 290.019 9.06983L292.931 7.40583C291.995 5.53383 289.941 3.50583 286.509 3.50583C283.103 3.50583 280.477 5.48183 280.477 8.54983C280.477 12.0338 283.519 13.3338 285.339 14.0098C287.783 14.9458 289.083 15.5178 289.083 17.1818C289.083 18.4818 288.095 19.3138 286.587 19.3138C284.637 19.3138 283.155 17.9618 282.011 15.9338Z" stroke="white" stroke-width="2" mask="url(#path-1-outside-1)"/>
<path d="M295.495 7.24983H300.383V22.0698H304.127V7.24983H309.041V3.86983H295.495V7.24983Z" stroke="white" stroke-width="2" mask="url(#path-1-outside-1)"/>
</svg>
