<svg width="276" height="73" viewBox="0 0 276 73" fill="none" xmlns="http://www.w3.org/2000/svg">
<path d="M46.2373 24.4551L33.3783 59H26.077L7.00649 6.14744H0.903921V0.153845H20.5193V6.14744H13.7629L30.0001 51.3718H30.436L43.5129 16.391L39.6988 6.14744H33.3783L33.5962 0.153845H53.2116V6.14744H46.4552L63.4552 51.3718H63.8911L79.9103 6.14744H72.827V0.153845H92.4424V6.14744H86.2308L66.8334 59H59.5321L46.6732 24.4551H46.2373ZM95.1667 29.4679C95.1667 20.6773 97.6368 13.594 102.577 8.21795C107.517 2.84188 114.128 0.153845 122.41 0.153845C130.474 0.153845 136.831 2.7329 141.481 7.89102C146.203 13.0491 148.564 19.9872 148.564 28.7051C148.564 38.0043 146.094 45.3782 141.154 50.8269C136.214 56.2756 129.712 59 121.648 59C113.656 59 107.227 56.3483 102.359 51.0449C97.5642 45.6688 95.1667 38.4765 95.1667 29.4679ZM102.25 29.032C102.25 36.297 103.994 42.109 107.481 46.4679C110.968 50.8269 115.763 53.0064 121.865 53.0064C128.041 53.0064 132.836 50.8269 136.25 46.4679C139.737 42.109 141.481 36.297 141.481 29.032C141.481 22.1303 139.81 16.609 136.468 12.4679C133.199 8.25427 128.368 6.14744 121.974 6.14744C115.654 6.14744 110.786 8.18162 107.372 12.25C103.957 16.2457 102.25 21.8397 102.25 29.032ZM170.929 32.8462V53.0064H177.468V59H157.853V53.0064H164.391V6.14744H157.853V0.153845H184.006C191.126 0.153845 196.248 1.46154 199.372 4.07692C202.568 6.69231 204.167 10.6154 204.167 15.8462C204.167 24.8547 198.972 30.2308 188.583 31.9744V32.3013C189.818 32.9551 191.017 33.8632 192.179 35.0256C193.342 36.188 194.722 38.1496 196.32 40.9103L203.295 53.0064H210.16V59H198.609C197.665 57.2564 196.756 55.6581 195.885 54.2051C195.085 52.6795 194.286 51.2265 193.487 49.8462L189.782 43.3077C188.474 40.9103 187.312 39.0214 186.295 37.641C185.35 36.2607 184.406 35.2073 183.462 34.4808C182.517 33.7543 181.536 33.3184 180.519 33.1731C179.502 32.9551 178.303 32.8462 176.923 32.8462H170.929ZM182.917 26.8526C187.494 26.8526 190.981 26.0171 193.378 24.3462C195.848 22.6752 197.083 19.9872 197.083 16.282C197.083 12.7222 195.994 10.1432 193.814 8.54487C191.707 6.94658 188.256 6.14744 183.462 6.14744H170.929V26.8526H182.917ZM269.013 53.0064V59H249.397V53.0064H254.083L230.872 29.4679L255.064 6.14744H249.397V0.153845H269.013V6.14744H263.128L239.481 28.9231L263.237 53.0064H269.013ZM216.705 53.0064H223.244V6.14744H216.705V0.153845H236.32V6.14744H229.782V53.0064H236.32V59H216.705V53.0064Z" fill="#74FFA9"/>
<path d="M7.44238 67.1731H275.551V72.6218H7.44238V67.1731Z" fill="#74FFA9"/>
</svg>
